<?xml version="1.0" encoding="UTF-8"?>
<svg version="1.1" xmlns="http://www.w3.org/2000/svg" width="200" height="200">
<path d="M0 0 C73.59 0 147.18 0 223 0 C223 74.58 223 149.16 223 226 C149.41 226 75.82 226 0 226 C0 151.42 0 76.84 0 0 Z " fill="#6819B7" transform="translate(0,0)"/>
<path d="M0 0 C73.59 0 147.18 0 223 0 C223 74.58 223 149.16 223 226 C149.41 226 75.82 226 0 226 C0 151.42 0 76.84 0 0 Z M36.58447266 46.55126953 C26.40700275 58.2422551 19.4221719 72.64133327 15.375 87.5625 C15.13523437 88.43003906 14.89546875 89.29757813 14.6484375 90.19140625 C8.94341861 114.90169891 14.90156026 140.20669638 27.07421875 161.9609375 C30.27900538 167.01838982 34.07206316 171.49605829 38 176 C38.78632812 176.98484375 39.57265625 177.9696875 40.3828125 178.984375 C43.10395946 182.11978612 45.9961357 184.75957621 49.25 187.3125 C49.84264648 187.77889893 50.43529297 188.24529785 51.04589844 188.72583008 C62.63542873 197.6956148 62.63542873 197.6956148 76 202 C76 202.66 76 203.32 76 204 C75.34 204 74.68 204 74 204 C74 204.66 74 205.32 74 206 C72.02 206 70.04 206 68 206 C68.57944932 207.99863756 68.57944932 207.99863756 70 210 C79.02727907 214.0837691 89.61402008 213.16302263 99.3046875 213.16796875 C100.79387442 213.1711886 102.28306103 213.1745532 103.77224731 213.17805481 C106.88381686 213.18401829 109.99535874 213.18589755 113.10693359 213.18530273 C117.0696585 213.18520118 121.03220396 213.19885866 124.9948864 213.21607494 C128.06805212 213.22725968 131.1411753 213.22921998 134.21435928 213.22869301 C135.67421208 213.22986318 137.13406633 213.23423005 138.59389877 213.24202538 C152.4080273 213.69117622 152.4080273 213.69117622 165 209 C164.50243908 206.24358584 164.50243908 206.24358584 163 204 C160.81707226 203.76518307 158.62796826 203.58636677 156.4375 203.4375 C155.23996094 203.35371094 154.04242188 203.26992187 152.80859375 203.18359375 C151.88175781 203.12300781 150.95492187 203.06242188 150 203 C152.32068165 200.19766744 155.15503149 198.75974207 158.34399414 197.09521484 C167.17625402 192.47462967 173.99839876 187.0338172 181 180 C181.67546875 179.37222656 182.3509375 178.74445313 183.046875 178.09765625 C201.84636427 160.42114532 209.46758108 134.36897084 210.375 109.3125 C209.90402303 83.29102235 199.03457863 58.60116289 180.53515625 40.47265625 C159.44075133 20.23705662 134.10505993 12.34809301 105.22265625 12.73046875 C78.56956714 13.55437268 54.3277175 27.10653381 36.58447266 46.55126953 Z " fill="#FDFDFD" transform="translate(0,0)"/>
<path d="M0 0 C4.93161628 2.56855015 9.1908336 6.16252023 12 11 C12.92687664 14.24115355 12.91422375 16.75507001 12 20 C10.09596458 23.129836 7.606931 25.4482536 5 28 C3.0779801 29.91785283 1.15718821 31.83685289 -0.76171875 33.7578125 C-1.52035217 34.5168689 -1.52035217 34.5168689 -2.29431152 35.29125977 C-3.52968485 36.52736278 -4.76486261 37.76366124 -6 39 C-4.76424477 39.00546844 -4.76424477 39.00546844 -3.50352478 39.01104736 C4.27939752 39.04899273 12.06184461 39.10591902 19.84446049 39.18390274 C23.84513496 39.22332809 27.84559097 39.25554052 31.84643555 39.27099609 C35.71113497 39.28619568 39.5752336 39.32069854 43.43966484 39.36830902 C44.91031088 39.38308904 46.38104271 39.39103907 47.85176277 39.39188385 C62.15320976 39.4083529 62.15320976 39.4083529 68 44 C71.68224044 47.91980434 71.43769495 52.27880732 71.29296875 57.40625 C70.77331365 62.00692978 68.49257093 65.08952422 65 68 C61.61777868 69.12740711 58.98361297 69.15917691 55.41723633 69.20532227 C54.42171501 69.22017166 54.42171501 69.22017166 53.40608215 69.23532104 C51.21476801 69.2668809 49.02343219 69.29167155 46.83203125 69.31640625 C45.31173645 69.33698055 43.79144731 69.35797715 42.27116394 69.37937927 C38.27141913 69.43455084 34.27162311 69.48398175 30.27178955 69.53222656 C26.18961026 69.5824775 22.10750526 69.63814481 18.02539062 69.69335938 C10.0169899 69.80088082 2.00852701 69.90233911 -6 70 C-5.52578613 70.46374023 -5.05157227 70.92748047 -4.56298828 71.40527344 C-2.41172745 73.51489016 -0.26832462 75.632322 1.875 77.75 C2.62136719 78.47960937 3.36773437 79.20921875 4.13671875 79.9609375 C5.20986328 81.02441406 5.20986328 81.02441406 6.3046875 82.109375 C6.96452637 82.75874023 7.62436523 83.40810547 8.30419922 84.07714844 C11.7399967 87.97296488 12.61231476 91.51018837 12.51953125 96.61328125 C11.54539352 101.08845533 8.41397554 104.10644756 5 107 C1.12858459 109.2986529 -2.58486124 110.02696451 -7 109 C-10.08047869 107.07624724 -12.47545753 104.59351904 -15 102 C-16.26263672 100.75476563 -16.26263672 100.75476563 -17.55078125 99.484375 C-20.89791048 96.17195674 -24.19870934 92.81506284 -27.5 89.45703125 C-30.60755391 86.40288843 -33.89373357 83.59637413 -37.20703125 80.76953125 C-37.79871094 80.18558594 -38.39039062 79.60164063 -39 79 C-39 78.34 -39 77.68 -39 77 C-39.66 77 -40.32 77 -41 77 C-45.76744186 72.69767442 -45.76744186 72.69767442 -47 69 C-47.99 68.67 -48.98 68.34 -50 68 C-53.58379766 64.09357335 -56.38537041 59.81344905 -56.75 54.4375 C-55.85554844 45.41211755 -46.86788114 38.57273297 -40.8046875 32.5390625 C-39.93482208 31.66728363 -39.06495667 30.79550476 -38.16873169 29.89730835 C-36.34069289 28.06791565 -34.5101544 26.24101771 -32.67724609 24.41650391 C-29.86972718 21.61974739 -27.07310376 18.81241214 -24.27734375 16.00390625 C-22.49543304 14.22331626 -20.71290249 12.44334629 -18.9296875 10.6640625 C-18.0942038 9.82453033 -17.25872009 8.98499817 -16.3979187 8.12002563 C-15.6167569 7.34516815 -14.83559509 6.57031067 -14.03076172 5.77197266 C-13.34714569 5.08994781 -12.66352966 4.40792297 -11.959198 3.70523071 C-8.13163626 0.37382886 -5.07901675 -0.60948201 0 0 Z " fill="#FDFCFC" transform="translate(104,56)"/>
<path d="M0 0 C0.825 0.19335938 1.65 0.38671875 2.5 0.5859375 C26.12716988 6.57045092 47.19623678 24.10926182 59.57299805 44.71020508 C73.0282961 68.02881433 75.89187771 93.89549143 70 120 C63.17613253 144.51654309 47.03184174 166.21299728 25.15234375 179.23046875 C21.48996966 181.28629956 17.76996263 183.1519791 14 185 C13.67 185.66 13.34 186.32 13 187 C14.37285156 187.07347656 14.37285156 187.07347656 15.7734375 187.1484375 C16.96195313 187.22320312 18.15046875 187.29796875 19.375 187.375 C21.15003906 187.47941406 21.15003906 187.47941406 22.9609375 187.5859375 C26 188 26 188 28 190 C28 190.99 28 191.98 28 193 C21.32194305 196.07190619 15.61411497 197.12435784 8.20361328 197.12939453 C7.55234467 197.13114685 6.90107605 197.13289917 6.23007202 197.13470459 C4.09345778 197.13907813 1.95692747 197.13620035 -0.1796875 197.1328125 C-1.676524 197.13348699 -3.1733604 197.13445823 -4.67019653 197.13571167 C-7.80211432 197.13718269 -10.93400351 197.13505385 -14.06591797 197.13037109 C-18.06247686 197.12468407 -22.05896842 197.12795009 -26.05552483 197.13394356 C-29.14576719 197.1375737 -32.23599386 197.13639918 -35.32623672 197.13381577 C-36.79890069 197.13315276 -38.27156611 197.13395281 -39.74422836 197.13629532 C-60.15691655 197.16163612 -60.15691655 197.16163612 -68 193 C-68.33 192.01 -68.66 191.02 -69 190 C-67.02 190 -65.04 190 -63 190 C-63 189.34 -63 188.68 -63 188 C-62.34 188 -61.68 188 -61 188 C-61 187.34 -61 186.68 -61 186 C-61.83144531 185.75378906 -62.66289063 185.50757813 -63.51953125 185.25390625 C-78.16490432 179.97762706 -91.38340748 170.14499999 -101 158 C-101.70769531 157.15179688 -102.41539063 156.30359375 -103.14453125 155.4296875 C-119.51635428 134.95793605 -125.52636115 109.81965798 -124 84 C-123.43727222 79.2261378 -122.2826765 74.62722552 -121 70 C-120.80664062 69.16984375 -120.61328125 68.3396875 -120.4140625 67.484375 C-115.10974589 46.68043192 -100.55932355 26.9956551 -83 15 C-82.21367188 14.44699219 -81.42734375 13.89398437 -80.6171875 13.32421875 C-57.00035974 -2.57307874 -27.55853272 -8.01294294 0 0 Z M-57.0625 5.8125 C-57.74803955 6.0796582 -58.4335791 6.34681641 -59.13989258 6.62207031 C-61.10069443 7.39779246 -63.05185471 8.19309147 -65 9 C-65.92039063 9.38027344 -66.84078125 9.76054687 -67.7890625 10.15234375 C-89.16992344 19.93739574 -106.24449363 40.22615501 -114.55078125 61.8828125 C-123.15234256 85.8001695 -122.04101418 111.62857493 -111.18359375 134.6953125 C-103.02902207 150.57385142 -92.46340841 164.6921699 -77 174 C-76.08347656 174.57621094 -75.16695312 175.15242187 -74.22265625 175.74609375 C-51.79619772 189.44951454 -26.34748868 192.10463078 -1 186 C6.4130831 184.13495495 13.05319129 181.12885547 19.8125 177.625 C20.87102173 177.08045166 20.87102173 177.08045166 21.95092773 176.52490234 C26.86329045 173.88696415 30.87852009 170.7348208 35 167 C35.69867188 166.42894531 36.39734375 165.85789063 37.1171875 165.26953125 C42.83414741 160.5308067 47.67580171 155.03586011 52 149 C52 148.34 52 147.68 52 147 C52.66 147 53.32 147 54 147 C68.3290065 119.94200012 72.33563594 94.92871174 65 65 C63.70792981 60.82697504 62.03049345 56.86958793 60 53 C59.34 53 58.68 53 58 53 C57.73832031 52.12472656 57.47664062 51.24945313 57.20703125 50.34765625 C54.51593022 42.88398771 49.80538089 36.35881313 44 31 C43.03291301 29.84057918 42.07518355 28.67331373 41.125 27.5 C38.11692414 23.93862521 34.93492325 21.49716283 31 19 C30.34 19 29.68 19 29 19 C29 18.34 29 17.68 29 17 C27.66798625 16.2476589 26.33429532 15.49828724 25 14.75 C24.2575 14.33234375 23.515 13.9146875 22.75 13.484375 C16.49518884 10.10819852 10.26978559 7.17941563 3.5625 4.8125 C2.86318359 4.55275391 2.16386719 4.29300781 1.44335938 4.02539062 C-7.51118021 0.84319887 -16.45259194 0.81845601 -25.875 0.8125 C-26.88691406 0.80025391 -27.89882812 0.78800781 -28.94140625 0.77539062 C-38.80184204 0.75645253 -47.88571423 2.17687856 -57.0625 5.8125 Z " fill="#9C4AEE" transform="translate(137,16)"/>
<path d="M0 0 C0.825 0.19335938 1.65 0.38671875 2.5 0.5859375 C26.12716988 6.57045092 47.19623678 24.10926182 59.57299805 44.71020508 C73.0282961 68.02881433 75.89187771 93.89549143 70 120 C63.03773899 145.01375836 46.71241902 165.45898202 25.25390625 179.62109375 C21.34886334 181.27593186 19.07572423 180.95323512 15 180 C17.78587133 177.83250285 20.62701795 176.00447924 23.6875 174.25 C34.62030723 167.75159098 46.19389567 158.61220866 52 147 C52.66 147 53.32 147 54 147 C54.3403125 145.824375 54.3403125 145.824375 54.6875 144.625 C55.74034945 141.7171301 56.8733926 139.27327148 58.3125 136.5625 C68.13700617 117.23322012 69.78192527 97.18814486 66.25 76.0625 C66.09321777 75.1036792 65.93643555 74.1448584 65.77490234 73.15698242 C64.77529328 67.64283979 63.30866872 62.8896905 60.79589844 57.87280273 C60 56 60 56 60 53 C59.34 53 58.68 53 58 53 C57.55269531 52.13117188 57.10539063 51.26234375 56.64453125 50.3671875 C53.52509002 44.42096051 50.48820488 39.03222971 46 34 C46 33.34 46 32.68 46 32 C45.4225 31.773125 44.845 31.54625 44.25 31.3125 C42 30 42 30 40.3125 27.75 C37.53716317 24.44959945 34.4832028 22.56634494 30.828125 20.33203125 C30.22484375 19.89246094 29.6215625 19.45289062 29 19 C29 18.34 29 17.68 29 17 C28.175 16.773125 27.35 16.54625 26.5 16.3125 C23.65410331 15.24528874 21.8518475 14.31274562 19.40234375 12.65234375 C14.85009111 9.76073697 10.15131724 7.97857006 5.0625 6.25 C4.22009766 5.94707031 3.37769531 5.64414062 2.50976562 5.33203125 C-6.92473144 2.06372973 -15.95618242 1.8187698 -25.875 1.8125 C-26.88691406 1.80025391 -27.89882812 1.78800781 -28.94140625 1.77539062 C-38.80184204 1.75645253 -47.88571423 3.17687856 -57.0625 6.8125 C-58.09080933 7.2132373 -58.09080933 7.2132373 -59.13989258 7.62207031 C-61.10069443 8.39779246 -63.05185471 9.19309147 -65 10 C-65.92039063 10.38027344 -66.84078125 10.76054687 -67.7890625 11.15234375 C-79.59655136 16.5560968 -89.15077972 25.71076324 -98 35 C-99.32990723 36.33675066 -100.66212383 37.67122503 -102 39 C-102 37.68 -102 36.36 -102 35 C-101.34 35 -100.68 35 -100 35 C-99.79375 34.29875 -99.5875 33.5975 -99.375 32.875 C-97.82057694 29.62484269 -95.98005008 27.81813822 -93.33984375 25.4296875 C-91.74286991 23.9252405 -91.74286991 23.9252405 -91 21 C-88.55198312 18.72216611 -85.74775004 16.89852632 -83 15 C-82.20335938 14.43925781 -81.40671875 13.87851562 -80.5859375 13.30078125 C-56.96893645 -2.57469529 -27.54871592 -8.0100886 0 0 Z " fill="#892DDC" transform="translate(137,16)"/>
<path d="M0 0 C8.57142857 0.71428571 8.57142857 0.71428571 12 4 C11.34 4 10.68 4 10 4 C10 4.99 10 5.98 10 7 C10.78375 7.144375 11.5675 7.28875 12.375 7.4375 C15 8 15 8 17 9 C17 9.66 17 10.32 17 11 C17.99 10.67 18.98 10.34 20 10 C20.350625 10.969375 20.70125 11.93875 21.0625 12.9375 C21.701875 13.948125 22.34125 14.95875 23 16 C26.52513528 16.74176007 26.52513528 16.74176007 30 17 C32.59997112 20.89995668 31.77789029 22.48823635 31 27 C30.96454703 28.66628955 30.94951812 30.33409803 31 32 C28.29444081 32.78912143 25.66879292 33.15304108 22.875 33.4375 C18.99494452 33.60626041 18.99494452 33.60626041 17 36 C17.74765625 35.90460938 18.4953125 35.80921875 19.265625 35.7109375 C20.25046875 35.60007813 21.2353125 35.48921875 22.25 35.375 C23.22453125 35.25898437 24.1990625 35.14296875 25.203125 35.0234375 C28.13429393 34.99887463 29.54528964 35.4687283 32 37 C31.33613281 37.19335938 30.67226562 37.38671875 29.98828125 37.5859375 C23.40210691 39.52751352 23.40210691 39.52751352 17 42 C17 42.99 17 43.98 17 45 C21.95 45.33 26.9 45.66 32 46 C32 45.34 32 44.68 32 44 C33.0058313 43.96241577 33.0058313 43.96241577 34.03198242 43.92407227 C37.0839959 43.80769199 40.13573258 43.68515652 43.1875 43.5625 C44.24259766 43.52318359 45.29769531 43.48386719 46.38476562 43.44335938 C47.40634766 43.40146484 48.42792969 43.35957031 49.48046875 43.31640625 C50.88655396 43.26141968 50.88655396 43.26141968 52.32104492 43.20532227 C54.95114982 43.00374401 57.42766414 42.57321679 60 42 C59.01 42.495 59.01 42.495 58 43 C58 43.66 58 44.32 58 45 C58.59167969 44.89300781 59.18335938 44.78601563 59.79296875 44.67578125 C66.30477193 43.68785679 66.30477193 43.68785679 70.0625 45.375 C70.701875 45.91125 71.34125 46.4475 72 47 C72 47.33 72 47.66 72 48 C48.32582581 48.93729488 24.69076896 49.12236967 1 49 C5.20141396 43.96922563 9.59859343 39.31671865 14.29492188 34.74414062 C17.63871113 31.45584995 19.17356864 29.55928998 19.5 24.875 C19.46681693 19.73991954 17.35254622 17.25750081 13.921875 13.62890625 C12.02859434 12.02423545 10.2634329 10.99651139 8 10 C8 9.34 8 8.68 8 8 C5.03 8 2.06 8 -1 8 C-0.67 5.36 -0.34 2.72 0 0 Z M8 3 C9 5 9 5 9 5 Z " fill="#964CE1" transform="translate(96,47)"/>
<path d="M0 0 C0 0.66 0 1.32 0 2 C0.91523438 2.04898438 1.83046875 2.09796875 2.7734375 2.1484375 C3.96195312 2.22320312 5.15046875 2.29796875 6.375 2.375 C8.15003906 2.47941406 8.15003906 2.47941406 9.9609375 2.5859375 C13 3 13 3 15 5 C15 5.99 15 6.98 15 8 C8.32194305 11.07190619 2.61411497 12.12435784 -4.79638672 12.12939453 C-5.44765533 12.13114685 -6.09892395 12.13289917 -6.76992798 12.13470459 C-8.90654222 12.13907813 -11.04307253 12.13620035 -13.1796875 12.1328125 C-14.676524 12.13348699 -16.1733604 12.13445823 -17.67019653 12.13571167 C-20.80211432 12.13718269 -23.93400351 12.13505385 -27.06591797 12.13037109 C-31.06247686 12.12468407 -35.05896842 12.12795009 -39.05552483 12.13394356 C-42.14576719 12.1375737 -45.23599386 12.13639918 -48.32623672 12.13381577 C-49.79890069 12.13315276 -51.27156611 12.13395281 -52.74422836 12.13629532 C-73.15691655 12.16163612 -73.15691655 12.16163612 -81 8 C-81.33 7.01 -81.66 6.02 -82 5 C-80.02 5 -78.04 5 -76 5 C-76 4.34 -76 3.68 -76 3 C-75.34 3 -74.68 3 -74 3 C-73.67 2.34 -73.34 1.68 -73 1 C-72.25234375 1.27714844 -71.5046875 1.55429688 -70.734375 1.83984375 C-69.25710937 2.38318359 -69.25710937 2.38318359 -67.75 2.9375 C-66.77546875 3.29714844 -65.8009375 3.65679687 -64.796875 4.02734375 C-57.42773678 6.59007478 -50.06684421 6.29600478 -42.34179688 6.35009766 C-40.63527636 6.36649414 -38.9288197 6.39356223 -37.22265625 6.43212891 C-24.08902622 6.72666234 -11.95919991 0 0 0 Z " fill="#CCCCCC" transform="translate(150,201)"/>
<path d="M0 0 C10.68893664 9.51407507 14.2616576 30.29403513 15.203125 43.9453125 C15.61873794 72.13772383 6.68277549 97.63008943 -12.84741211 118.30322266 C-19.59064876 125.21409093 -27.00959512 132.19014055 -36 136 C-39.91015625 135.72265625 -39.91015625 135.72265625 -43 135 C-40.21412867 132.83250285 -37.37298205 131.00447924 -34.3125 129.25 C-23.37969277 122.75159098 -11.80610433 113.61220866 -6 102 C-5.34 102 -4.68 102 -4 102 C-3.6596875 100.824375 -3.6596875 100.824375 -3.3125 99.625 C-2.25965055 96.7171301 -1.1266074 94.27327148 0.3125 91.5625 C10.13700617 72.23322012 11.78192527 52.18814486 8.25 31.0625 C8.01482666 29.6242688 8.01482666 29.6242688 7.77490234 28.15698242 C6.77529328 22.64283979 5.30866872 17.8896905 2.79589844 12.87280273 C2 11 2 11 2 8 C1.34 8 0.68 8 0 8 C-0.99 5.69 -1.98 3.38 -3 1 C-2.01 0.67 -1.02 0.34 0 0 Z " fill="#8724EA" transform="translate(195,61)"/>
<path d="M0 0 C-1.41791563 2.93446886 -2.98332607 5.43332409 -5 8 C-8.875 6.25 -8.875 6.25 -10 4 C-10.66 4.66 -11.32 5.32 -12 6 C-13.66617115 6.04063832 -15.33388095 6.042721 -17 6 C-17.33 6.33 -17.66 6.66 -18 7 C-17.01 7.33 -16.02 7.66 -15 8 C-15.66 9.32 -16.32 10.64 -17 12 C-17.515625 11.773125 -18.03125 11.54625 -18.5625 11.3125 C-21.61168255 10.92157916 -23.41010174 11.94130428 -26.125 13.24609375 C-28 14 -28 14 -31.8125 14.4375 C-32.864375 14.623125 -33.91625 14.80875 -35 15 C-36.25827123 16.84982472 -36.25827123 16.84982472 -37 19 C-39.125 20.75 -39.125 20.75 -41 22 C-41.495 21.01 -41.495 21.01 -42 20 C-42.2784375 21.0828125 -42.2784375 21.0828125 -42.5625 22.1875 C-44.50446928 25.98700512 -47.30090719 27.94979526 -51 30 C-51.66 30 -52.32 30 -53 30 C-52.67 32.64 -52.34 35.28 -52 38 C-52.9075 38.5775 -53.815 39.155 -54.75 39.75 C-57.94835698 41.79709656 -57.94835698 41.79709656 -60 44.125 C-62.46903629 46.43972152 -64.76784573 47.11850338 -68 48 C-68 48.66 -68 49.32 -68 50 C-68 54 -68 58 -68 62 C-68.66 62 -69.32 62 -70 62 C-70.33 62.66 -70.66 63.32 -71 64 C-71 63.34 -71 62.68 -71 62 C-73.31 62.66 -75.62 63.32 -78 64 C-73.44821494 43.84886821 -59.81766616 28.58154708 -44 16 C-43.35675781 15.484375 -42.71351562 14.96875 -42.05078125 14.4375 C-34.80646084 9.13879707 -26.31714692 6.18909007 -18 3 C-17.0821875 2.63390625 -16.164375 2.2678125 -15.21875 1.890625 C-9.99824939 -0.05787171 -5.56602751 -0.26504893 0 0 Z " fill="#5508A3" transform="translate(100,18)"/>
<path d="M0 0 C0 0.66 0 1.32 0 2 C-0.66 2 -1.32 2 -2 2 C-2 2.66 -2 3.32 -2 4 C-3.98 4 -5.96 4 -8 4 C-5.51971577 7.72042635 -4.2601841 7.89550783 0 9 C7.73103745 10.29275938 15.48966396 10.16397996 23.3046875 10.16796875 C24.79387442 10.1711886 26.28306103 10.1745532 27.77224731 10.17805481 C30.88381686 10.18401829 33.99535874 10.18589755 37.10693359 10.18530273 C41.0696585 10.18520118 45.03220396 10.19885866 48.9948864 10.21607494 C52.06805212 10.22725968 55.1411753 10.22921998 58.21435928 10.22869301 C59.67421208 10.22986318 61.13406633 10.23423005 62.59389877 10.24202538 C70.59566967 10.28076179 78.21420745 10.03840489 86 8 C86 8.99 86 9.98 86 11 C84.72125 11.12375 83.4425 11.2475 82.125 11.375 C78.65209064 11.69042399 78.65209064 11.69042399 76 14 C73.989151 14.32989502 73.989151 14.32989502 71.48461914 14.44238281 C70.54505875 14.48872864 69.60549835 14.53507446 68.63746643 14.58282471 C67.61370407 14.6225238 66.58994171 14.6622229 65.53515625 14.703125 C63.94229042 14.77258331 63.94229042 14.77258331 62.31724548 14.84344482 C60.0552038 14.93892722 57.79294477 15.02937011 55.53051758 15.11523438 C52.13459883 15.24719827 48.74045805 15.40369266 45.34570312 15.5625 C32.34827404 16.11485329 19.88004798 15.84619908 7 14 C5.74670898 13.82227051 4.49341797 13.64454102 3.20214844 13.46142578 C0.12784461 13.00960352 -2.93564022 12.51468575 -6 12 C-7.14210938 11.81179687 -8.28421875 11.62359375 -9.4609375 11.4296875 C-12.30822573 10.95845798 -15.15450841 10.48193912 -18 10 C-18.99 7.03 -19.98 4.06 -21 1 C-20.01 0.67 -19.02 0.34 -18 0 C-18 -0.66 -18 -1.32 -18 -2 C-16.9275 -1.979375 -15.855 -1.95875 -14.75 -1.9375 C-11.23870756 -1.80267074 -11.23870756 -1.80267074 -9 -2.6875 C-5.60946001 -3.21727187 -3.03499044 -1.45913002 0 0 Z " fill="#D4D3D4" transform="translate(76,202)"/>
<path d="M0 0 C5.1273994 1.20644692 7.95462518 2.51909608 12 6 C24.04498424 15.27602235 37.89077686 22.40349302 53 24.6875 C53.82669189 24.8127002 54.65338379 24.93790039 55.50512695 25.06689453 C73.31654478 27.57795085 92.64534446 26.17732777 109 18 C110.99960012 17.960008 113.00047242 17.95653201 115 18 C115.495 18.99 115.495 18.99 116 20 C113.77115855 20.95909551 111.54194032 21.91729837 109.3125 22.875 C108.68666016 23.14441406 108.06082031 23.41382813 107.41601562 23.69140625 C105.61267769 24.46561416 103.80638637 25.23293164 102 26 C101.18917969 26.35320312 100.37835938 26.70640625 99.54296875 27.0703125 C93.04158645 29.44716194 87.12247282 30.30902931 80.2578125 30.30078125 C79.04519241 30.30720894 79.04519241 30.30720894 77.80807495 30.31376648 C76.10887584 30.31947303 74.40965231 30.32003739 72.71044922 30.31567383 C70.13856487 30.31251665 67.56783619 30.33600892 64.99609375 30.36132812 C56.55310864 30.3949696 48.91016612 30.30883384 41 27 C40.32646484 26.74468506 39.65292969 26.48937012 38.95898438 26.22631836 C37.01079912 25.46882432 35.09918666 24.65759194 33.1875 23.8125 C32.5073584 23.51206787 31.8272168 23.21163574 31.12646484 22.90209961 C4.4708579 10.80656561 4.4708579 10.80656561 0 0 Z " fill="#984EED" transform="translate(41,178)"/>
<path d="M0 0 C2.64 0 5.28 0 8 0 C8 0.66 8 1.32 8 2 C6.55184937 3.42938232 6.55184937 3.42938232 4.53662109 5.09667969 C-0.06007723 9.00808145 -4.32562519 13.18115713 -8.5859375 17.453125 C-9.36893219 18.23516296 -10.15192688 19.01720093 -10.95864868 19.82293701 C-12.5984979 21.46211042 -14.23710386 23.10252848 -15.87451172 24.74414062 C-18.38525797 27.26028 -20.90134536 29.77099037 -23.41796875 32.28125 C-25.01594605 33.87988748 -26.61361345 35.4788348 -28.2109375 37.078125 C-28.96297455 37.82813782 -29.7150116 38.57815063 -30.48983765 39.35089111 C-31.18461212 40.04881775 -31.8793866 40.74674438 -32.59521484 41.46582031 C-33.20618011 42.07758118 -33.81714539 42.68934204 -34.44662476 43.31964111 C-36.1963593 45.12392597 -36.1963593 45.12392597 -38 48 C-38.66 48 -39.32 48 -40 48 C-41.38328007 44.15755536 -40.60538038 40.96860469 -40 37 C-39.96296763 34.66696056 -39.95239087 32.33284758 -40 30 C-39.401875 29.855625 -38.80375 29.71125 -38.1875 29.5625 C-36.43849596 29.1127561 -34.71322977 28.57107659 -33 28 C-32.34 28.99 -31.68 29.98 -31 31 C-28.41619823 31.25030977 -28.41619823 31.25030977 -26 31 C-25.3503125 29.329375 -25.3503125 29.329375 -24.6875 27.625 C-23 24 -23 24 -20 22 C-20 20.68 -20 19.36 -20 18 C-20.66 17.34 -21.32 16.68 -22 16 C-20.38405168 13.95880212 -18.7143618 11.95927063 -17 10 C-16.34 10 -15.68 10 -15 10 C-14.67 10.66 -14.34 11.32 -14 12 C-13.34 12 -12.68 12 -12 12 C-12 12.99 -12 13.98 -12 15 C-10.79371992 12.66785852 -9.8345262 10.50357861 -9 8 C-4.545 7.505 -4.545 7.505 0 7 C0 4.69 0 2.38 0 0 Z " fill="#7F36CB" transform="translate(88,56)"/>
<path d="M0 0 C21.78 0 43.56 0 66 0 C66 0.33 66 0.66 66 1 C62.37 1 58.74 1 55 1 C55 1.66 55 2.32 55 3 C53.9275 2.979375 52.855 2.95875 51.75 2.9375 C48.2851029 2.82942737 48.2851029 2.82942737 46.1875 3.53125 C43.12597778 4.18729048 40.3601234 3.84241111 37.25 3.5625 C36.07953125 3.46066406 34.9090625 3.35882813 33.703125 3.25390625 C32.81109375 3.17011719 31.9190625 3.08632812 31 3 C31 3.66 31 4.32 31 5 C29.68 5 28.36 5 27 5 C26.67 4.34 26.34 3.68 26 3 C23.64400765 2.53248212 23.64400765 2.53248212 20.9375 2.375 C20.01839844 2.30023438 19.09929687 2.22546875 18.15234375 2.1484375 C17.44207031 2.09945312 16.73179688 2.05046875 16 2 C16.020625 2.94875 16.04125 3.8975 16.0625 4.875 C16 8 16 8 15 10 C15.66 10.33 16.32 10.66 17 11 C17 11.66 17 12.32 17 13 C17.66 13 18.32 13 19 13 C19.33 12.34 19.66 11.68 20 11 C20 12.32 20 13.64 20 15 C20.99 15 21.98 15 23 15 C24.03590199 20.05002222 24.10251672 24.87416389 24 30 C24.99 29.67 25.98 29.34 27 29 C27.33 30.65 27.66 32.3 28 34 C24.26562152 34.87867729 20.83225427 35.08912219 17 35 C17.99 34.505 17.99 34.505 19 34 C18.93939265 31.95753238 18.8504468 29.91589629 18.75 27.875 C18.70359375 26.73804688 18.6571875 25.60109375 18.609375 24.4296875 C17.31534101 17.14659879 11.85756108 12.62377092 6.75 7.6875 C5.47184138 6.44357777 4.19567882 5.19760002 2.921875 3.94921875 C2.08027832 3.13457153 2.08027832 3.13457153 1.22167969 2.3034668 C0 1 0 1 0 0 Z " fill="#8C51D3" transform="translate(97,125)"/>
<path d="M0 0 C3 3.75 3 3.75 3 6 C3.66 6 4.32 6 5 6 C15.65189924 26.299726 16.85735848 52.56129382 10.33349609 74.21191406 C9.60587175 76.5065416 8.84549502 78.78619698 8.0625 81.0625 C7.82192871 81.7649585 7.58135742 82.46741699 7.33349609 83.19116211 C5.73602072 87.60144499 3.81263948 91.23611293 1 95 C0.67 95 0.34 95 0 95 C-0.77286303 91.22155854 -1.00494406 88.68479487 0 85 C-0.061875 83.824375 -0.12375 82.64875 -0.1875 81.4375 C0 78 0 78 2 76.0625 C2.66 75.711875 3.32 75.36125 4 75 C4 76.65 4 78.3 4 80 C4.66 80 5.32 80 6 80 C6.33 76.7 6.66 73.4 7 70 C6.34 69.67 5.68 69.34 5 69 C5.33 68.01 5.66 67.02 6 66 C6.66 66 7.32 66 8 66 C8.33 62.7 8.66 59.4 9 56 C10.485 55.505 10.485 55.505 12 55 C11.93994146 52.08115472 11.85291384 49.16738361 11.75 46.25 C11.73582031 45.425 11.72164062 44.6 11.70703125 43.75 C11.52476033 38.70938601 11.52476033 38.70938601 9.015625 34.421875 C7.2749215 32.90392759 7.2749215 32.90392759 6 33 C6 29.04 6 25.08 6 21 C5.67 21.33 5.34 21.66 5 22 C4.01 22 3.02 22 2 22 C1.80377759 17.78121808 2.19769832 14.82989106 4 11 C2.68 11 1.36 11 0 11 C-1.10844919 7.67465243 -0.84454356 5.37817425 0 2 C-0.99 1.67 -1.98 1.34 -3 1 C-2.01 0.67 -1.02 0.34 0 0 Z " fill="#5202A4" transform="translate(192,63)"/>
<path d="M0 0 C0.33 0.66 0.66 1.32 1 2 C0.67 2.66 0.34 3.32 0 4 C-0.66 4 -1.32 4 -2 4 C-2.25523437 4.73476562 -2.51046875 5.46953125 -2.7734375 6.2265625 C-7.20400086 16.24471532 -18.91725622 25.17936842 -28 31 C-28.66 31 -29.32 31 -30 31 C-31.23408207 28.53183586 -31.20197579 26.75338799 -31.25 24 C-31.27578125 23.113125 -31.3015625 22.22625 -31.328125 21.3125 C-31.21984375 20.549375 -31.1115625 19.78625 -31 19 C-26.0754853 15.7169902 -20.82305673 16.88469195 -15 17 C-15 11.72 -15 6.44 -15 1 C-12.03 1.66 -9.06 2.32 -6 3 C-6 2.34 -6 1.68 -6 1 C-4.02 0.67 -2.04 0.34 0 0 Z " fill="#5204A0" transform="translate(191,159)"/>
<path d="M0 0 C10.39762683 9.25478423 13.15756304 27.83720516 15 41 C16.29473075 65.05790388 16.29473075 65.05790388 11 73 C10.01 72.34 9.02 71.68 8 71 C8.144375 70.319375 8.28875 69.63875 8.4375 68.9375 C10.92482892 55.94811564 10.41498068 44.01198494 8.25 31.0625 C8.09321777 30.1036792 7.93643555 29.1448584 7.77490234 28.15698242 C6.77529328 22.64283979 5.30866872 17.8896905 2.79589844 12.87280273 C2 11 2 11 2 8 C1.34 8 0.68 8 0 8 C-0.99 5.69 -1.98 3.38 -3 1 C-2.01 0.67 -1.02 0.34 0 0 Z " fill="#8120E5" transform="translate(195,61)"/>
<path d="M0 0 C-2.5108671 1.6739114 -4.31376395 2.57587124 -7.09765625 3.55078125 C-7.89413574 3.8341333 -8.69061523 4.11748535 -9.51123047 4.40942383 C-10.35314941 4.70743896 -11.19506836 5.0054541 -12.0625 5.3125 C-29.55630723 11.68354001 -42.16798953 20.52993376 -55 34 C-56.32990723 35.33675066 -57.66212383 36.67122503 -59 38 C-59 36.68 -59 35.36 -59 34 C-58.34 34 -57.68 34 -57 34 C-56.79375 33.29875 -56.5875 32.5975 -56.375 31.875 C-54.82057694 28.62484269 -52.98005008 26.81813822 -50.33984375 24.4296875 C-48.74286991 22.9252405 -48.74286991 22.9252405 -48 20 C-45.55198312 17.72216611 -42.74775004 15.89852632 -40 14 C-39.20335938 13.43925781 -38.40671875 12.87851562 -37.5859375 12.30078125 C-28.24231616 6.01994817 -11.19210562 -4.91360735 0 0 Z " fill="#9045E4" transform="translate(94,17)"/>
<path d="M0 0 C3.89732796 -0.07494861 7.24113118 0.05715825 11 1 C13.88603298 1.09549241 16.74704904 1.14007542 19.6328125 1.1328125 C20.46585907 1.13376923 21.29890564 1.13472595 22.15719604 1.13571167 C23.91388017 1.13639092 25.67056682 1.13455443 27.42724609 1.13037109 C30.12212722 1.12500572 32.8168427 1.13033162 35.51171875 1.13671875 C37.21875037 1.13605819 38.92578188 1.13477748 40.6328125 1.1328125 C41.44114532 1.13483673 42.24947815 1.13686096 43.08230591 1.13894653 C47.17276094 1.22247191 47.17276094 1.22247191 51 0 C53.6723621 -0.13415472 56.32250488 -0.04318541 59 0 C59.495 1.485 59.495 1.485 60 3 C59.34 3 58.68 3 58 3 C58 3.66 58 4.32 58 5 C49.21260542 6.05559344 40.49114822 6.15447789 31.65600586 6.13037109 C29.30641298 6.12498605 26.95700917 6.13035992 24.60742188 6.13671875 C23.08854125 6.13605825 21.56966075 6.13477767 20.05078125 6.1328125 C19.01610466 6.13584885 19.01610466 6.13584885 17.96052551 6.13894653 C13.22052642 6.11646557 8.68375654 5.65859706 4 5 C4 4.34 4 3.68 4 3 C2.35 3 0.7 3 -1 3 C-0.67 2.01 -0.34 1.02 0 0 Z " fill="#837E88" transform="translate(81,206)"/>
<path d="M0 0 C0 3.7185142 -0.85912168 4.31804606 -3.3125 7 C-3.92738281 7.680625 -4.54226562 8.36125 -5.17578125 9.0625 C-7 11 -7 11 -8.66796875 12.4375 C-10.17713236 13.94747895 -10.17713236 13.94747895 -10.421875 16.1953125 C-11.24687862 20.19769494 -13.25412364 23.33920698 -15.25 26.875 C-20.8399399 37.10606251 -24.84749983 47.51167558 -26.4453125 59.14453125 C-27 61 -27 61 -30 63 C-30.50621513 65.02276681 -30.50621513 65.02276681 -30.51171875 67.3515625 C-30.54716797 68.20234375 -30.58261719 69.053125 -30.61914062 69.9296875 C-30.64169922 70.81914063 -30.66425781 71.70859375 -30.6875 72.625 C-30.72166016 73.5221875 -30.75582031 74.419375 -30.79101562 75.34375 C-30.87362402 77.56237538 -30.94272719 79.7805994 -31 82 C-31.33 82 -31.66 82 -32 82 C-32.32126777 70.17258636 -32.18007935 59.47206196 -29 48 C-28.80664062 47.16984375 -28.61328125 46.3396875 -28.4140625 45.484375 C-24.05520251 28.38858646 -13.0025165 11.69500087 0 0 Z " fill="#B885EA" transform="translate(45,38)"/>
<path d="M0 0 C1.98 0 3.96 0 6 0 C6.99 1.98 7.98 3.96 9 6 C11.31 6 13.62 6 16 6 C17.25 12.625 17.25 12.625 15 16 C17.97 16 20.94 16 24 16 C24 18.31 24 20.62 24 23 C24.763125 23.144375 25.52625 23.28875 26.3125 23.4375 C29 24 29 24 32 25 C32.495 27.97 32.495 27.97 33 31 C21.68889495 29.5175751 11.5066364 17.76655625 4.8203125 9.2109375 C0 2.4934739 0 2.4934739 0 0 Z M4 2 C4.33 2.99 4.66 3.98 5 5 C5 4.01 5 3.02 5 2 C4.67 2 4.34 2 4 2 Z " fill="#5205A0" transform="translate(32,160)"/>
<path d="M0 0 C1.875 0.25 1.875 0.25 4 1 C5.25 3.0625 5.25 3.0625 6 5 C6.66 5 7.32 5 8 5 C9.18711166 6.11927671 10.36578973 7.24933056 11.4921875 8.4296875 C12.59921926 9.58260659 13.73369257 10.70933763 14.8828125 11.8203125 C15.51960938 12.43648437 16.15640625 13.05265625 16.8125 13.6875 C17.41707031 14.26886719 18.02164063 14.85023438 18.64453125 15.44921875 C20 17 20 17 20 19 C20.53109375 19.20367187 21.0621875 19.40734375 21.609375 19.6171875 C25.02874104 21.59505609 27.51337921 24.30326899 30.25 27.125 C30.80429688 27.68832031 31.35859375 28.25164062 31.9296875 28.83203125 C33.29104485 30.21686028 34.64614859 31.60783204 36 33 C35.34 33.66 34.68 34.32 34 35 C26.57142857 31.85714286 26.57142857 31.85714286 23 30 C23 29.01 23 28.02 23 27 C21.9275 26.855625 20.855 26.71125 19.75 26.5625 C17.00799724 25.82277106 16.19049155 25.30028494 14.64453125 22.86328125 C13.65982668 20.59881623 12.77636254 18.34355399 12 16 C10.68 16.33 9.36 16.66 8 17 C6.71682108 13.15046324 6.93356363 10.05261865 7 6 C6.401875 5.896875 5.80375 5.79375 5.1875 5.6875 C2.68741714 4.90175967 1.62464918 4.03081147 0 2 C0 1.34 0 0.68 0 0 Z " fill="#7C2CCD" transform="translate(57,128)"/>
<path d="M0 0 C2.0625 0.4375 2.0625 0.4375 4 1 C3.34 1 2.68 1 2 1 C2 1.66 2 2.32 2 3 C2.59167969 2.89300781 3.18335938 2.78601563 3.79296875 2.67578125 C10.30477193 1.68785679 10.30477193 1.68785679 14.0625 3.375 C14.701875 3.91125 15.34125 4.4475 16 5 C16 5.33 16 5.66 16 6 C-5.45 6 -26.9 6 -49 6 C-49 5.34 -49 4.68 -49 4 C-44.61538462 1 -44.61538462 1 -42 1 C-42 1.99 -42 2.98 -42 4 C-41.01 3.67 -40.02 3.34 -39 3 C-36.4191074 3.08744008 -33.88308522 3.22868495 -31.3125 3.4375 C-30.2596582 3.51581055 -30.2596582 3.51581055 -29.18554688 3.59570312 C-27.45661946 3.72507865 -25.72824645 3.86182531 -24 4 C-24 3.34 -24 2.68 -24 2 C-23.30849854 1.97494385 -22.61699707 1.9498877 -21.90454102 1.92407227 C-18.79032134 1.80847839 -15.67643211 1.68558758 -12.5625 1.5625 C-10.92958008 1.50352539 -10.92958008 1.50352539 -9.26367188 1.44335938 C-8.22919922 1.40146484 -7.19472656 1.35957031 -6.12890625 1.31640625 C-5.17056885 1.27974854 -4.21223145 1.24309082 -3.22485352 1.20532227 C-1.02861075 1.24165576 -1.02861075 1.24165576 0 0 Z " fill="#9B3AFB" transform="translate(152,89)"/>
<path d="M0 0 C0.99 0 1.98 0 3 0 C3 0.66 3 1.32 3 2 C3.78375 1.79375 4.5675 1.5875 5.375 1.375 C17.43354771 0.12756403 29.2552156 6.50347707 39 13 C39.66 13.33 40.32 13.66 41 14 C41 14.66 41 15.32 41 16 C42.32 16.66 43.64 17.32 45 18 C45 19.32 45 20.64 45 22 C44.01 21.67 43.02 21.34 42 21 C42 20.34 42 19.68 42 19 C40.35 19.66 38.7 20.32 37 21 C37 19.68 37 18.36 37 17 C36.34 17 35.68 17 35 17 C35 15.68 35 14.36 35 13 C33.783125 13.04125 32.56625 13.0825 31.3125 13.125 C27.78105873 13.13754508 25.19996434 12.59998217 22 11 C21.67 11.99 21.34 12.98 21 14 C19.68 13.67 18.36 13.34 17 13 C17.33 11.68 17.66 10.36 18 9 C18.33 9.66 18.66 10.32 19 11 C19.66 11 20.32 11 21 11 C20.236875 10.01 19.47375 9.02 18.6875 8 C18.25824219 7.443125 17.82898438 6.88625 17.38671875 6.3125 C15.95508863 4.65629795 15.95508863 4.65629795 13 5 C11.2984375 5.495 11.2984375 5.495 9.5625 6 C6 7 6 7 2 7 C1.34 4.69 0.68 2.38 0 0 Z " fill="#5B1AA0" transform="translate(125,19)"/>
<path d="M0 0 C0.99 0.33 1.98 0.66 3 1 C2.40461426 1.59014893 1.80922852 2.18029785 1.19580078 2.78833008 C-1.01650648 4.98357307 -3.22653704 7.1810759 -5.43505859 9.38012695 C-6.85991069 10.79749 -8.28736413 12.21223639 -9.71484375 13.62695312 C-10.61074219 14.51962891 -11.50664063 15.41230469 -12.4296875 16.33203125 C-13.25710449 17.15421143 -14.08452148 17.9763916 -14.93701172 18.82348633 C-17.13614738 21.02027402 -17.13614738 21.02027402 -19 24 C-19.66 24 -20.32 24 -21 24 C-22.38328007 20.15755536 -21.60538038 16.96860469 -21 13 C-20.96296763 10.66696056 -20.95239087 8.33284758 -21 6 C-20.401875 5.855625 -19.80375 5.71125 -19.1875 5.5625 C-17.43849596 5.1127561 -15.71322977 4.57107659 -14 4 C-13.01 5.485 -13.01 5.485 -12 7 C-9.41619823 7.25030977 -9.41619823 7.25030977 -7 7 C-6.34 5.68 -5.68 4.36 -5 3 C-4.34 3 -3.68 3 -3 3 C-1.37485532 1.54166642 -1.37485532 1.54166642 0 0 Z " fill="#7630C3" transform="translate(69,80)"/>
<path d="M0 0 C14.893671 6.92271804 25.18508841 19.61439351 34 33 C33.505 33.99 33.505 33.99 33 35 C29.84027493 34.70822359 29.00144457 34.00164228 26.859375 31.56640625 C26.16328125 30.57511719 25.4671875 29.58382812 24.75 28.5625 C24.04359375 27.57378906 23.3371875 26.58507812 22.609375 25.56640625 C21 23 21 23 21 21 C20.4225 20.773125 19.845 20.54625 19.25 20.3125 C17 19 17 19 15.3125 16.75 C12.53716317 13.44959945 9.4832028 11.56634494 5.828125 9.33203125 C5.22484375 8.89246094 4.6215625 8.45289063 4 8 C4 7.34 4 6.68 4 6 C3.34 6 2.68 6 2 6 C2 5.01 2 4.02 2 3 C1.34 2.67 0.68 2.34 0 2 C0 1.34 0 0.68 0 0 Z " fill="#A95BE9" transform="translate(162,27)"/>
<path d="M0 0 C0 0.99 0 1.98 0 3 C-1.27875 3.12375 -2.5575 3.2475 -3.875 3.375 C-7.34790936 3.69042399 -7.34790936 3.69042399 -10 6 C-12.010849 6.32989502 -12.010849 6.32989502 -14.51538086 6.44238281 C-15.45494125 6.48872864 -16.39450165 6.53507446 -17.36253357 6.58282471 C-18.38629593 6.6225238 -19.41005829 6.6622229 -20.46484375 6.703125 C-21.5267543 6.74943054 -22.58866486 6.79573608 -23.68275452 6.84344482 C-25.9447962 6.93892722 -28.20705523 7.02937011 -30.46948242 7.11523438 C-33.86540117 7.24719827 -37.25954195 7.40369266 -40.65429688 7.5625 C-53.64497175 8.11333123 -66.12262311 7.84364525 -79 6 C-79 5.67 -79 5.34 -79 5 C-77.57010742 4.970271 -77.57010742 4.970271 -76.11132812 4.93994141 C-58.83200845 4.57059184 -41.56582231 4.10701374 -24.3125 3.0625 C-23.01570313 2.98789551 -21.71890625 2.91329102 -20.3828125 2.83642578 C-13.4415982 2.38934283 -6.77191131 1.60880746 0 0 Z " fill="#E8E8E8" transform="translate(162,210)"/>
<path d="M0 0 C2.64 0.99 5.28 1.98 8 3 C6.68 4.32 5.36 5.64 4 7 C5.65 7 7.3 7 9 7 C9 7.66 9 8.32 9 9 C26.82 9 44.64 9 63 9 C63 9.66 63 10.32 63 11 C55.31364654 11.02542668 47.62730399 11.0428991 39.94091797 11.05493164 C37.32795812 11.05994971 34.71500106 11.06676562 32.10205078 11.07543945 C28.33886016 11.08761575 24.57570678 11.09325368 20.8125 11.09765625 C19.65073242 11.10281754 18.48896484 11.10797882 17.29199219 11.11329651 C8.67695778 11.11388777 0.74820048 11.11129005 -7 7 C-7.33 6.01 -7.66 5.02 -8 4 C-6.02 4 -4.04 4 -2 4 C-2 3.34 -2 2.68 -2 2 C-1.34 2 -0.68 2 0 2 C0 1.34 0 0.68 0 0 Z " fill="#B3B3B3" transform="translate(76,202)"/>
<path d="M0 0 C2.475 0.495 2.475 0.495 5 1 C5.33 1.99 5.66 2.98 6 4 C6.66 4.33 7.32 4.66 8 5 C8 4.34 8 3.68 8 3 C8.66 3.33 9.32 3.66 10 4 C9.67 4.99 9.34 5.98 9 7 C10.65 7.33 12.3 7.66 14 8 C14 8.66 14 9.32 14 10 C14.66 10 15.32 10 16 10 C16.33 9.34 16.66 8.68 17 8 C17 9.32 17 10.64 17 12 C17.99 12 18.98 12 20 12 C21.03590199 17.05002222 21.10251672 21.87416389 21 27 C21.99 26.67 22.98 26.34 24 26 C24.33 27.65 24.66 29.3 25 31 C21.26562152 31.87867729 17.83225427 32.08912219 14 32 C14.66 31.67 15.32 31.34 16 31 C15.93939265 28.95753238 15.8504468 26.91589629 15.75 24.875 C15.70359375 23.73804688 15.6571875 22.60109375 15.609375 21.4296875 C14.43285875 14.80801272 9.92416124 10.65923694 5.25 6.1875 C3.47831589 4.47667526 1.73140813 2.75230444 0 1 C0 0.67 0 0.34 0 0 Z " fill="#913EEA" transform="translate(100,128)"/>
<path d="M0 0 C-6.65794474 8.02367699 -13.4454398 15.27643224 -22.125 21.125 C-22.98544922 21.72900635 -22.98544922 21.72900635 -23.86328125 22.34521484 C-27.20840901 24.50098511 -28.90825158 25.00601928 -32.9296875 24.7421875 C-33.94289062 24.49726563 -34.95609375 24.25234375 -36 24 C-33.21412867 21.83250285 -30.37298205 20.00447924 -27.3125 18.25 C-19.52496804 13.62112776 -12.30609479 8.20319787 -6.5 1.1875 C-4.3553429 -0.51035354 -2.65005894 -0.21486964 0 0 Z " fill="#8430E5" transform="translate(188,172)"/>
<path d="M0 0 C0.495 0.99 0.495 0.99 1 2 C-5.63729312 5.52350129 -11.513226 6.7201206 -19 7 C-19 7.66 -19 8.32 -19 9 C-21.97 9 -24.94 9 -28 9 C-28 9.66 -28 10.32 -28 11 C-38.56 11 -49.12 11 -60 11 C-56.46689165 9.23344583 -55.43055897 8.75404186 -51.796875 8.69140625 C-50.98927734 8.66844482 -50.18167969 8.6454834 -49.34960938 8.62182617 C-48.06280273 8.59245972 -48.06280273 8.59245972 -46.75 8.5625 C-30.8382222 7.96970262 -15.08282628 -0.32788753 0 0 Z " fill="#9939F6" transform="translate(156,196)"/>
<path d="M0 0 C3.5840674 1.68661995 6.35441013 4.45882026 8.125 8 C9.0729681 19.3209267 9.0729681 19.3209267 5.125 24 C3.06032144 26.40879165 2.23505341 26.96331553 -0.875 28 C-3.00651727 28.08942453 -5.14078151 28.11758899 -7.27416992 28.11352539 C-8.24043053 28.11374443 -8.24043053 28.11374443 -9.22621155 28.1139679 C-11.35266502 28.11327195 -13.4790306 28.10549448 -15.60546875 28.09765625 C-17.08091687 28.09579094 -18.55636561 28.09436757 -20.03181458 28.09336853 C-23.91325595 28.08955226 -27.79465985 28.07972956 -31.67608643 28.06866455 C-35.63756808 28.05843131 -39.59905581 28.05386681 -43.56054688 28.04882812 C-51.33204833 28.0381065 -59.10351891 28.02104075 -66.875 28 C-66.875 27.67 -66.875 27.34 -66.875 27 C-66.14552155 26.99413376 -65.41604309 26.98826752 -64.66445923 26.98222351 C-57.75079042 26.924041 -50.83739128 26.85182046 -43.92403603 26.76428509 C-40.37076766 26.71977735 -36.81760878 26.68047985 -33.26416016 26.65356445 C-29.1680094 26.62230043 -25.07245305 26.56752129 -20.9765625 26.51171875 C-19.7157486 26.50532883 -18.45493469 26.4989389 -17.15591431 26.49235535 C-10.18880333 26.37747882 -3.24089982 26.14146115 3.125 23 C5.02818884 20.14521674 5.5869099 18.58058692 6.25 15.3125 C6.41757813 14.50425781 6.58515625 13.69601563 6.7578125 12.86328125 C6.87898438 12.24839844 7.00015625 11.63351563 7.125 11 C6.465 11 5.805 11 5.125 11 C5.125 9.68 5.125 8.36 5.125 7 C3.805 6.67 2.485 6.34 1.125 6 C1.785 5.67 2.445 5.34 3.125 5 C0.52402318 3.69951159 -2.01455062 3.43528578 -4.875 3 C-2.475 0 -2.475 0 0 0 Z " fill="#FEF0FF" transform="translate(166.875,97)"/>
<path d="M0 0 C1.98 0 3.96 0 6 0 C6 4.95 6 9.9 6 15 C6.66 15.33 7.32 15.66 8 16 C8.66 14.68 9.32 13.36 10 12 C12.03120707 15.04681061 12.24659875 15.60118324 12.1953125 19.01171875 C12.18564453 20.14770508 12.18564453 20.14770508 12.17578125 21.30664062 C12.15902344 22.09232422 12.14226563 22.87800781 12.125 23.6875 C12.11597656 24.48478516 12.10695313 25.28207031 12.09765625 26.10351562 C12.07411585 28.069139 12.03824547 30.03460775 12 32 C3.73574909 24.32103598 0.47126993 10.86277186 0 0 Z " fill="#50049E" transform="translate(20,128)"/>
<path d="M0 0 C1.7015625 0.2784375 1.7015625 0.2784375 3.4375 0.5625 C8.07696797 1.16007011 12.39572681 0.69277259 17 0 C16 3 16 3 12.875 4.9375 C6.20912029 8.08224107 -2.5634581 11 -10 11 C-9.67 10.01 -9.34 9.02 -9 8 C-8.34 7.67 -7.68 7.34 -7 7 C-6.67 6.01 -6.34 5.02 -6 4 C-4.35 3.67 -2.7 3.34 -1 3 C-0.67 2.01 -0.34 1.02 0 0 Z " fill="#52049D" transform="translate(138,192)"/>
<path d="M0 0 C0.91058531 3.07322544 1.08886184 5.80097361 1 9 C0.01 9 -0.98 9 -2 9 C-2 9.66 -2 10.32 -2 11 C-0.68 10.67 0.64 10.34 2 10 C2.33 11.32 2.66 12.64 3 14 C0.79142945 13.85780436 -1.41684987 13.71108153 -3.625 13.5625 C-4.85476562 13.48128906 -6.08453125 13.40007812 -7.3515625 13.31640625 C-10.61532388 13.03336056 -13.77943859 12.58961047 -17 12 C-15.56254444 7.68763331 -12.34269579 6.7998733 -8.5 4.875 C-3.95870838 2.83683427 -3.95870838 2.83683427 0 0 Z " fill="#F5EFF9" transform="translate(167,191)"/>
<path d="M0 0 C8.46033051 -0.23916129 15.01966755 1.42098832 22.6875 4.8125 C23.47753418 5.15603516 24.26756836 5.49957031 25.08154297 5.85351562 C29.24929424 7.7881217 31.03325437 8.76078321 33 13 C35.0335948 14.26804566 35.0335948 14.26804566 37 15 C35.25 15.65625 35.25 15.65625 33 16 C31.125 15.03125 31.125 15.03125 29 13.5 C21.06783789 8.40671696 11.89863363 5.91453131 3 3 C2.01 2.67 1.02 2.34 0 2 C0 1.34 0 0.68 0 0 Z " fill="#9A2DE9" transform="translate(129,16)"/>
<path d="M0 0 C0.33 0.66 0.66 1.32 1 2 C1.99 2 2.98 2 4 2 C4 1.34 4 0.68 4 0 C4.99 0 5.98 0 7 0 C7 0.66 7 1.32 7 2 C7.9075 1.9175 8.815 1.835 9.75 1.75 C13 2 13 2 15.375 3.8125 C17 6 17 6 17 9 C16.67 9.66 16.34 10.32 16 11 C14.27014758 10.88487847 12.54111249 10.75744323 10.8125 10.625 C9.36810547 10.52058594 9.36810547 10.52058594 7.89453125 10.4140625 C4.93263965 9.99036411 2.65017995 9.38886436 0 8 C-1.47368421 2.94736842 -1.47368421 2.94736842 0 0 Z " fill="#54059C" transform="translate(80,192)"/>
<path d="M0 0 C1.65 0 3.3 0 5 0 C4.67 0.99 4.34 1.98 4 3 C6.475 3.99 6.475 3.99 9 5 C8.67 5.66 8.34 6.32 8 7 C8.66 7.33 9.32 7.66 10 8 C10.33 7.01 10.66 6.02 11 5 C11.99 4.67 12.98 4.34 14 4 C13.67 6.64 13.34 9.28 13 12 C13.7425 11.95875 14.485 11.9175 15.25 11.875 C18.08758952 12.00398134 19.58773938 12.57051222 22 14 C21.67 15.32 21.34 16.64 21 18 C20.01 18 19.02 18 18 18 C17.67 18.66 17.34 19.32 17 20 C12.68918205 16.63545916 9.21958313 13.03243772 5.6796875 8.87109375 C3.65699774 6.61791143 1.44595581 4.77887695 -1 3 C-0.67 2.01 -0.34 1.02 0 0 Z " fill="#F9F3F6" transform="translate(66,132)"/>
<path d="M0 0 C0.99 0.33 1.98 0.66 3 1 C3.33 1.99 3.66 2.98 4 4 C4.33 4 4.66 4 5 4 C5.10477512 9.78591511 4.99250545 15.29309366 4 21 C3.34 21 2.68 21 2 21 C2.061875 22.299375 2.12375 23.59875 2.1875 24.9375 C2.21187142 30.05549789 0.87433898 34.28068221 -1 39 C-2.30645036 35.27250526 -1.71360489 32.34705109 -1.0625 28.5 C0.40702774 19.02262841 0.17477503 9.56407814 0 0 Z " fill="#FAFCFE" transform="translate(209,96)"/>
<path d="M0 0 C0.66 0 1.32 0 2 0 C2.33 0.66 2.66 1.32 3 2 C3.66 2 4.32 2 5 2 C5.08131463 3.43655854 5.13933559 4.8744483 5.1875 6.3125 C5.22230469 7.11300781 5.25710937 7.91351563 5.29296875 8.73828125 C5 11 5 11 3.6875 12.75 C1.27663596 14.53582522 -1.06524268 14.67391585 -4 15 C-4.33 15.99 -4.66 16.98 -5 18 C-5.66 17.67 -6.32 17.34 -7 17 C-6 14 -6 14 -3 12 C-3 10.68 -3 9.36 -3 8 C-3.66 7.34 -4.32 6.68 -5 6 C-3.38405168 3.95880212 -1.7143618 1.95927063 0 0 Z " fill="#8134CA" transform="translate(71,66)"/>
<path d="M0 0 C3.66565486 3.17955715 5.45228271 6.64616901 7.25 11.0625 C7.518125 11.68705078 7.78625 12.31160156 8.0625 12.95507812 C9.25402931 15.80319793 10 17.88211696 10 21 C9.34 21 8.68 21 8 21 C8.33 21.99 8.66 22.98 9 24 C9.03954234 26.33299825 9.04401732 28.66708189 9 31 C7.49379352 28.23133001 6.63922691 25.77985475 6.0625 22.6875 C5.43641258 19.64721951 4.65414078 16.95352257 3.375 14.125 C2 11 2 11 2 8 C1.34 8 0.68 8 0 8 C-0.99 5.69 -1.98 3.38 -3 1 C-2.01 0.67 -1.02 0.34 0 0 Z " fill="#7A18DF" transform="translate(195,61)"/>
<path d="M0 0 C8.57142857 0.71428571 8.57142857 0.71428571 12 4 C11.34 4 10.68 4 10 4 C10 4.99 10 5.98 10 7 C10.78375 7.144375 11.5675 7.28875 12.375 7.4375 C15 8 15 8 17 9 C16.67 9.99 16.34 10.98 16 12 C13.36 11.34 10.72 10.68 8 10 C8 9.34 8 8.68 8 8 C5.03 8 2.06 8 -1 8 C-0.67 5.36 -0.34 2.72 0 0 Z M8 3 C9 5 9 5 9 5 Z " fill="#8133D3" transform="translate(96,47)"/>
<path d="M0 0 C0 3.7185142 -0.85912168 4.31804606 -3.3125 7 C-3.92738281 7.680625 -4.54226562 8.36125 -5.17578125 9.0625 C-7 11 -7 11 -8.66796875 12.4375 C-10.43923797 14.51523515 -10.51792098 16.33462097 -11 19 C-12.19140625 21.45703125 -12.19140625 21.45703125 -13.5625 23.8125 C-14.01753906 24.60269531 -14.47257812 25.39289062 -14.94140625 26.20703125 C-15.29074219 26.79871094 -15.64007813 27.39039062 -16 28 C-16.66 28 -17.32 28 -18 28 C-18.99 29.98 -19.98 31.96 -21 34 C-21.66 34 -22.32 34 -23 34 C-21.01130322 21.1864651 -9.28126028 8.4754917 0 0 Z " fill="#AC74E6" transform="translate(45,38)"/>
<path d="M0 0 C-0.33 0.99 -0.66 1.98 -1 3 C-6.49245937 4.83081979 -11.24091942 5.20568145 -17 5 C-17 4.34 -17 3.68 -17 3 C-16.34 3 -15.68 3 -15 3 C-15.99 1.68 -16.98 0.36 -18 -1 C-11.10952386 -3.2642463 -6.62578284 -2.9134648 0 0 Z " fill="#BBBCB6" transform="translate(156,206)"/>
<path d="M0 0 C-0.99 1.98 -1.98 3.96 -3 6 C-3.33 5.01 -3.66 4.02 -4 3 C-4.598125 3.495 -5.19625 3.99 -5.8125 4.5 C-8 6 -8 6 -11 6 C-11 6.66 -11 7.32 -11 8 C-0.11 8 10.78 8 22 8 C22 8.33 22 8.66 22 9 C9.13 9 -3.74 9 -17 9 C-8.9893617 -0.34574468 -8.9893617 -0.34574468 0 0 Z " fill="#8E42E2" transform="translate(114,87)"/>
<path d="M0 0 C2.4375 2.375 2.4375 2.375 4 5 C4 5.33 4 5.66 4 6 C5.134375 6.12375 6.26875 6.2475 7.4375 6.375 C8.613125 6.58125 9.78875 6.7875 11 7 C11.33 7.66 11.66 8.32 12 9 C11.01 9.99 10.02 10.98 9 12 C8.01 11.34 7.02 10.68 6 10 C6 11.65 6 13.3 6 15 C4.68 15.33 3.36 15.66 2 16 C1.62875 14.824375 1.2575 13.64875 0.875 12.4375 C-0.84421565 7.77817643 -3.58299611 4.5386448 -7 1 C-3.75 0.1875 -3.75 0.1875 0 0 Z " fill="#8D42DA" transform="translate(115,57)"/>
<path d="M0 0 C3.91685634 3.51512748 4.92402815 4.62014075 6 10 C1.05 11.65 -3.9 13.3 -9 15 C-9.33 13.68 -9.66 12.36 -10 11 C-11.32 10.67 -12.64 10.34 -14 10 C-10.37 10 -6.74 10 -3 10 C-2.690625 8.535625 -2.38125 7.07125 -2.0625 5.5625 C-1.125 1.125 -1.125 1.125 0 0 Z " fill="#712EB1" transform="translate(186,54)"/>
<path d="M0 0 C-0.66 0 -1.32 0 -2 0 C-2 0.66 -2 1.32 -2 2 C-1.40832031 1.89300781 -0.81664062 1.78601563 -0.20703125 1.67578125 C6.30477193 0.68785679 6.30477193 0.68785679 10.0625 2.375 C10.701875 2.91125 11.34125 3.4475 12 4 C12 4.33 12 4.66 12 5 C8.04172765 5.05785647 4.0835633 5.09354717 0.125 5.125 C-1.00292969 5.14175781 -2.13085938 5.15851563 -3.29296875 5.17578125 C-4.90751953 5.18544922 -4.90751953 5.18544922 -6.5546875 5.1953125 C-8.04718018 5.21102295 -8.04718018 5.21102295 -9.56982422 5.22705078 C-12 5 -12 5 -14 3 C-9.7368213 0.15788087 -5.03577274 -2.0143091 0 0 Z " fill="#8828E2" transform="translate(156,90)"/>
<path d="M0 0 C0.66 0.33 1.32 0.66 2 1 C0.43129262 4.85046357 -2.05176774 7.1191559 -5 10 C-5.83660156 10.83660156 -6.67320313 11.67320313 -7.53515625 12.53515625 C-11.35677083 16.35677083 -15.17838542 20.17838542 -19 24 C-19 22.68 -19 21.36 -19 20 C-18.34 20 -17.68 20 -17 20 C-16.79375 19.29875 -16.5875 18.5975 -16.375 17.875 C-14.82057694 14.62484269 -12.98005008 12.81813822 -10.33984375 10.4296875 C-8.74286991 8.9252405 -8.74286991 8.9252405 -8 6 C-6.15234375 4.39453125 -6.15234375 4.39453125 -3.9375 2.8125 C-3.20402344 2.28269531 -2.47054687 1.75289062 -1.71484375 1.20703125 C-1.14894531 0.80871094 -0.58304688 0.41039063 0 0 Z " fill="#9A58E6" transform="translate(54,31)"/>
<path d="M0 0 C-1.12027174 3.36081523 -1.93402422 3.97429735 -4.625 6.125 C-8.5857308 9.45772303 -11.59984958 13.11232323 -14.65234375 17.27734375 C-15.09707031 17.84582031 -15.54179688 18.41429688 -16 19 C-16.33 19 -16.66 19 -17 19 C-17 16.03 -17 13.06 -17 10 C-16.01 9.67 -15.02 9.34 -14 9 C-14.33 8.34 -14.66 7.68 -15 7 C-12 6 -12 6 -10 6 C-8.31237149 4.3545622 -6.6459651 2.68711423 -5 1 C-3 0 -3 0 0 0 Z " fill="#F8EEF9" transform="translate(49,34)"/>
<path d="M0 0 C0.66 0 1.32 0 2 0 C1.91930249 4.27161792 1.80644255 8.54178934 1.6875 12.8125 C1.66494141 14.02744141 1.64238281 15.24238281 1.61914062 16.49414062 C1.5659668 18.23920898 1.5659668 18.23920898 1.51171875 20.01953125 C1.48553467 21.09307861 1.45935059 22.16662598 1.43237305 23.27270508 C0.95754526 26.26779328 0.36552932 27.1852342 -2 29 C-2.0578304 24.54172074 -2.09353855 20.0835372 -2.125 15.625 C-2.14175781 14.35398437 -2.15851562 13.08296875 -2.17578125 11.7734375 C-2.18222656 10.56171875 -2.18867188 9.35 -2.1953125 8.1015625 C-2.21102295 6.42054443 -2.21102295 6.42054443 -2.22705078 4.70556641 C-2 2 -2 2 0 0 Z " fill="#A354F4" transform="translate(16,99)"/>
<path d="M0 0 C-3.22340429 2.1489362 -6.24279217 3.34749944 -9.875 4.6875 C-11.08929688 5.14511719 -12.30359375 5.60273438 -13.5546875 6.07421875 C-16.96507018 6.9906141 -18.6822819 7.04072906 -22 6 C-21.34 5.67 -20.68 5.34 -20 5 C-20 4.34 -20 3.68 -20 3 C-18.41800369 2.35089846 -16.83434276 1.70585306 -15.25 1.0625 C-14.36828125 0.70285156 -13.4865625 0.34320312 -12.578125 -0.02734375 C-7.4551633 -1.96009748 -5.23416955 -2.02229278 0 0 Z " fill="#8838E2" transform="translate(94,17)"/>
<path d="M0 0 C0.66 0 1.32 0 2 0 C2.05793591 4.43744539 2.09357467 8.87479389 2.125 13.3125 C2.14175781 14.57513672 2.15851563 15.83777344 2.17578125 17.13867188 C2.18222656 18.34716797 2.18867188 19.55566406 2.1953125 20.80078125 C2.20578613 21.91622314 2.21625977 23.03166504 2.22705078 24.1809082 C2 27 2 27 0 30 C-0.99 29.34 -1.98 28.68 -3 28 C-2.86722656 27.319375 -2.73445312 26.63875 -2.59765625 25.9375 C-1.02441995 17.30192558 -0.42195975 8.7501128 0 0 Z " fill="#8014EA" transform="translate(206,104)"/>
<path d="M0 0 C4.29516959 3.08214656 6.94554698 6.40902288 9.8125 10.75 C10.21919922 11.35199219 10.62589844 11.95398438 11.04492188 12.57421875 C12.0369617 14.04477191 13.01947888 15.52174159 14 17 C13.67 17.66 13.34 18.32 13 19 C11.296875 18.890625 11.296875 18.890625 9 18 C7.24230206 15.93965209 5.74957242 13.98226253 4.25 11.75 C3.83878906 11.17636719 3.42757812 10.60273437 3.00390625 10.01171875 C0.64085507 6.56527533 -0.53661419 4.19821691 0 0 Z " fill="#B271E6" transform="translate(182,43)"/>
<path d="M0 0 C-7.61730026 5.07820017 -15.99517365 6.31227737 -24.953125 6.265625 C-26.18709015 6.26849518 -26.18709015 6.26849518 -27.44598389 6.27142334 C-29.17037261 6.27277497 -30.89477187 6.26915059 -32.61914062 6.26074219 C-35.25674128 6.24997247 -37.89366945 6.2607003 -40.53125 6.2734375 C-42.21354316 6.2721168 -43.89583591 6.26955626 -45.578125 6.265625 C-46.36358704 6.26967346 -47.14904907 6.27372192 -47.95831299 6.27789307 C-52.10034348 6.24234939 -54.19980992 5.90009504 -58 4 C-38.2 4.495 -38.2 4.495 -18 5 C-18 4.34 -18 3.68 -18 3 C-15.03 3 -12.06 3 -9 3 C-9 2.34 -9 1.68 -9 1 C-5.8035914 -0.06546953 -3.34252724 -0.07427838 0 0 Z " fill="#944FDC" transform="translate(146,202)"/>
<path d="M0 0 C1.7074998 1.28062485 3.37373596 2.61767557 5 4 C5 4.66 5 5.32 5 6 C5.53625 6.226875 6.0725 6.45375 6.625 6.6875 C9.78500863 8.43382056 12.2676983 10.6402849 15 13 C14.01 13.33 13.02 13.66 12 14 C9.3125 12.5625 9.3125 12.5625 7 11 C7 11.66 7 12.32 7 13 C5.68 13.33 4.36 13.66 3 14 C2.4465236 11.92446352 2 10.15634036 2 8 C1.34 7.34 0.68 6.68 0 6 C-0.125 2.875 -0.125 2.875 0 0 Z " fill="#F7EAFA" transform="translate(38,176)"/>
<path d="M0 0 C3.5840674 1.68661995 6.35441013 4.45882026 8.125 8 C8.53337661 12.87695917 8.77385631 17.44274485 6.875 22 C5.11003976 24.01709742 3.36447608 25.53275705 1.125 27 C1.125 26.01 1.125 25.02 1.125 24 C1.74375 23.46375 2.3625 22.9275 3 22.375 C6.03193889 18.98636241 6.41052182 15.39968142 7.125 11 C6.465 11 5.805 11 5.125 11 C5.125 9.68 5.125 8.36 5.125 7 C3.805 6.67 2.485 6.34 1.125 6 C1.785 5.67 2.445 5.34 3.125 5 C0.52402318 3.69951159 -2.01455062 3.43528578 -4.875 3 C-2.475 0 -2.475 0 0 0 Z " fill="#F7E6FB" transform="translate(166.875,97)"/>
<path d="M0 0 C0.66 0 1.32 0 2 0 C3.32 2.31 4.64 4.62 6 7 C5.01 7.33 4.02 7.66 3 8 C3 7.34 3 6.68 3 6 C1.68 6.33 0.36 6.66 -1 7 C-0.67 8.65 -0.34 10.3 0 12 C-1.98 12.99 -1.98 12.99 -4 14 C-4.98248524 9.9472484 -5.08159574 6.16138263 -5 2 C-4.360625 1.855625 -3.72125 1.71125 -3.0625 1.5625 C-1.02454854 1.18992819 -1.02454854 1.18992819 0 0 Z " fill="#7326BF" transform="translate(53,84)"/>
<path d="M0 0 C4.22173047 2.59060733 7.02540115 5.06585313 10 9 C11.64783606 10.68528688 13.31002677 12.35697047 15 14 C14.34 14.66 13.68 15.32 13 16 C10.875 15.625 10.875 15.625 9 15 C8.01 16.485 8.01 16.485 7 18 C4.11720315 15.11720315 4.40625685 11.87093791 4 8 C3.73500396 5.66691552 3.73500396 5.66691552 3 4 C2.01 3.67 1.02 3.34 0 3 C0 2.01 0 1.02 0 0 Z " fill="#7629AF" transform="translate(171,38)"/>
<path d="M0 0 C0.763125 0.474375 1.52625 0.94875 2.3125 1.4375 C6.89111612 3.7764557 11.9528922 3.73956205 17 4 C17.33 3.34 17.66 2.68 18 2 C18 2.66 18 3.32 18 4 C18.99 3.34 19.98 2.68 21 2 C21.99 2 22.98 2 24 2 C24 3.32 24 4.64 24 6 C17.565 6.495 17.565 6.495 11 7 C11 6.34 11 5.68 11 5 C9.948125 5.185625 8.89625 5.37125 7.8125 5.5625 C4.42880118 5.95079331 2.23574112 5.88247485 -1 5 C-0.67 3.35 -0.34 1.7 0 0 Z " fill="#7621D2" transform="translate(88,162)"/>
<path d="M0 0 C0.6875 2.3125 0.6875 2.3125 1 5 C-0.3125 6.8125 -0.3125 6.8125 -2 8 C-2.66 8 -3.32 8 -4 8 C-4 8.99 -4 9.98 -4 11 C-4.99 11 -5.98 11 -7 11 C-7 11.99 -7 12.98 -7 14 C-7.99 14.33 -8.98 14.66 -10 15 C-9.67 13.68 -9.34 12.36 -9 11 C-9.66 11 -10.32 11 -11 11 C-9.60249952 7.84164893 -7.94801766 5.67727175 -5.5 3.25 C-4.8915625 2.63640625 -4.283125 2.0228125 -3.65625 1.390625 C-2 0 -2 0 0 0 Z " fill="#500696" transform="translate(51,40)"/>
<path d="M0 0 C0.5669458 0.08040527 1.1338916 0.16081055 1.71801758 0.24365234 C14.79084378 2.08771134 27.86077894 3.71035359 41 5 C41 5.33 41 5.66 41 6 C28.25790896 6.40379866 15.67464105 5.17467711 3 4 C3 3.34 3 2.68 3 2 C2.01 1.67 1.02 1.34 0 1 C0 0.67 0 0.34 0 0 Z " fill="#F0F0F1" transform="translate(61,212)"/>
<path d="M0 0 C0.33 2.97 0.66 5.94 1 9 C1.99 8.67 2.98 8.34 4 8 C4.33 9.65 4.66 11.3 5 13 C1.26562152 13.87867729 -2.16774573 14.08912219 -6 14 C-5.34 13.67 -4.68 13.34 -4 13 C-4.020625 11.948125 -4.04125 10.89625 -4.0625 9.8125 C-4.01078731 6.65802577 -3.88636037 4.01362527 -3 1 C-1 0 -1 0 0 0 Z " fill="#802BD6" transform="translate(120,146)"/>
<path d="M0 0 C0 1.65 0 3.3 0 5 C-0.66 5 -1.32 5 -2 5 C-1.67 5.99 -1.34 6.98 -1 8 C-2.62339805 9.70884005 -4.29319053 11.37446717 -6 13 C-6.66 13 -7.32 13 -8 13 C-8 12.34 -8 11.68 -8 11 C-8.66 11 -9.32 11 -10 11 C-10 11.99 -10 12.98 -10 14 C-11.98 14.33 -13.96 14.66 -16 15 C-15.28328125 14.28457031 -14.5665625 13.56914062 -13.828125 12.83203125 C-11.99819039 11.00274189 -10.17690338 9.16594499 -8.359375 7.32421875 C-7.49828125 6.45410156 -6.6371875 5.58398438 -5.75 4.6875 C-4.87859375 3.80449219 -4.0071875 2.92148438 -3.109375 2.01171875 C-1 0 -1 0 0 0 Z " fill="#FDF8FD" transform="translate(186,175)"/>
<path d="M0 0 C0.33 0.66 0.66 1.32 1 2 C1.66 2 2.32 2 3 2 C3.47661072 6.09885218 3.3448928 7.55930365 0.75 10.875 C-2 13 -2 13 -6 13 C-8.09350689 9.5980513 -8.17942163 6.94727588 -8 3 C-7.01 2.67 -6.02 2.34 -5 2 C-5.33 3.65 -5.66 5.3 -6 7 C-4.35 7.99 -2.7 8.98 -1 10 C-1.01160156 9.36191406 -1.02320313 8.72382812 -1.03515625 8.06640625 C-1.04417969 7.24011719 -1.05320313 6.41382812 -1.0625 5.5625 C-1.07410156 4.73878906 -1.08570313 3.91507812 -1.09765625 3.06640625 C-1 1 -1 1 0 0 Z " fill="#FAFBEB" transform="translate(170,109)"/>
<path d="M0 0 C11.52164009 -0.55353075 11.52164009 -0.55353075 17 3 C17 3.66 17 4.32 17 5 C18.32 5.66 19.64 6.32 21 7 C21 8.32 21 9.64 21 11 C20.01 10.67 19.02 10.34 18 10 C18 9.34 18 8.68 18 8 C16.35 8.66 14.7 9.32 13 10 C13 8.68 13 7.36 13 6 C12.34 6 11.68 6 11 6 C11 4.68 11 3.36 11 2 C8.02148438 2.09765625 8.02148438 2.09765625 5.04296875 2.1953125 C3 2 3 2 0 0 Z " fill="#6320A4" transform="translate(149,30)"/>
<path d="M0 0 C0.99 0 1.98 0 3 0 C3 0.66 3 1.32 3 2 C3.78375 1.79375 4.5675 1.5875 5.375 1.375 C11.56367381 0.73479236 17.53477879 2.01553588 23 5 C22.67 5.66 22.34 6.32 22 7 C19.03 6.01 16.06 5.02 13 4 C13 4.33 13 4.66 13 5 C9.12315913 6.19287411 6.08378077 7 2 7 C1.34 4.69 0.68 2.38 0 0 Z " fill="#5C11A4" transform="translate(125,19)"/>
<path d="M0 0 C-3.67598275 4.010163 -7.00137877 6.75923876 -12 9 C-15.9375 8.75 -15.9375 8.75 -19 8 C-7.40067058 -0.94880392 -7.40067058 -0.94880392 0 0 Z " fill="#8E33E2" transform="translate(171,188)"/>
<path d="M0 0 C-0.66 0 -1.32 0 -2 0 C-2 0.66 -2 1.32 -2 2 C-3.98 2 -5.96 2 -8 2 C-5.51971577 5.72042635 -4.2601841 5.89550783 0 7 C2.66577125 7.42192063 5.31319158 7.7220543 8 8 C8 8.33 8 8.66 8 9 C-5.8487395 9.40336134 -5.8487395 9.40336134 -10 7 C-11.375 3.875 -11.375 3.875 -12 1 C-10.66961551 0.6550855 -9.33542939 0.32483418 -8 0 C-7.154375 -0.20625 -6.30875 -0.4125 -5.4375 -0.625 C-3 -1 -3 -1 0 0 Z " fill="#CCCBCC" transform="translate(76,204)"/>
<path d="M0 0 C0 0.99 0 1.98 0 3 C-10.42447425 4.37681735 -20.66569445 5.15023796 -31.1875 5.0625 C-32.75854492 5.05573242 -32.75854492 5.05573242 -34.36132812 5.04882812 C-36.90761536 5.03720124 -39.4537746 5.02086281 -42 5 C-42 4.67 -42 4.34 -42 4 C-41.08299316 3.9498877 -40.16598633 3.89977539 -39.22119141 3.84814453 C-35.77290575 3.65625886 -32.32511162 3.45790948 -28.87744141 3.25537109 C-27.39386206 3.16950166 -25.91013717 3.08610562 -24.42626953 3.00537109 C-16.15945727 2.55384595 -8.0686804 2.00303823 0 0 Z " fill="#DDDDDD" transform="translate(162,210)"/>
<path d="M0 0 C0 0.66 0 1.32 0 2 C0.91523438 2.04898438 1.83046875 2.09796875 2.7734375 2.1484375 C3.96195313 2.22320312 5.15046875 2.29796875 6.375 2.375 C8.15003906 2.47941406 8.15003906 2.47941406 9.9609375 2.5859375 C13 3 13 3 15 5 C15 5.99 15 6.98 15 8 C13.35 8.66 11.7 9.32 10 10 C10 8.68 10 7.36 10 6 C9.31292969 5.86722656 8.62585938 5.73445312 7.91796875 5.59765625 C7.01691406 5.42105469 6.11585938 5.24445313 5.1875 5.0625 C4.29417969 4.88847656 3.40085938 4.71445313 2.48046875 4.53515625 C0 4 0 4 -3 3 C-4.33106622 2.65772583 -5.66400079 2.32248257 -7 2 C-2.25 0 -2.25 0 0 0 Z " fill="#D1D5DA" transform="translate(150,201)"/>
<path d="M0 0 C1.65 0 3.3 0 5 0 C5 0.33 5 0.66 5 1 C7.64 1.66 10.28 2.32 13 3 C9.20836973 5.52775351 6.19125969 5.22443035 1.8125 5.125 C1.06291016 5.11597656 0.31332031 5.10695312 -0.45898438 5.09765625 C-2.30612654 5.07412578 -4.15310412 5.03825561 -6 5 C-5.67 3.68 -5.34 2.36 -5 1 C-2.525 1.99 -2.525 1.99 0 3 C0 2.01 0 1.02 0 0 Z " fill="#610CB5" transform="translate(110,200)"/>
<path d="M0 0 C0.66 0.99 1.32 1.98 2 3 C1.38125 4.0725 0.7625 5.145 0.125 6.25 C-0.9999631 8.21177776 -2.07411524 10.15259021 -3.0625 12.1875 C-4.83558432 15.61546303 -7.21839995 18.3508571 -10 21 C-10.99 20.67 -11.98 20.34 -13 20 C-12.47212891 19.34257812 -12.47212891 19.34257812 -11.93359375 18.671875 C-7.35068292 12.78468929 -3.65768986 6.49294058 0 0 Z " fill="#F9E8FD" transform="translate(199,154)"/>
<path d="M0 0 C2.64 0.99 5.28 1.98 8 3 C6 3.66666667 4 4.33333333 2 5 C1.01 5.495 1.01 5.495 0 6 C0 6.66 0 7.32 0 8 C2.31 8.33 4.62 8.66 7 9 C7 9.33 7 9.66 7 10 C1.36202751 10.34518199 -2.11239987 9.63930407 -7 7 C-7.33 6.01 -7.66 5.02 -8 4 C-6.02 4 -4.04 4 -2 4 C-2 3.34 -2 2.68 -2 2 C-1.34 2 -0.68 2 0 2 C0 1.34 0 0.68 0 0 Z " fill="#B8B2C2" transform="translate(76,202)"/>
<path d="M0 0 C1.875 0.25 1.875 0.25 4 1 C5.25 3.0625 5.25 3.0625 6 5 C6.66 5 7.32 5 8 5 C9.18711166 6.11927671 10.36578973 7.24933056 11.4921875 8.4296875 C12.59921926 9.58260659 13.73369257 10.70933763 14.8828125 11.8203125 C15.51960938 12.43648437 16.15640625 13.05265625 16.8125 13.6875 C17.41707031 14.26886719 18.02164063 14.85023438 18.64453125 15.44921875 C20 17 20 17 20 19 C20.66 19.33 21.32 19.66 22 20 C20.35 20 18.7 20 17 20 C17 18.68 17 17.36 17 16 C16.01 15.67 15.02 15.34 14 15 C14 14.34 14 13.68 14 13 C13.01 13 12.02 13 11 13 C7 8.65714286 7 8.65714286 7 6 C6.401875 5.896875 5.80375 5.79375 5.1875 5.6875 C2.68741714 4.90175967 1.62464918 4.03081147 0 2 C0 1.34 0 0.68 0 0 Z " fill="#7E3FC4" transform="translate(57,128)"/>
<path d="M0 0 C1.06669922 0.00322266 2.13339844 0.00644531 3.23242188 0.00976562 C4.88661133 0.02233398 4.88661133 0.02233398 6.57421875 0.03515625 C7.69634766 0.03966797 8.81847656 0.04417969 9.97460938 0.04882812 C12.73703385 0.06058312 15.49934873 0.07701548 18.26171875 0.09765625 C18.26171875 0.75765625 18.26171875 1.41765625 18.26171875 2.09765625 C17.18921875 2.07703125 16.11671875 2.05640625 15.01171875 2.03515625 C11.54682165 1.92708362 11.54682165 1.92708362 9.44921875 2.62890625 C6.38769653 3.28494673 3.62184215 2.94006736 0.51171875 2.66015625 C-0.65875 2.55832031 -1.82921875 2.45648438 -3.03515625 2.3515625 C-4.37320313 2.22587891 -4.37320313 2.22587891 -5.73828125 2.09765625 C-5.73828125 2.75765625 -5.73828125 3.41765625 -5.73828125 4.09765625 C-7.05828125 4.09765625 -8.37828125 4.09765625 -9.73828125 4.09765625 C-10.06828125 3.10765625 -10.39828125 2.11765625 -10.73828125 1.09765625 C-7.09180065 0.25660845 -3.73877218 -0.01999343 0 0 Z " fill="#9039E9" transform="translate(133.73828125,125.90234375)"/>
<path d="M0 0 C1.28571429 8.57142857 1.28571429 8.57142857 0 12 C-0.66 12 -1.32 12 -2 12 C-2 14.31 -2 16.62 -2 19 C-2.66 19.33 -3.32 19.66 -4 20 C-4.77286303 16.22155854 -5.00494406 13.68479487 -4 10 C-4.04125 8.824375 -4.0825 7.64875 -4.125 6.4375 C-4 3 -4 3 -2.5625 1.0625 C-1 0 -1 0 0 0 Z " fill="#51029C" transform="translate(196,138)"/>
<path d="M0 0 C6.55086543 0.75586909 10.17894578 5.13955947 14.1484375 9.984375 C14.51195313 10.44328125 14.87546875 10.9021875 15.25 11.375 C14.59 12.035 13.93 12.695 13.25 13.375 C13.0025 12.4159375 13.0025 12.4159375 12.75 11.4375 C11.468214 9.21380759 11.468214 9.21380759 9.3359375 8.88671875 C7.31424845 8.6474022 5.28158061 8.50606972 3.25 8.375 C3.25 6.375 3.25 6.375 5.25 4.375 C1.95 3.715 -1.35 3.055 -4.75 2.375 C-2.75 0.375 -2.75 0.375 0 0 Z " fill="#F3E8FA" transform="translate(100.75,55.625)"/>
<path d="M0 0 C2.7084017 -0.02714434 5.41652721 -0.04690846 8.125 -0.0625 C8.88554688 -0.07087891 9.64609375 -0.07925781 10.4296875 -0.08789062 C14.74851269 -0.10650625 18.73980924 0.19808174 23 1 C24.99965715 1.03703069 27.00056665 1.04760556 29 1 C28.67 1.99 28.34 2.98 28 4 C18.43 3.34 8.86 2.68 -1 2 C-0.67 1.34 -0.34 0.68 0 0 Z " fill="#FCEBFE" transform="translate(105,11)"/>
<path d="M0 0 C-0.33 0.66 -0.66 1.32 -1 2 C-3.70599842 2.47597366 -6.33595404 2.84093629 -9.0625 3.125 C-9.82111328 3.21136719 -10.57972656 3.29773438 -11.36132812 3.38671875 C-13.23996986 3.59939517 -15.11988636 3.80075459 -17 4 C-17.33 3.01 -17.66 2.02 -18 1 C-17.01 1 -16.02 1 -15 1 C-15 0.34 -15 -0.32 -15 -1 C-13.9275 -0.979375 -12.855 -0.95875 -11.75 -0.9375 C-8.22191619 -0.83459411 -8.22191619 -0.83459411 -5.8125 -1.625 C-3.32641484 -2.13936245 -2.11521237 -1.28423608 0 0 Z " fill="#E7E6E8" transform="translate(73,201)"/>
<path d="M0 0 C5.61 0 11.22 0 17 0 C16.67 1.32 16.34 2.64 16 4 C10.72 3.67 5.44 3.34 0 3 C0 2.01 0 1.02 0 0 Z " fill="#9236F2" transform="translate(128,91)"/>
<path d="M0 0 C-6.75802878 3.49342797 -12.43158925 5.77133018 -20 4 C-18.269618 1.667746 -16.83235024 0.2153184 -13.9765625 -0.5234375 C-9.12230278 -1.13643275 -4.79381487 -0.91796455 0 0 Z " fill="#9D4CF3" transform="translate(128,83)"/>
<path d="M0 0 C4.52615993 3.67832017 8.39424999 7.41086363 12 12 C9.03 11.505 9.03 11.505 6 11 C5.67 10.01 5.34 9.02 5 8 C3.68 8.33 2.36 8.66 1 9 C1.33 7.02 1.66 5.04 2 3 C0.02 3.99 0.02 3.99 -2 5 C-1.34 3.35 -0.68 1.7 0 0 Z " fill="#F2E5F7" transform="translate(99,128)"/>
<path d="M0 0 C0.33 0 0.66 0 1 0 C1.08809201 3.81235104 1.1407549 7.62443553 1.1875 11.4375 C1.21263672 12.50677734 1.23777344 13.57605469 1.26367188 14.67773438 C1.32502682 21.36542326 0.6266193 26.82581597 -2 33 C-3.12838176 29.0841013 -2.74929598 26.17009585 -2.125 22.125 C-1.0393936 14.76020968 -0.43529557 7.4343902 0 0 Z " fill="#F1D8FE" transform="translate(210,102)"/>
<path d="M0 0 C2.08163365 3.12245047 3.32575613 6.07034881 4.6875 9.5625 C5.14511719 10.71878906 5.60273438 11.87507812 6.07421875 13.06640625 C7 16 7 16 6 18 C5.566875 17.505 5.13375 17.01 4.6875 16.5 C3.00259517 14.66781808 3.00259517 14.66781808 0 15 C0 10.05 0 5.1 0 0 Z " fill="#F5E8FA" transform="translate(16,136)"/>
<path d="M0 0 C0.66 0 1.32 0 2 0 C2.77403558 4.06368679 3.0984702 7.86425173 3 12 C1.35 12 -0.3 12 -2 12 C-2.17835515 7.45194365 -1.99785435 4.1205746 0 0 Z " fill="#550E9D" transform="translate(21,84)"/>
<path d="M0 0 C0.99 0.33 1.98 0.66 3 1 C-1.62 5.62 -6.24 10.24 -11 15 C-11 12.66666667 -11 10.33333333 -11 8 C-10.195625 7.731875 -9.39125 7.46375 -8.5625 7.1875 C-7.716875 6.795625 -6.87125 6.40375 -6 6 C-5.67 5.01 -5.34 4.02 -5 3 C-4.34 3 -3.68 3 -3 3 C-1.37485532 1.54166642 -1.37485532 1.54166642 0 0 Z " fill="#783DBE" transform="translate(69,80)"/>
<path d="M0 0 C1.65 0 3.3 0 5 0 C5 0.99 5 1.98 5 3 C6.32 2.34 7.64 1.68 9 1 C9 1.66 9 2.32 9 3 C9.99 3.33 10.98 3.66 12 4 C11.67 4.66 11.34 5.32 11 6 C11.66 6 12.32 6 13 6 C13 7.65 13 9.3 13 11 C8.30840284 7.61227103 3.9700218 4.21814817 0 0 Z " fill="#F9F2F9" transform="translate(167,29)"/>
<path d="M0 0 C3.89346049 0.43765906 7.78489076 0.8391429 11.6875 1.1875 C13.08355469 1.31318359 13.08355469 1.31318359 14.5078125 1.44140625 C15.52488281 1.53228516 15.52488281 1.53228516 16.5625 1.625 C16.5625 1.955 16.5625 2.285 16.5625 2.625 C6.0025 2.625 -4.5575 2.625 -15.4375 2.625 C-15.4375 2.295 -15.4375 1.965 -15.4375 1.625 C-14.49777344 1.53412109 -14.49777344 1.53412109 -13.5390625 1.44140625 C-12.31316406 1.31572266 -12.31316406 1.31572266 -11.0625 1.1875 C-10.25039062 1.10628906 -9.43828125 1.02507813 -8.6015625 0.94140625 C-1.19505558 -0.14149458 -1.19505558 -0.14149458 0 0 Z " fill="#9420F6" transform="translate(111.4375,13.375)"/>
<path d="M0 0 C2.475 0.495 2.475 0.495 5 1 C5.33 1.99 5.66 2.98 6 4 C6.66 4.33 7.32 4.66 8 5 C8 4.34 8 3.68 8 3 C8.66 3.33 9.32 3.66 10 4 C9.67 4.99 9.34 5.98 9 7 C10.32 7.66 11.64 8.32 13 9 C13 9.66 13 10.32 13 11 C13.99 11.33 14.98 11.66 16 12 C16 13.98 16 15.96 16 18 C15.46890625 17.30390625 14.9378125 16.6078125 14.390625 15.890625 C11.69175418 12.62728447 8.77705279 9.70463526 5.75 6.75 C3.80863532 4.85378334 1.8953767 2.94305913 0 1 C0 0.67 0 0.34 0 0 Z " fill="#8641D6" transform="translate(100,128)"/>
<path d="M0 0 C4.70270446 2.12741392 8.16393369 4.62060825 12 8 C11.67 8.99 11.34 9.98 11 11 C8.03824877 10.38722388 6.61941217 9.74627478 4 8 C4 7.34 4 6.68 4 6 C3.34 6 2.68 6 2 6 C2 5.01 2 4.02 2 3 C1.34 2.67 0.68 2.34 0 2 C0 1.34 0 0.68 0 0 Z " fill="#A44EE2" transform="translate(162,27)"/>
<path d="M0 0 C0.99 0.33 1.98 0.66 3 1 C3.6875 3.0625 3.6875 3.0625 4 5 C5.32 5.33 6.64 5.66 8 6 C7.67 6.66 7.34 7.32 7 8 C4.67843403 8.40729228 2.3431213 8.74438677 0 9 C0 7.68 0 6.36 0 5 C-0.66 5 -1.32 5 -2 5 C-1.125 1.125 -1.125 1.125 0 0 Z " fill="#731CD0" transform="translate(56,128)"/>
<path d="M0 0 C0.99 0.33 1.98 0.66 3 1 C3.80078125 2.99609375 3.80078125 2.99609375 4.3125 5.4375 C4.49425781 6.24058594 4.67601562 7.04367188 4.86328125 7.87109375 C4.90839844 8.57363281 4.95351563 9.27617188 5 10 C4.34 10.66 3.68 11.32 3 12 C1.02 9.36 -0.96 6.72 -3 4 C-2.01 2.68 -1.02 1.36 0 0 Z " fill="#F9F0FB" transform="translate(52,113)"/>
<path d="M0 0 C0 1.32 0 2.64 0 4 C3.3 4 6.6 4 10 4 C10 4.66 10 5.32 10 6 C7.79142945 5.85780436 5.58315013 5.71108153 3.375 5.5625 C2.14523438 5.48128906 0.91546875 5.40007812 -0.3515625 5.31640625 C-3.61532388 5.03336056 -6.77943859 4.58961047 -10 4 C-4.7826087 0 -4.7826087 0 0 0 Z " fill="#E2E6E1" transform="translate(160,199)"/>
<path d="M0 0 C-0.33 0.99 -0.66 1.98 -1 3 C-2.81181405 3.19401633 -4.62448532 3.38004375 -6.4375 3.5625 C-7.95150391 3.71912109 -7.95150391 3.71912109 -9.49609375 3.87890625 C-10.73552734 3.93884766 -10.73552734 3.93884766 -12 4 C-12.33 3.67 -12.66 3.34 -13 3 C-14.51469448 2.76807135 -16.03754562 2.58784762 -17.5625 2.4375 C-18.38878906 2.35371094 -19.21507812 2.26992187 -20.06640625 2.18359375 C-20.70449219 2.12300781 -21.34257812 2.06242187 -22 2 C-22 1.67 -22 1.34 -22 1 C-20.87980469 0.93941406 -19.75960937 0.87882812 -18.60546875 0.81640625 C-17.13280016 0.73198576 -15.66014456 0.64733851 -14.1875 0.5625 C-13.44951172 0.52318359 -12.71152344 0.48386719 -11.95117188 0.44335938 C-0.66210938 -0.22070312 -0.66210938 -0.22070312 0 0 Z " fill="#7A24CD" transform="translate(174,125)"/>
<path d="M0 0 C0.33 0 0.66 0 1 0 C1.20625 0.804375 1.4125 1.60875 1.625 2.4375 C3.16492571 6.42730752 5.27916908 9.3691191 7.85546875 12.75390625 C9.30148072 15.59164305 8.90792802 17.01380901 8 20 C6.54284197 17.81426296 5.2774627 15.73327639 4.0546875 13.42578125 C3.70019531 12.75869141 3.34570312 12.09160156 2.98046875 11.40429688 C2.61566406 10.71400391 2.25085938 10.02371094 1.875 9.3125 C1.50246094 8.61060547 1.12992188 7.90871094 0.74609375 7.18554688 C-0.17068113 5.45777883 -1.08552886 3.72898847 -2 2 C-1.34 2 -0.68 2 0 2 C0 1.34 0 0.68 0 0 Z " fill="#F6E5F7" transform="translate(195,54)"/>
<path d="M0 0 C1.22589844 0.15275391 1.22589844 0.15275391 2.4765625 0.30859375 C3.41628906 0.43427734 3.41628906 0.43427734 4.375 0.5625 C4.045 1.8825 3.715 3.2025 3.375 4.5625 C-1.08 5.0575 -1.08 5.0575 -5.625 5.5625 C-4.965 5.2325 -4.305 4.9025 -3.625 4.5625 C-4.615 3.2425 -5.605 1.9225 -6.625 0.5625 C-4.10446405 -0.69776798 -2.7707902 -0.35624445 0 0 Z " fill="#A9A3AA" transform="translate(144.625,204.4375)"/>
<path d="M0 0 C0.75410156 0.09990234 1.50820312 0.19980469 2.28515625 0.30273438 C4.14917753 0.55048404 6.01219288 0.80578057 7.875 1.0625 C4.43826187 3.16272886 1.73883187 3.30390313 -2.25 3.25 C-3.30445312 3.24355469 -4.35890625 3.23710937 -5.4453125 3.23046875 C-8.125 3.0625 -8.125 3.0625 -10.125 2.0625 C-10.125 1.4025 -10.125 0.7425 -10.125 0.0625 C-6.87932383 -1.56033808 -3.48660376 -0.48475234 0 0 Z " fill="#9B41F1" transform="translate(96.125,202.9375)"/>
<path d="M0 0 C0.66 0.33 1.32 0.66 2 1 C0.48446596 4.47775179 -1.5773456 6.9557984 -4.125 9.75 C-5.21167969 10.94882812 -5.21167969 10.94882812 -6.3203125 12.171875 C-6.87460937 12.77515625 -7.42890625 13.3784375 -8 14 C-8.66 13.67 -9.32 13.34 -10 13 C-9.67 12.01 -9.34 11.02 -9 10 C-8.34 10 -7.68 10 -7 10 C-6.773125 9.278125 -6.54625 8.55625 -6.3125 7.8125 C-4.75168987 4.46790687 -2.6968713 2.48396041 0 0 Z " fill="#A65CF7" transform="translate(44,41)"/>
<path d="M0 0 C1.98 0 3.96 0 6 0 C6 0.99 6 1.98 6 3 C6.99 3.33 7.98 3.66 9 4 C8.34 5.32 7.68 6.64 7 8 C6.01 8 5.02 8 4 8 C4 7.34 4 6.68 4 6 C3.01 5.67 2.02 5.34 1 5 C0.67 3.35 0.34 1.7 0 0 Z " fill="#963CF8" transform="translate(104,127)"/>
<path d="M0 0 C2.475 0.495 2.475 0.495 5 1 C5 1.66 5 2.32 5 3 C6.98 3 8.96 3 11 3 C11.33 3.99 11.66 4.98 12 6 C14.00016466 7.20882096 14.00016466 7.20882096 16 8 C14.35546875 8.70703125 14.35546875 8.70703125 12 9 C9.23828125 7.63671875 9.23828125 7.63671875 6.3125 5.6875 C5.33925781 5.05199219 4.36601562 4.41648437 3.36328125 3.76171875 C1 2 1 2 0 0 Z " fill="#A634EF" transform="translate(150,23)"/>
<path d="M0 0 C0.66 0.33 1.32 0.66 2 1 C2 1.66 2 2.32 2 3 C1.443125 3.20625 0.88625 3.4125 0.3125 3.625 C-1.97109326 4.98281221 -2.9991561 6.07942786 -4.625 8.125 C-5.40875 9.07375 -6.1925 10.0225 -7 11 C-7.66 11 -8.32 11 -9 11 C-9.33 11.99 -9.66 12.98 -10 14 C-12.0625 15.6875 -12.0625 15.6875 -14 17 C-14.66 16.67 -15.32 16.34 -16 16 C-10.72 10.72 -5.44 5.44 0 0 Z " fill="#F7E3FD" transform="translate(94,58)"/>
<path d="M0 0 C2.64 0 5.28 0 8 0 C8 2 8 2 6.3203125 3.69140625 C5.59585938 4.30886719 4.87140625 4.92632812 4.125 5.5625 C3.40570313 6.18253906 2.68640625 6.80257812 1.9453125 7.44140625 C0 9 0 9 -2 10 C-2 9.01 -2 8.02 -2 7 C-1.34 7 -0.68 7 0 7 C0 4.69 0 2.38 0 0 Z " fill="#733CB6" transform="translate(88,56)"/>
<path d="M0 0 C1.32 0.66 2.64 1.32 4 2 C3.67 2.66 3.34 3.32 3 4 C3.66 4.66 4.32 5.32 5 6 C0.71 6.66 -3.58 7.32 -8 8 C-7.67 7.34 -7.34 6.68 -7 6 C-4.4375 5.375 -4.4375 5.375 -2 5 C-3.32 3.68 -4.64 2.36 -6 1 C-3.03 1.495 -3.03 1.495 0 2 C0 1.34 0 0.68 0 0 Z " fill="#F4FBF5" transform="translate(94,8)"/>
<path d="M0 0 C2.64 0 5.28 0 8 0 C8 0.66 8 1.32 8 2 C9.98 2 11.96 2 14 2 C13.01 3.485 13.01 3.485 12 5 C10.56206608 4.68950274 9.1246682 4.3765224 7.6875 4.0625 C6.88699219 3.88847656 6.08648437 3.71445313 5.26171875 3.53515625 C3 3 3 3 0 2 C0 1.34 0 0.68 0 0 Z " fill="#5002AA" transform="translate(83,196)"/>
<path d="M0 0 C5.76044212 0.60636233 10.72014369 2.75658279 16 5 C16 5.99 16 6.98 16 8 C14.58208592 7.54554036 13.16571954 7.08625056 11.75 6.625 C10.96109375 6.36976563 10.1721875 6.11453125 9.359375 5.8515625 C7.13372042 5.04826333 5.09068328 4.10288338 3 3 C3 2.34 3 1.68 3 1 C2.01 0.67 1.02 0.34 0 0 Z " fill="#A144F8" transform="translate(64,194)"/>
<path d="M0 0 C2.13586678 3.20380017 2.23132175 4.01939967 2.125 7.6875 C2.10695312 8.49574219 2.08890625 9.30398437 2.0703125 10.13671875 C2.03550781 11.05904297 2.03550781 11.05904297 2 12 C1.01 12.33 0.02 12.66 -1 13 C-1.66 12.67 -2.32 12.34 -3 12 C-2.68950274 10.56206608 -2.3765224 9.1246682 -2.0625 7.6875 C-1.88847656 6.88699219 -1.71445313 6.08648437 -1.53515625 5.26171875 C-1 3 -1 3 0 0 Z " fill="#F2E9F9" transform="translate(206,136)"/>
<path d="M0 0 C6.15234375 0.5859375 6.15234375 0.5859375 8 1 C8.33 1.66 8.66 2.32 9 3 C8.01 4.485 8.01 4.485 7 6 C3.375 6.1875 3.375 6.1875 0 6 C0 4.02 0 2.04 0 0 Z " fill="#772AC5" transform="translate(96,47)"/>
<path d="M0 0 C1.32 0.66 2.64 1.32 4 2 C4 2.66 4 3.32 4 4 C-8.66970387 5.51708428 -8.66970387 5.51708428 -14 3 C-14 2.67 -14 2.34 -14 2 C-9.38 2 -4.76 2 0 2 C0 1.34 0 0.68 0 0 Z " fill="#FAFAF1" transform="translate(132,8)"/>
<path d="M0 0 C3.29714793 0.32971479 4.6226839 0.6226839 7 3 C7 3.99 7 4.98 7 6 C9.475 6.99 9.475 6.99 12 8 C11.01 8.495 11.01 8.495 10 9 C7.1796875 7.56640625 7.1796875 7.56640625 3.875 5.5625 C2.77929688 4.90378906 1.68359375 4.24507812 0.5546875 3.56640625 C-0.28835937 3.04949219 -1.13140625 2.53257812 -2 2 C-1.34 1.34 -0.68 0.68 0 0 Z " fill="#954DE0" transform="translate(60,191)"/>
<path d="M0 0 C0 0.33 0 0.66 0 1 C-3.96 1 -7.92 1 -12 1 C-12.33 0.01 -12.66 -0.98 -13 -2 C-7.69990734 -3.32502317 -4.74286737 -2.5408218 0 0 Z " fill="#8321DF" transform="translate(168,94)"/>
<path d="M0 0 C3.63 0 7.26 0 11 0 C11 0.66 11 1.32 11 2 C10.01 2.66 9.02 3.32 8 4 C8.33 4.99 8.66 5.98 9 7 C7.68 6.34 6.36 5.68 5 5 C5 4.34 5 3.68 5 3 C3.35 2.67 1.7 2.34 0 2 C0 1.34 0 0.68 0 0 Z " fill="#4F0598" transform="translate(163,176)"/>
<path d="M0 0 C2.31 0.33 4.62 0.66 7 1 C7.33 2.98 7.66 4.96 8 7 C4.84859577 6.65930765 3.39218439 6.41923159 1.1875 4.0625 C0 2 0 2 0 0 Z " fill="#500698" transform="translate(57,184)"/>
<path d="M0 0 C4.54805635 -0.17835515 7.8794254 0.00214565 12 2 C10 4 10 4 7.125 4.375 C3.37431801 3.92491816 2.33511483 2.87398748 0 0 Z " fill="#5006A2" transform="translate(66,192)"/>
<path d="M0 0 C0.66 0 1.32 0 2 0 C2 4.95 2 9.9 2 15 C1.01 15.33 0.02 15.66 -1 16 C-0.67 10.72 -0.34 5.44 0 0 Z " fill="#FEF9F0" transform="translate(214,96)"/>
<path d="M0 0 C1.39211215 4.17633644 -0.0464421 5.78960515 -1.9375 9.6875 C-2.50339844 10.86699219 -3.06929687 12.04648438 -3.65234375 13.26171875 C-4.09707031 14.16535156 -4.54179687 15.06898437 -5 16 C-5.33 16 -5.66 16 -6 16 C-5.88637738 14.5199159 -5.75877092 13.04089926 -5.625 11.5625 C-5.55539063 10.73878906 -5.48578125 9.91507813 -5.4140625 9.06640625 C-5.27742188 8.38449219 -5.14078125 7.70257813 -5 7 C-4.34 6.67 -3.68 6.34 -3 6 C-1.95191959 4.02477154 -0.9479589 2.02518491 0 0 Z " fill="#BA71F8" transform="translate(27,65)"/>
<path d="M0 0 C0.99 0.33 1.98 0.66 3 1 C3 1.66 3 2.32 3 3 C3.928125 3.12375 3.928125 3.12375 4.875 3.25 C7 4 7 4 8.25 6.0625 C8.4975 6.701875 8.745 7.34125 9 8 C7.68 8.33 6.36 8.66 5 9 C4.16094435 7.87926138 3.32892169 6.75325453 2.5 5.625 C2.0359375 4.99851562 1.571875 4.37203125 1.09375 3.7265625 C0 2 0 2 0 0 Z " fill="#BA6FF6" transform="translate(187,53)"/>
<path d="M0 0 C2.31 0 4.62 0 7 0 C7 1.32 7 2.64 7 4 C8.65 4 10.3 4 12 4 C12 4.33 12 4.66 12 5 C9.36 5 6.72 5 4 5 C4 4.34 4 3.68 4 3 C2.35 3 0.7 3 -1 3 C-0.67 2.01 -0.34 1.02 0 0 Z " fill="#989998" transform="translate(81,206)"/>
<path d="M0 0 C3.33727786 1.17255709 5.77437487 2.18868404 8 5 C8 5.66 8 6.32 8 7 C6.02 7 4.04 7 2 7 C0.5393715 4.35261084 0 3.10551666 0 0 Z " fill="#7B22D9" transform="translate(80,153)"/>
<path d="M0 0 C0.99 0 1.98 0 3 0 C4.28317892 3.84953676 4.06643637 6.94738135 4 11 C2 9.4375 2 9.4375 0 7 C-0.25 3.25 -0.25 3.25 0 0 Z " fill="#490697" transform="translate(200,89)"/>
<path d="M0 0 C0.66 0 1.32 0 2 0 C2.36923077 4.55384615 2.36923077 4.55384615 0.5 6.8125 C0.005 7.204375 -0.49 7.59625 -1 8 C-2.32 7.34 -3.64 6.68 -5 6 C-3.38405168 3.95880212 -1.7143618 1.95927063 0 0 Z " fill="#7C29D4" transform="translate(71,66)"/>
<path d="M0 0 C2.92879371 0.62759865 5.36095629 1.58622659 8 3 C8 3.66 8 4.32 8 5 C6.39125 4.7215625 6.39125 4.7215625 4.75 4.4375 C1.50041391 4.05838162 -0.00468544 4.11249939 -3 5 C-3.66 4.67 -4.32 4.34 -5 4 C-4.67 3.34 -4.34 2.68 -4 2 C-2.68 2 -1.36 2 0 2 C0 1.34 0 0.68 0 0 Z " fill="#FBFAF0" transform="translate(45,187)"/>
<path d="M0 0 C0.75 1.6875 0.75 1.6875 1 4 C-1.0603334 7.4613601 -2.49254958 8.7950681 -6.25 10.3125 C-7.61125 10.6528125 -7.61125 10.6528125 -9 11 C-7.90299157 7.7089747 -7.12380142 7.03976712 -4.5 4.9375 C-1.81893599 2.82278233 -1.81893599 2.82278233 0 0 Z " fill="#6E2DB3" transform="translate(115,155)"/>
<path d="M0 0 C0.33 0.99 0.66 1.98 1 3 C0.01 3.495 0.01 3.495 -1 4 C-0.2265625 5.1446875 -0.2265625 5.1446875 0.5625 6.3125 C1.036875 7.199375 1.51125 8.08625 2 9 C1.67 9.99 1.34 10.98 1 12 C0.4225 11.113125 -0.155 10.22625 -0.75 9.3125 C-2.68068476 6.40957756 -4.78280064 3.69231351 -7 1 C-3.535 0.505 -3.535 0.505 0 0 Z " fill="#8A4CC7" transform="translate(115,57)"/>
<path d="M0 0 C-3.44450737 2.29633824 -5.93812283 2.54016485 -10 3 C-10 1.68 -10 0.36 -10 -1 C-6.18510326 -2.46726798 -3.70988378 -1.43336419 0 0 Z " fill="#9533F6" transform="translate(94,17)"/>
<path d="M0 0 C0.33 0.66 0.66 1.32 1 2 C-5.625 5.125 -5.625 5.125 -9 4 C-8.67 3.01 -8.34 2.02 -8 1 C-5.29120665 -0.35439668 -2.99066732 -0.06501451 0 0 Z " fill="#943DEF" transform="translate(156,196)"/>
<path d="M0 0 C0.66 0 1.32 0 2 0 C3.32 2.31 4.64 4.62 6 7 C5.01 7.33 4.02 7.66 3 8 C3 7.34 3 6.68 3 6 C1.68 5.67 0.36 5.34 -1 5 C-0.67 3.35 -0.34 1.7 0 0 Z " fill="#7827D3" transform="translate(53,84)"/>
<path d="M0 0 C0.75 1.6875 0.75 1.6875 1 4 C-1.65454672 8.14109288 -5.19224939 10.97110747 -9 14 C-9.66 13.67 -10.32 13.34 -11 13 C-10.37351562 12.39671875 -9.74703125 11.7934375 -9.1015625 11.171875 C-8.28429687 10.37265625 -7.46703125 9.5734375 -6.625 8.75 C-5.40683594 7.56664063 -5.40683594 7.56664063 -4.1640625 6.359375 C-2.24416857 4.26620545 -1.08366315 2.59602821 0 0 Z " fill="#935CD1" transform="translate(116,74)"/>
<path d="M0 0 C1.1577506 3.47325181 1.06866652 6.36067448 1 10 C0.34 10 -0.32 10 -1 10 C-1 10.66 -1 11.32 -1 12 C-1.66 12 -2.32 12 -3 12 C-3.33 12.66 -3.66 13.32 -4 14 C-3.53328373 8.58609132 -2.75702189 4.79482068 0 0 Z " fill="#B080E4" transform="translate(21,72)"/>
<path d="M0 0 C1.65 1.65 3.3 3.3 5 5 C3.515 7.475 3.515 7.475 2 10 C1.01 9.67 0.02 9.34 -1 9 C-0.814375 8.4225 -0.62875 7.845 -0.4375 7.25 C0.04182379 4.78490621 -0.34273163 3.38259782 -1 1 C-0.67 0.67 -0.34 0.34 0 0 Z " fill="#6F28BF" transform="translate(49,117)"/>
<path d="M0 0 C-0.66 1.32 -1.32 2.64 -2 4 C-6.455 3.01 -6.455 3.01 -11 2 C-10.67 1.34 -10.34 0.68 -10 0 C-6.18015204 -0.77811718 -3.73159669 -1.24386556 0 0 Z " fill="#8E39E0" transform="translate(139,81)"/>
<path d="M0 0 C1.18695553 3.56086658 1.35095418 6.97331024 1.5625 10.6875 C1.60568359 11.38939453 1.64886719 12.09128906 1.69335938 12.81445312 C1.7991736 14.54275206 1.90006581 16.2713511 2 18 C0.15209462 14.68983906 -0.74541487 11.42826509 -1.625 7.75 C-2.01558594 6.13351563 -2.01558594 6.13351563 -2.4140625 4.484375 C-2.60742188 3.66453125 -2.80078125 2.8446875 -3 2 C-2.01 2 -1.02 2 0 2 C0 1.34 0 0.68 0 0 Z " fill="#F5DEFE" transform="translate(206,72)"/>
<path d="M0 0 C1.32 0.33 2.64 0.66 4 1 C4 1.66 4 2.32 4 3 C5.32 3.66 6.64 4.32 8 5 C8 6.32 8 7.64 8 9 C7.01 8.67 6.02 8.34 5 8 C5 7.34 5 6.68 5 6 C4.175 5.525625 3.35 5.05125 2.5 4.5625 C1.675 4.046875 0.85 3.53125 0 3 C0 2.01 0 1.02 0 0 Z " fill="#6E1DAB" transform="translate(162,32)"/>
<path d="M0 0 C1.36125 0.37125 1.36125 0.37125 2.75 0.75 C2.09 2.07 1.43 3.39 0.75 4.75 C-1.89 4.42 -4.53 4.09 -7.25 3.75 C-4.05 -0.31153846 -4.05 -0.31153846 0 0 Z " fill="#510B9D" transform="translate(82.25,25.25)"/>
<path d="M0 0 C1.98 0 3.96 0 6 0 C5.67 1.32 5.34 2.64 5 4 C6.65 4 8.3 4 10 4 C10 4.33 10 4.66 10 5 C7.03 5 4.06 5 1 5 C1 4.34 1 3.68 1 3 C0.34 2.67 -0.32 2.34 -1 2 C-0.67 1.34 -0.34 0.68 0 0 Z " fill="#A9A8A1" transform="translate(75,205)"/>
<path d="M0 0 C1.98 0 3.96 0 6 0 C5.67 0.99 5.34 1.98 5 3 C6.32 2.67 7.64 2.34 9 2 C9 2.99 9 3.98 9 5 C6.03 4.67 3.06 4.34 0 4 C0 2.68 0 1.36 0 0 Z " fill="#F2EDEB" transform="translate(160,199)"/>
<path d="M0 0 C0.66 0 1.32 0 2 0 C2.75 1.625 2.75 1.625 3 4 C1.0625 7.25 1.0625 7.25 -1 10 C-3 8 -3 8 -4 6 C-3.34 6 -2.68 6 -2 6 C-1.34 4.02 -0.68 2.04 0 0 Z " fill="#7E26E5" transform="translate(193,157)"/>
<path d="M0 0 C0.66 0.33 1.32 0.66 2 1 C-3.62256097 5.58682606 -5.88832156 6.11470449 -13 6 C-10.81214317 3.81214317 -9.98872018 3.61031035 -7.0625 3 C-4.01038668 2.36105291 -2.71347624 1.80898416 0 0 Z " fill="#F4DDFD" transform="translate(110,159)"/>
<path d="M0 0 C0.66 0.99 1.32 1.98 2 3 C0.15083921 7.06815373 -1.66442368 10.0094833 -5 13 C-5.66 12.67 -6.32 12.34 -7 12 C-4.69 8.04 -2.38 4.08 0 0 Z " fill="#EDD3FB" transform="translate(199,154)"/>
<path d="M0 0 C0.66 0.99 1.32 1.98 2 3 C1.835 3.598125 1.67 4.19625 1.5 4.8125 C0.78502554 7.94051327 1.86712747 10.06785933 3 13 C0.02753198 10.45217026 -1.41535288 7.54659117 -3 4 C-3 3.34 -3 2.68 -3 2 C-2.01 2 -1.02 2 0 2 C0 1.34 0 0.68 0 0 Z " fill="#8F47E2" transform="translate(24,146)"/>
<path d="M0 0 C0.33 0 0.66 0 1 0 C2.28571429 8.57142857 2.28571429 8.57142857 1 12 C0.34 12 -0.32 12 -1 12 C-1.33 12.66 -1.66 13.32 -2 14 C-1.85970581 11.8537974 -1.71261836 9.70803782 -1.5625 7.5625 C-1.48128906 6.36753906 -1.40007812 5.17257813 -1.31640625 3.94140625 C-1 1 -1 1 0 0 Z " fill="#4F0891" transform="translate(195,138)"/>
<path d="M0 0 C0.66 0 1.32 0 2 0 C1.67 3.96 1.34 7.92 1 12 C-2.13176139 7.82431815 -2.53551172 6.92670782 -2 2 C-1.34 1.34 -0.68 0.68 0 0 Z " fill="#AD62F9" transform="translate(16,99)"/>
<path d="M0 0 C0 4.13781054 -1.71509607 5.20919996 -4.5 8.1875 C-5.3353125 9.08855469 -6.170625 9.98960938 -7.03125 10.91796875 C-7.6809375 11.60503906 -8.330625 12.29210937 -9 13 C-9.66 12.34 -10.32 11.68 -11 11 C-7.37 7.37 -3.74 3.74 0 0 Z " fill="#F8E4FC" transform="translate(77,75)"/>
<path d="M0 0 C0 0.99 0 1.98 0 3 C-0.66 3 -1.32 3 -2 3 C-2.33 3.99 -2.66 4.98 -3 6 C-3.66 6 -4.32 6 -5 6 C-5.33 6.99 -5.66 7.98 -6 9 C-6.66 8.67 -7.32 8.34 -8 8 C-6.48291727 4.46014029 -4.24676932 0 0 0 Z " fill="#FBFAEF" transform="translate(82,74)"/>
<path d="M0 0 C0 0.66 0 1.32 0 2 C1.98 2 3.96 2 6 2 C6.33 2.99 6.66 3.98 7 5 C3.53058454 4.54177532 0.32604951 4.10868317 -3 3 C-4.33106622 2.65772583 -5.66400079 2.32248257 -7 2 C-2.25 0 -2.25 0 0 0 Z " fill="#D2C3DC" transform="translate(150,201)"/>
<path d="M0 0 C-2.25 2.5 -2.25 2.5 -5 5 C-6.32 5 -7.64 5 -9 5 C-8.625 3.0625 -8.625 3.0625 -8 1 C-5.29120665 -0.35439668 -2.99066732 -0.06501451 0 0 Z " fill="#933BE9" transform="translate(171,188)"/>
<path d="M0 0 C0.66 0.99 1.32 1.98 2 3 C0 6 0 6 -2.3828125 6.51171875 C-3.28773438 6.56972656 -4.19265625 6.62773438 -5.125 6.6875 C-6.03507813 6.75324219 -6.94515625 6.81898437 -7.8828125 6.88671875 C-8.93082031 6.94279297 -8.93082031 6.94279297 -10 7 C-8.17725047 5.78483364 -6.3280819 4.60668208 -4.4375 3.5 C-1.93582181 2.0902355 -1.93582181 2.0902355 0 0 Z " fill="#6723B1" transform="translate(173,119)"/>
<path d="M0 0 C0.99 0 1.98 0 3 0 C3 0.99 3 1.98 3 3 C3.61488281 3.04898438 4.22976562 3.09796875 4.86328125 3.1484375 C5.67152344 3.22320312 6.47976562 3.29796875 7.3125 3.375 C8.51326172 3.47941406 8.51326172 3.47941406 9.73828125 3.5859375 C12 4 12 4 15 6 C9.36202751 6.34518199 5.88760013 5.63930407 1 3 C0.67 2.01 0.34 1.02 0 0 Z " fill="#BEC0BF" transform="translate(68,206)"/>
<path d="M0 0 C-0.33 1.32 -0.66 2.64 -1 4 C-3.31 4 -5.62 4 -8 4 C-8 3.01 -8 2.02 -8 1 C-5.29120665 -0.35439668 -2.99066732 -0.06501451 0 0 Z " fill="#8D31EA" transform="translate(145,91)"/>
<path d="M0 0 C0.66 0 1.32 0 2 0 C1.34 3.96 0.68 7.92 0 12 C-1.9814066 9.0278901 -2.7434556 7.50610679 -3 4 C-1.6875 1.6875 -1.6875 1.6875 0 0 Z " fill="#FBEFFE" transform="translate(14,88)"/>
<path d="M0 0 C1.54571278 2.31856917 2.79618552 4.50638429 4 7 C3.34 7 2.68 7 2 7 C1.67 7.66 1.34 8.32 1 9 C-0.65 6.69 -2.3 4.38 -4 2 C-3.01 2 -2.02 2 -1 2 C-0.67 1.34 -0.34 0.68 0 0 Z " fill="#F8EDF9" transform="translate(191,46)"/>
<path d="M0 0 C1.67542976 0.28604898 3.34385343 0.61781233 5 1 C3.35830472 3.02054804 1.69088222 5.02043058 0 7 C-0.33 7 -0.66 7 -1 7 C-1.04254356 5.00045254 -1.04080783 2.99958364 -1 1 C-0.67 0.67 -0.34 0.34 0 0 Z " fill="#7225C7" transform="translate(65,64)"/>
<path d="M0 0 C3.78520613 0.54074373 5.59177555 2.07572746 8 5 C8 5.99 8 6.98 8 8 C7.01 8 6.02 8 5 8 C5 7.34 5 6.68 5 6 C4.34 6 3.68 6 3 6 C3 4.68 3 3.36 3 2 C2.01 2 1.02 2 0 2 C0 1.34 0 0.68 0 0 Z " fill="#FEFCEE" transform="translate(21,48)"/>
<path d="M0 0 C-1.33332095 3.99996286 -3.4957827 4.83782337 -7 7 C-7.66 6.67 -8.32 6.34 -9 6 C-9 5.34 -9 4.68 -9 4 C-3.70588235 0 -3.70588235 0 0 0 Z " fill="#9B47F9" transform="translate(62,29)"/>
<path d="M0 0 C-3.00617269 3.00617269 -5.82381598 2.59585316 -10 3 C-10 2.34 -10 1.68 -10 1 C-6.42181037 -1.33958553 -4.07775191 -0.9267618 0 0 Z " fill="#847B8C" transform="translate(138,207)"/>
<path d="M0 0 C1.65 0 3.3 0 5 0 C4.67 0.66 4.34 1.32 4 2 C3.34 2 2.68 2 2 2 C2 2.66 2 3.32 2 4 C-0.64 4 -3.28 4 -6 4 C-5.67 3.01 -5.34 2.02 -5 1 C-2.525 1.99 -2.525 1.99 0 3 C0 2.01 0 1.02 0 0 Z " fill="#4E03A0" transform="translate(110,200)"/>
<path d="M0 0 C0.66 0.99 1.32 1.98 2 3 C2.66 2.34 3.32 1.68 4 1 C3.46930939 4.82097239 2.50298434 7.06171403 0 10 C-1.60339848 6.88228073 -2.18974141 5.60988311 -1.125 2.1875 C-0.75375 1.465625 -0.3825 0.74375 0 0 Z " fill="#7D23DE" transform="translate(199,144)"/>
<path d="M0 0 C0 1.98 0 3.96 0 6 C-0.66 6 -1.32 6 -2 6 C-2.66 7.32 -3.32 8.64 -4 10 C-4.36814024 3.49618902 -4.36814024 3.49618902 -2.5625 1.0625 C-1 0 -1 0 0 0 Z " fill="#8C1BF5" transform="translate(204,139)"/>
<path d="M0 0 C0.99 0.495 0.99 0.495 2 1 C2 1.99 2 2.98 2 4 C2.66 4.66 3.32 5.32 4 6 C3.34 7.98 2.68 9.96 2 12 C-0.13586678 8.79619983 -0.23132175 7.98060033 -0.125 4.3125 C-0.10695313 3.50425781 -0.08890625 2.69601563 -0.0703125 1.86328125 C-0.04710938 1.24839844 -0.02390625 0.63351563 0 0 Z " fill="#51059D" transform="translate(18,115)"/>
<path d="M0 0 C1.29585916 0.42492126 2.5866044 0.86545882 3.875 1.3125 C4.59429687 1.55613281 5.31359375 1.79976562 6.0546875 2.05078125 C8 3 8 3 10 6 C8.35 6 6.7 6 5 6 C4.67 5.01 4.34 4.02 4 3 C1.98491642 2.26676204 1.98491642 2.26676204 0 2 C0 1.34 0 0.68 0 0 Z " fill="#7118B6" transform="translate(148,24)"/>
<path d="M0 0 C1.21236328 0.01353516 1.21236328 0.01353516 2.44921875 0.02734375 C3.37154297 0.04474609 3.37154297 0.04474609 4.3125 0.0625 C3.6525 1.3825 2.9925 2.7025 2.3125 4.0625 C1.405 3.753125 0.4975 3.44375 -0.4375 3.125 C-2.85313338 2.3352737 -5.21530285 1.63300703 -7.6875 1.0625 C-4.80538698 0.10179566 -2.98899956 -0.04331883 0 0 Z " fill="#5E0BAA" transform="translate(95.6875,17.9375)"/>
<path d="M0 0 C0.33 0.99 0.66 1.98 1 3 C-0.45792884 3.05399736 -1.91642712 3.09279177 -3.375 3.125 C-4.18710938 3.14820313 -4.99921875 3.17140625 -5.8359375 3.1953125 C-8 3 -8 3 -10 1 C-6.78548731 -0.60725635 -3.56387464 -0.05748185 0 0 Z " fill="#7019C3" transform="translate(99,167)"/>
<path d="M0 0 C1.32 0.33 2.64 0.66 4 1 C2.515 3.475 2.515 3.475 1 6 C-0.32 5.67 -1.64 5.34 -3 5 C-2.67 3.68 -2.34 2.36 -2 1 C-1.67 1.66 -1.34 2.32 -1 3 C-0.34 3 0.32 3 1 3 C0.67 2.01 0.34 1.02 0 0 Z " fill="#621EAA" transform="translate(145,27)"/>
<path d="M0 0 C2.31 0.33 4.62 0.66 7 1 C7.33 2.32 7.66 3.64 8 5 C7.01 5.33 6.02 5.66 5 6 C3.35 4.02 1.7 2.04 0 0 Z " fill="#FAF2F2" transform="translate(84,152)"/>
<path d="M0 0 C1.61949011 2.57213134 2.04408751 3.67669159 1.625 6.75 C1.41875 7.4925 1.2125 8.235 1 9 C0.01 8.67 -0.98 8.34 -2 8 C-1.125 2.25 -1.125 2.25 0 0 Z " fill="#EEF1FD" transform="translate(202,148)"/>
<path d="M0 0 C0.99 0.33 1.98 0.66 3 1 C2.67 3.31 2.34 5.62 2 8 C1.01 8.33 0.02 8.66 -1 9 C-0.67 6.03 -0.34 3.06 0 0 Z " fill="#B56CFB" transform="translate(16,91)"/>
<path d="M0 0 C-0.33 1.32 -0.66 2.64 -1 4 C-3.02045442 3.39816251 -5.02111039 2.72693904 -7 2 C-7.33 1.34 -7.66 0.68 -8 0 C-4.71303767 -0.79953138 -3.28976808 -1.09658936 0 0 Z " fill="#F9E9FC" transform="translate(159,20)"/>
<path d="M0 0 C0 1.65 0 3.3 0 5 C-2.90600261 6.25664978 -4.79604584 7 -8 7 C-6.8572081 5.83035398 -5.71068285 4.66435444 -4.5625 3.5 C-3.92441406 2.8503125 -3.28632813 2.200625 -2.62890625 1.53125 C-1 0 -1 0 0 0 Z " fill="#EDD5FE" transform="translate(186,175)"/>
<path d="M0 0 C3 1 3 1 4.6875 4.0625 C5.120625 5.031875 5.55375 6.00125 6 7 C5.01 7.495 5.01 7.495 4 8 C4 7.34 4 6.68 4 6 C3.01 6 2.02 6 1 6 C0.67 4.02 0.34 2.04 0 0 Z " fill="#9A3FF3" transform="translate(31,162)"/>
<path d="M0 0 C3.93846154 3.32307692 3.93846154 3.32307692 4.25 6.75 C4.1675 7.4925 4.085 8.235 4 9 C1.27573689 6.64722731 0.1858237 4.37503669 -1 1 C-0.67 0.67 -0.34 0.34 0 0 Z " fill="#9A47F7" transform="translate(25,151)"/>
<path d="M0 0 C1.98 0.66 3.96 1.32 6 2 C6 2.99 6 3.98 6 5 C6.66 5 7.32 5 8 5 C7.67 5.99 7.34 6.98 7 8 C3.75700849 5.61042731 1.49097658 3.7952131 0 0 Z " fill="#F8E6F9" transform="translate(75,143)"/>
<path d="M0 0 C1.875 0.25 1.875 0.25 4 1 C5.25 3.0625 5.25 3.0625 6 5 C6.66 5 7.32 5 8 5 C8.33 5.99 8.66 6.98 9 8 C8.34 8 7.68 8 7 8 C7 7.34 7 6.68 7 6 C6.401875 5.896875 5.80375 5.79375 5.1875 5.6875 C2.68741714 4.90175967 1.62464918 4.03081147 0 2 C0 1.34 0 0.68 0 0 Z " fill="#733AB7" transform="translate(57,128)"/>
<path d="M0 0 C0.99 0.33 1.98 0.66 3 1 C4.6875 4.5625 4.6875 4.5625 6 8 C4 8 4 8 1.4375 5.625 C-1 3 -1 3 -2 1 C-1.34 0.67 -0.68 0.34 0 0 Z " fill="#F2E2F3" transform="translate(59,125)"/>
<path d="M0 0 C0.33 0 0.66 0 1 0 C0.67 4.62 0.34 9.24 0 14 C-2.21224819 10.68162771 -2.35715143 9.83937792 -2 6 C-1.39072482 3.98177598 -0.73519522 1.97583715 0 0 Z " fill="#9449E0" transform="translate(17,120)"/>
<path d="M0 0 C1.65 1.65 3.3 3.3 5 5 C4.67 5.66 4.34 6.32 4 7 C3.01 7 2.02 7 1 7 C1 6.34 1 5.68 1 5 C0.34 5 -0.32 5 -1 5 C-0.67 3.35 -0.34 1.7 0 0 Z " fill="#762FBC" transform="translate(186,54)"/>
<path d="M0 0 C0.33 1.32 0.66 2.64 1 4 C-0.65 4.66 -2.3 5.32 -4 6 C-4.66 5.34 -5.32 4.68 -6 4 C-4.02 2.68 -2.04 1.36 0 0 Z " fill="#F6DEFC" transform="translate(167,191)"/>
<path d="M0 0 C-5.5 4 -5.5 4 -10 4 C-10 3.34 -10 2.68 -10 2 C-8.71211992 1.46987262 -7.41953322 0.9511671 -6.125 0.4375 C-5.40570313 0.14746094 -4.68640625 -0.14257812 -3.9453125 -0.44140625 C-2 -1 -2 -1 0 0 Z " fill="#580DA2" transform="translate(186,67)"/>
<path d="M0 0 C1.32 0.33 2.64 0.66 4 1 C3.67 3.31 3.34 5.62 3 8 C2.01 7.34 1.02 6.68 0 6 C-0.1875 2.875 -0.1875 2.875 0 0 Z " fill="#692DAE" transform="translate(176,48)"/>
<path d="M0 0 C3.45925163 1.2491742 6.14693203 2.67527795 9 5 C7.35 5 5.7 5 4 5 C4 4.34 4 3.68 4 3 C2.68 3 1.36 3 0 3 C0 2.01 0 1.02 0 0 Z " fill="#F5D9FD" transform="translate(59,194)"/>
<path d="M0 0 C4.875 4.75 4.875 4.75 6 7 C4.68 7.33 3.36 7.66 2 8 C1.34 5.36 0.68 2.72 0 0 Z " fill="#F8E1FB" transform="translate(32,169)"/>
<path d="M0 0 C1.98362069 2.91708924 1.9876191 4.12380904 1.625 7.75 C1.41875 8.8225 1.2125 9.895 1 11 C-0.61949011 8.42786866 -1.04408751 7.32330841 -0.625 4.25 C-0.41875 3.5075 -0.2125 2.765 0 2 C-0.99 1.67 -1.98 1.34 -3 1 C-2.01 0.67 -1.02 0.34 0 0 Z " fill="#4E0296" transform="translate(192,63)"/>
<path d="M0 0 C-1.1875 1.5625 -1.1875 1.5625 -3 3 C-5.6875 2.6875 -5.6875 2.6875 -8 2 C-5.14066998 -0.85933002 -3.8625627 -1.2875209 0 0 Z " fill="#9234F6" transform="translate(80,21)"/>
<path d="M0 0 C2.31 0.33 4.62 0.66 7 1 C4.14693203 3.32472205 1.45925163 4.7508258 -2 6 C-2 5.34 -2 4.68 -2 4 C-1.34 4 -0.68 4 0 4 C0 2.68 0 1.36 0 0 Z " fill="#F3E1FD" transform="translate(64,20)"/>
<path d="M0 0 C0.99 0 1.98 0 3 0 C3 0.66 3 1.32 3 2 C-0.99560608 4.83022097 -4.42737323 3.76210446 -9 3 C-6.94017141 2.48504285 -4.88244533 1.97313036 -2.8125 1.5 C-0.99436859 1.15890376 -0.99436859 1.15890376 0 0 Z " fill="#FAFAEE" transform="translate(157,16)"/>
<path d="M0 0 C-0.33 0.99 -0.66 1.98 -1 3 C-4.3 2.67 -7.6 2.34 -11 2 C-11 1.67 -11 1.34 -11 1 C-7.26562152 0.12132271 -3.83225427 -0.08912219 0 0 Z " fill="#F6DCFC" transform="translate(134,12)"/>
<path d="M0 0 C0 0.33 0 0.66 0 1 C-4.29 1.66 -8.58 2.32 -13 3 C-12 1 -12 1 -9.3125 -0.1875 C-5.76409462 -1.05786358 -3.52047455 -0.83820823 0 0 Z " fill="#F5D7FE" transform="translate(99,13)"/>
<path d="M0 0 C0.495 0.309375 0.99 0.61875 1.5 0.9375 C4.97986781 2.41644382 8.24028509 2.62402851 12 3 C12 3.33 12 3.66 12 4 C8.37 4 4.74 4 1 4 C0.67 2.68 0.34 1.36 0 0 Z " fill="#662CA3" transform="translate(93,162)"/>
<path d="M0 0 C0.639375 0.495 1.27875 0.99 1.9375 1.5 C3.70974339 3.09802862 3.70974339 3.09802862 5 3 C5 4.65 5 6.3 5 8 C4.34 8 3.68 8 3 8 C3 7.01 3 6.02 3 5 C2.34 5 1.68 5 1 5 C0.67 3.35 0.34 1.7 0 0 Z " fill="#FBF9F0" transform="translate(203,149)"/>
<path d="M0 0 C0.66 1.32 1.32 2.64 2 4 C1.34 4 0.68 4 0 4 C0 4.99 0 5.98 0 7 C-0.99 6.67 -1.98 6.34 -3 6 C-1.125 1.125 -1.125 1.125 0 0 Z " fill="#540593" transform="translate(30,140)"/>
<path d="M0 0 C1.64826111 2.96687001 2.44271087 5.65626525 3 9 C2.34 9 1.68 9 1 9 C1 8.34 1 7.68 1 7 C0.34 7 -0.32 7 -1 7 C-0.67 4.69 -0.34 2.38 0 0 Z " fill="#8F3BF0" transform="translate(20,134)"/>
<path d="M0 0 C0.66 0 1.32 0 2 0 C2.625 2.875 2.625 2.875 3 6 C2.34 6.66 1.68 7.32 1 8 C0.34 5.69 -0.32 3.38 -1 1 C-0.67 0.67 -0.34 0.34 0 0 Z " fill="#F0E9F1" transform="translate(54,117)"/>
<path d="M0 0 C0 0.66 0 1.32 0 2 C-0.639375 2.103125 -1.27875 2.20625 -1.9375 2.3125 C-2.618125 2.539375 -3.29875 2.76625 -4 3 C-4.33 3.99 -4.66 4.98 -5 6 C-5.66 5.67 -6.32 5.34 -7 5 C-5.64703851 0.94111554 -4.27479763 0 0 0 Z " fill="#8530D8" transform="translate(71,78)"/>
<path d="M0 0 C2.64 0 5.28 0 8 0 C8 0.66 8 1.32 8 2 C5.36 2.66 2.72 3.32 0 4 C0 2.68 0 1.36 0 0 Z " fill="#7B36C9" transform="translate(88,56)"/>
<path d="M0 0 C0.66 0.33 1.32 0.66 2 1 C1.67 1.66 1.34 2.32 1 3 C2.32 3.66 3.64 4.32 5 5 C4.34 5.66 3.68 6.32 3 7 C1.35 5.35 -0.3 3.7 -2 2 C-1.34 1.34 -0.68 0.68 0 0 Z " fill="#B159F8" transform="translate(174,36)"/>
<path d="M0 0 C-0.66 0 -1.32 0 -2 0 C-2 0.66 -2 1.32 -2 2 C-1.34 2.33 -0.68 2.66 0 3 C-5.75 2.25 -5.75 2.25 -8 0 C-4.71303767 -0.79953138 -3.28976808 -1.09658936 0 0 Z " fill="#9B5BDD" transform="translate(88,203)"/>
<path d="M0 0 C0 3 0 3 -1 6 C-2.98 6.33 -4.96 6.66 -7 7 C-4.66666667 4.66666667 -2.33333333 2.33333333 0 0 Z " fill="#F7E0FE" transform="translate(177,183)"/>
<path d="M0 0 C0.99 0.33 1.98 0.66 3 1 C3 1.99 3 2.98 3 4 C1.02 4 -0.96 4 -3 4 C-2.01 2.68 -1.02 1.36 0 0 Z " fill="#8426EE" transform="translate(169,184)"/>
<path d="M0 0 C0.99 0 1.98 0 3 0 C3 1.65 3 3.3 3 5 C2.01 5.33 1.02 5.66 0 6 C0 4.02 0 2.04 0 0 Z " fill="#F7FDEA" transform="translate(112,148)"/>
<path d="M0 0 C0.33 0 0.66 0 1 0 C1.33 3.3 1.66 6.6 2 10 C1.01 10 0.02 10 -1 10 C-0.67 6.7 -0.34 3.4 0 0 Z " fill="#F9E7FE" transform="translate(13,120)"/>
<path d="M0 0 C0.99 0.495 0.99 0.495 2 1 C2.59355614 3.64860427 2.74209269 6.29197322 3 9 C2.34 8.67 1.68 8.34 1 8 C0.40644386 5.35139573 0.25790731 2.70802678 0 0 Z " fill="#A858FC" transform="translate(14,107)"/>
<path d="M0 0 C0.99 0 1.98 0 3 0 C2.34 1.98 1.68 3.96 1 6 C0.01 5.67 -0.98 5.34 -2 5 C-1.34 3.35 -0.68 1.7 0 0 Z " fill="#FCF9EC" transform="translate(53,100)"/>
<path d="M0 0 C0.99 0.33 1.98 0.66 3 1 C3.33 2.65 3.66 4.3 4 6 C3.01 6.495 3.01 6.495 2 7 C1.34 6.67 0.68 6.34 0 6 C0 4.02 0 2.04 0 0 Z " fill="#F4EDFC" transform="translate(209,96)"/>
<path d="M0 0 C2.92879371 0.62759865 5.36095629 1.58622659 8 3 C5.39417629 3.93065133 4.35801776 4.14917407 1.75 3.0625 C1.1725 2.711875 0.595 2.36125 0 2 C0 1.34 0 0.68 0 0 Z " fill="#791CD3" transform="translate(160,91)"/>
<path d="M0 0 C2.97 0.495 2.97 0.495 6 1 C6 1.99 6 2.98 6 4 C3.69 3.34 1.38 2.68 -1 2 C-0.67 1.34 -0.34 0.68 0 0 Z " fill="#F3FAE8" transform="translate(100,58)"/>
<path d="M0 0 C0.66 0.33 1.32 0.66 2 1 C1.67 2.65 1.34 4.3 1 6 C0.01 6 -0.98 6 -2 6 C-1.49396008 3.83125748 -1.00016187 2.00032373 0 0 Z " fill="#FBFBEF" transform="translate(182,34)"/>
<path d="M0 0 C2.31 0.33 4.62 0.66 7 1 C7 2.65 7 4.3 7 6 C5.83054208 5.19152271 4.66449539 4.37810888 3.5 3.5625 C2.8503125 3.11003906 2.200625 2.65757813 1.53125 2.19140625 C1.0259375 1.79824219 0.520625 1.40507813 0 1 C0 0.67 0 0.34 0 0 Z " fill="#F8E1FB" transform="translate(173,34)"/>
</svg>
