<svg width="50" height="70" viewBox="0 0 50 70" fill="none" xmlns="http://www.w3.org/2000/svg">
<rect x="1" width="48" height="48" rx="24" fill="#5B95E0"/>
<path fillRule="evenodd" clipRule="evenodd" d="M18.0782 9.62007C17.3453 10.8511 15.5795 16.5677 15.6924 17.3443C15.7341 17.6305 16.2113 17.8878 17.7275 18.4425C18.8168 18.8409 20.0151 19.2262 20.3901 19.2988C21.0266 19.4218 21.0722 19.3985 21.0722 18.9516C21.0722 18.3138 21.3313 18.1236 22.8617 17.6382C24.6946 17.0568 25.1759 16.7579 25.478 16.013C25.7723 15.2872 25.8224 14.2325 25.5812 13.8405C25.3902 13.5302 24.2442 13.2396 23.1868 13.2334C22.5786 13.2298 22.3798 13.1457 22.2897 12.8537C22.2262 12.6474 21.9345 12.2143 21.6417 11.8914C21.1972 11.4013 20.9668 11.3041 20.2498 11.3041H19.3905V10.4538C19.3905 9.98614 19.3395 9.46649 19.277 9.29904C19.0872 8.78958 18.4751 8.95356 18.0782 9.62007ZM29.4644 16.9819C29.0737 17.695 28.7663 18.0405 28.5225 18.0405C27.912 18.0405 26.8647 18.5811 26.8647 18.8962C26.8647 19.0601 26.5704 19.5298 26.2107 19.9397C25.1865 21.1074 25.3764 22.4475 26.6629 23.1329C26.9505 23.2859 27.2918 23.6753 27.4215 23.9978C27.5514 24.3204 27.6887 24.5843 27.7268 24.5843C27.932 24.5843 31.1129 23.1872 31.3584 22.9893C31.5176 22.8609 31.75 22.1765 31.8749 21.4687C32.0851 20.2757 32.0671 20.0569 31.631 18.4854C30.8019 15.4984 30.4219 15.2345 29.4644 16.9819ZM14.9986 19.3227C14.3482 20.9249 12.4553 26.921 11.9211 29.0712C11.6104 30.3219 11.3017 31.9478 11.2352 32.6844C11.1217 33.9433 11.0946 34.0057 10.7884 33.7201C10.3396 33.3018 9.41368 31.4428 9.01792 30.1658C8.58292 28.762 8.53789 28.7009 8.24397 29.1149C7.90034 29.599 7.92388 31.5908 8.28825 32.8549C8.69634 34.2703 9.33576 35.2446 10.1028 35.6195C11.1232 36.1182 15.2064 36.129 17.3351 35.6384C18.1058 35.4607 19.568 35.2611 20.5843 35.1945C22.2079 35.0883 22.4476 35.0269 22.5594 34.6887C22.6489 34.4176 21.2394 20.9367 21.0869 20.6066C21.0789 20.5889 19.874 20.1647 18.4095 19.6641C16.9449 19.1633 15.6459 18.7156 15.5226 18.6689C15.3981 18.6219 15.1649 18.9127 14.9986 19.3227ZM29.9603 24.5019C29.0423 24.9706 28.1714 25.3542 28.0249 25.3542C27.8234 25.3542 27.7939 25.4835 27.904 25.8834C27.984 26.1746 28.0561 28.3759 28.0643 30.7751C28.0725 33.1746 28.1484 35.209 28.233 35.2962C28.4018 35.47 30.2657 35.6674 33.6072 35.8653C35.9457 36.0039 37.3637 35.7873 38.1205 35.1763C38.353 34.9886 38.8107 34.775 39.1379 34.7014C39.8986 34.5303 41.4148 33.1606 41.7453 32.3459C41.8855 32.0004 42 31.3106 42 30.8127C42 29.9897 41.9228 29.8311 41.1517 29.0701C40.6851 28.6095 40.2342 28.0406 40.1499 27.8056C39.9024 27.1164 40.2557 26.2711 41.1096 25.5095C41.7812 24.9105 41.8742 24.744 41.7008 24.4509C40.8697 23.0457 38.6345 25.3359 38.6373 27.5898C38.6383 28.3378 39.2418 29.3103 39.9336 29.6789C40.8841 30.185 40.9278 31.4801 40.0261 32.409C39.3969 33.057 38.967 32.9296 38.788 32.0421C38.3232 29.7381 35.5914 26.0251 33.1421 24.3683C32.5352 23.9578 31.9466 23.6281 31.8341 23.6358C31.7216 23.6433 30.8784 24.0331 29.9603 24.5019Z" fill="white"/>
<g filter="url(#filter0_f_402_2)">
<ellipse cx="25" cy="55.5" rx="13" ry="2.5" fill="#5B95E0"/>
</g>
<defs>
<filter id="filter0_f_402_2" x="0" y="41" width="50" height="29" filterUnits="userSpaceOnUse" color-interpolation-filters="sRGB">
<feFlood flood-opacity="0" result="BackgroundImageFix"/>
<feBlend mode="normal" in="SourceGraphic" in2="BackgroundImageFix" result="shape"/>
<feGaussianBlur stdDeviation="6" result="effect1_foregroundBlur_402_2"/>
</filter>
</defs>
</svg>
