<svg width="48" height="48" viewBox="0 0 48 48" fill="none" xmlns="http://www.w3.org/2000/svg">
<rect width="48" height="48" rx="24" fill="#5B95E0"/>
<path fill-rule="evenodd" clip-rule="evenodd" d="M17.0782 9.62007C16.3453 10.8511 14.5795 16.5677 14.6924 17.3443C14.7341 17.6305 15.2113 17.8878 16.7275 18.4425C17.8168 18.8409 19.0151 19.2262 19.3901 19.2988C20.0266 19.4218 20.0722 19.3985 20.0722 18.9516C20.0722 18.3138 20.3313 18.1236 21.8617 17.6382C23.6946 17.0568 24.1759 16.7579 24.478 16.013C24.7723 15.2872 24.8224 14.2325 24.5812 13.8405C24.3902 13.5302 23.2442 13.2396 22.1868 13.2334C21.5786 13.2298 21.3798 13.1457 21.2897 12.8537C21.2262 12.6474 20.9345 12.2143 20.6417 11.8914C20.1972 11.4013 19.9668 11.3041 19.2498 11.3041H18.3905V10.4538C18.3905 9.98614 18.3395 9.46649 18.277 9.29904C18.0872 8.78958 17.4751 8.95356 17.0782 9.62007ZM28.4644 16.9819C28.0737 17.695 27.7663 18.0405 27.5225 18.0405C26.912 18.0405 25.8647 18.5811 25.8647 18.8962C25.8647 19.0601 25.5704 19.5298 25.2107 19.9397C24.1865 21.1074 24.3764 22.4475 25.6629 23.1329C25.9505 23.2859 26.2918 23.6753 26.4215 23.9978C26.5514 24.3204 26.6887 24.5843 26.7268 24.5843C26.932 24.5843 30.1129 23.1872 30.3584 22.9893C30.5176 22.8609 30.75 22.1765 30.8749 21.4687C31.0851 20.2757 31.0671 20.0569 30.631 18.4854C29.8019 15.4984 29.4219 15.2345 28.4644 16.9819ZM13.9986 19.3227C13.3482 20.9249 11.4553 26.921 10.9211 29.0712C10.6104 30.3219 10.3017 31.9478 10.2352 32.6844C10.1217 33.9433 10.0946 34.0057 9.78838 33.7201C9.33955 33.3018 8.41368 31.4428 8.01792 30.1658C7.58292 28.762 7.53789 28.7009 7.24397 29.1149C6.90034 29.599 6.92388 31.5908 7.28825 32.8549C7.69634 34.2703 8.33576 35.2446 9.10281 35.6195C10.1232 36.1182 14.2064 36.129 16.3351 35.6384C17.1058 35.4607 18.568 35.2611 19.5843 35.1945C21.2079 35.0883 21.4476 35.0269 21.5594 34.6887C21.6489 34.4176 20.2394 20.9367 20.0869 20.6066C20.0789 20.5889 18.874 20.1647 17.4095 19.6641C15.9449 19.1633 14.6459 18.7156 14.5226 18.6689C14.3981 18.6219 14.1649 18.9127 13.9986 19.3227ZM28.9603 24.5019C28.0423 24.9706 27.1714 25.3542 27.0249 25.3542C26.8234 25.3542 26.7939 25.4835 26.904 25.8834C26.984 26.1746 27.0561 28.3759 27.0643 30.7751C27.0725 33.1746 27.1484 35.209 27.233 35.2962C27.4018 35.47 29.2657 35.6674 32.6072 35.8653C34.9457 36.0039 36.3637 35.7873 37.1205 35.1763C37.353 34.9886 37.8107 34.775 38.1379 34.7014C38.8986 34.5303 40.4148 33.1606 40.7453 32.3459C40.8855 32.0004 41 31.3106 41 30.8127C41 29.9897 40.9228 29.8311 40.1517 29.0701C39.6851 28.6095 39.2342 28.0406 39.1499 27.8056C38.9024 27.1164 39.2557 26.2711 40.1096 25.5095C40.7812 24.9105 40.8742 24.744 40.7008 24.4509C39.8697 23.0457 37.6345 25.3359 37.6373 27.5898C37.6383 28.3378 38.2418 29.3103 38.9336 29.6789C39.8841 30.185 39.9278 31.4801 39.0261 32.409C38.3969 33.057 37.967 32.9296 37.788 32.0421C37.3232 29.7381 34.5914 26.0251 32.1421 24.3683C31.5352 23.9578 30.9466 23.6281 30.8341 23.6358C30.7216 23.6433 29.8784 24.0331 28.9603 24.5019Z" fill="white"/>
</svg>
