<svg width="48" height="43" viewBox="0 0 48 43" fill="none" xmlns="http://www.w3.org/2000/svg">
<path d="M9.1892 29.8712C10.8009 29.8712 12.362 30.4618 12.9526 31.0356C21.7537 39.6004 28.9852 40.8746 32.5123 40.8746C34.9341 40.8746 36.3686 40.2923 36.8496 39.9801C36.4277 39.6088 35.2041 39.035 34.5037 38.7059C32.698 37.8537 31.8204 37.4065 31.7951 36.6639C31.7867 36.5036 31.8288 36.107 32.3014 35.837C32.8161 35.5416 34.2 35.0185 35.9467 34.3518C38.7566 33.2802 43.0179 31.6601 44.0727 30.7403C45.5325 29.4746 46.2497 26.2765 46.0387 25.3905C46.0303 25.3989 46.0134 25.4074 46.005 25.4158C45.0684 26.0993 43.0854 26.4368 39.9548 26.4368C36.9424 26.4368 33.9131 26.1162 33.8878 26.1077L33.4405 26.0571L32.3858 21.3823L29.3649 27.2638H26.4875C25.8209 27.2638 24.0826 26.0234 16.6823 20.2769C14.1593 18.3109 11.7713 16.4629 10.6237 15.6697C7.94879 13.8302 7.45094 8.22722 7.52688 4.43848C5.57766 9.07948 6.73369 16.1085 6.75057 16.1844L6.80119 16.4713L6.60712 16.6992C6.59024 16.7245 4.62414 19.0872 3.75501 23.3147C3.40905 24.977 1.91549 26.3946 1.2995 26.9178C1.62015 31.9638 2.82681 37.2883 4.2613 37.2883C4.29505 37.2883 4.32881 37.2883 4.371 37.2799C4.53132 37.2546 4.64946 37.2039 4.69165 37.1449C4.81822 36.9592 4.70009 36.3095 4.59883 35.7948C4.33725 34.4278 3.93221 32.3604 5.98269 30.8584C6.84339 30.2171 7.95723 29.8712 9.1892 29.8712Z" fill="white"/>
<path d="M38.3178 39.1197C36.6555 39.1197 34.3012 38.5374 33.7021 38.2252L33.8962 37.8455C34.6978 38.259 38.3094 38.6387 39.2291 38.4362C38.6131 37.9046 35.9467 36.5545 33.4659 35.4406L33.6346 35.0693C35.8707 36.0735 39.7439 37.6683 39.9548 38.394C40.0054 38.5712 39.9464 38.7484 39.7945 38.8665C39.5751 39.0437 39.0182 39.1197 38.3178 39.1197Z" fill="#000100"/>
<path d="M32.5123 42.1403C28.7911 42.1403 21.1883 40.8155 12.075 31.9385C11.7797 31.6516 10.5562 31.1285 9.18918 31.1285C8.21879 31.1285 7.38341 31.3816 6.7168 31.871C5.31606 32.9005 5.57764 34.2506 5.82235 35.5501C5.99111 36.4108 6.143 37.2293 5.72109 37.8537C5.48482 38.1997 5.1051 38.4275 4.59037 38.5203C4.48068 38.5372 4.36254 38.5541 4.26128 38.5541C0.953515 38.5541 0.177202 29.4577 0.0253146 26.6731L0 26.3356L0.270022 26.1331C0.286898 26.1162 2.19393 24.6648 2.52302 23.0616C3.30777 19.2306 4.91946 16.8511 5.46794 16.1254C5.20636 14.4209 4.14315 5.78859 7.83064 1.52731L9.15543 0L8.93604 2.01673C8.5732 5.34137 8.68289 12.8092 11.3409 14.6318C12.5223 15.4419 14.9187 17.3067 17.4586 19.2812C20.7411 21.838 25.6858 25.6774 26.555 26.0065H28.597L32.8499 17.7202L34.47 24.9095C35.4066 24.9939 37.6934 25.1795 39.9548 25.1795C43.6423 25.1795 44.8574 24.6901 45.254 24.4032C45.5662 24.1754 45.8615 24.0573 46.1484 24.0573C46.3678 24.0573 46.9079 24.1332 47.1695 24.8336C47.7264 26.3271 46.621 30.2003 44.8911 31.7023C43.6676 32.7655 39.6257 34.3012 36.3855 35.5416C35.1788 35.9973 34.0228 36.4361 33.3646 36.7314C33.8034 36.993 34.5122 37.3305 35.0353 37.5752C36.9846 38.495 38.1828 39.1025 38.2165 40.0139C38.225 40.1911 38.1743 40.4695 37.8959 40.7564C37.2293 41.4399 35.3054 42.1403 32.5123 42.1403ZM9.18918 29.8712C10.8009 29.8712 12.3619 30.4618 12.9526 31.0356C21.7536 39.6004 28.9852 40.8746 32.5123 40.8746C34.9341 40.8746 36.3686 40.2923 36.8496 39.9801C36.4276 39.6088 35.2041 39.035 34.5037 38.7059C32.698 37.8537 31.8204 37.4065 31.7951 36.6639C31.7866 36.5036 31.8288 36.107 32.3014 35.837C32.8161 35.5416 34.2 35.0185 35.9467 34.3518C38.7566 33.2802 43.0179 31.6601 44.0726 30.7403C45.5324 29.4746 46.2497 26.2765 46.0387 25.3905C46.0303 25.3989 46.0134 25.4074 46.005 25.4158C45.0683 26.0993 43.0854 26.4368 39.9548 26.4368C36.9424 26.4368 33.9131 26.1162 33.8877 26.1077L33.4405 26.0571L32.3858 21.3824L29.3649 27.2638H26.4875C25.8208 27.2638 24.0826 26.0234 16.6823 20.277C14.1593 18.3109 11.7713 16.4629 10.6237 15.6697C7.94877 13.8302 7.45092 8.22723 7.52686 4.43848C5.57764 9.07949 6.73367 16.1085 6.75055 16.1844L6.80118 16.4713L6.6071 16.6992C6.59022 16.7245 4.62413 19.0872 3.75499 23.3147C3.40903 24.977 1.91547 26.3946 1.29948 26.9178C1.62013 31.9638 2.82679 37.2883 4.26128 37.2883C4.29504 37.2883 4.32879 37.2883 4.37098 37.2799C4.53131 37.2546 4.64944 37.204 4.69163 37.1449C4.8182 36.9592 4.70007 36.3095 4.59881 35.7948C4.33723 34.4278 3.93219 32.3604 5.98267 30.8584C6.84337 30.2171 7.95721 29.8712 9.18918 29.8712Z" fill="#000100"/>
<path d="M26.5297 26.5381H29.5928C29.5928 26.5381 28.5211 30.9597 34.4869 35.5923L32.1664 37.2208C32.158 37.2208 25.6437 35.1535 26.5297 26.5381Z" fill="#000100"/>
<path d="M47.1105 25.2304C47.1105 25.9054 46.7645 26.0151 46.3341 26.0151C45.9038 26.0151 45.5578 25.9054 45.5578 25.2304C45.5578 24.5553 45.9038 24.0068 46.3341 24.0068C46.7645 24.0068 47.1105 24.5553 47.1105 25.2304Z" fill="#000100"/>
<path d="M34.9932 28.1665C34.7569 27.9302 34.7316 27.6771 34.7569 27.5083C34.8498 26.9092 35.6429 26.4535 35.8033 26.3691L36.0986 26.9261C35.8201 27.0779 35.4067 27.3986 35.3814 27.6011C35.3814 27.618 35.3729 27.6602 35.4404 27.7277L34.9932 28.1665Z" fill="#000100"/>
<path d="M41.3639 31.3228C38.3177 31.3228 37.8958 30.074 37.8536 29.8884L38.4612 29.728C38.4696 29.7449 39.0434 31.3397 44.2835 30.3862L44.3932 31.0106C43.1697 31.2385 42.174 31.3228 41.3639 31.3228Z" fill="#000100"/>
</svg>
