<svg width="50" height="70" viewBox="0 0 50 70" fill="none" xmlns="http://www.w3.org/2000/svg">
<rect x="1" width="48" height="48" rx="24" fill="#9955AE"/>
<path fillRule="evenodd" clipRule="evenodd" d="M19.7068 13.4823C19.1464 14.4397 17.7961 18.886 17.8824 19.49C17.9143 19.7126 18.2792 19.9128 19.4386 20.3442C20.2717 20.654 21.188 20.9537 21.4748 21.0102C21.9615 21.1058 21.9964 21.0877 21.9964 20.7401C21.9964 20.244 22.1946 20.0961 23.3648 19.7186C24.7664 19.2664 25.1345 19.0339 25.3656 18.4546C25.5906 17.8901 25.6289 17.0697 25.4444 16.7648C25.2984 16.5235 24.4221 16.2975 23.6134 16.2927C23.1483 16.2898 22.9963 16.2244 22.9274 15.9973C22.8788 15.8368 22.6558 15.5 22.4319 15.2488C22.092 14.8677 21.9158 14.7921 21.3675 14.7921H20.7104V14.1308C20.7104 13.767 20.6713 13.3628 20.6236 13.2326C20.4784 12.8363 20.0103 12.9639 19.7068 13.4823ZM28.414 19.2081C28.1152 19.7628 27.8801 20.0315 27.6937 20.0315C27.2268 20.0315 26.4259 20.452 26.4259 20.697C26.4259 20.8246 26.2009 21.1898 25.9258 21.5087C25.1426 22.4169 25.2878 23.4592 26.2716 23.9923C26.4915 24.1113 26.7526 24.4141 26.8518 24.665C26.9511 24.9159 27.0561 25.1211 27.0852 25.1211C27.2421 25.1211 29.6745 24.0345 29.8623 23.8806C29.984 23.7807 30.1618 23.2484 30.2572 22.6978C30.418 21.77 30.4043 21.5998 30.0708 20.3776C29.4368 18.0543 29.1461 17.8491 28.414 19.2081ZM17.3519 21.0287C16.8545 22.275 15.407 26.9386 14.9985 28.611C14.7609 29.5837 14.5248 30.8483 14.4739 31.4212C14.3872 32.4004 14.3665 32.4489 14.1323 32.2267C13.7891 31.9014 13.0811 30.4555 12.7784 29.4623C12.4458 28.3704 12.4113 28.323 12.1866 28.6449C11.9238 29.0214 11.9418 30.5706 12.2204 31.5538C12.5325 32.6547 13.0215 33.4125 13.608 33.7041C14.3883 34.0919 17.5108 34.1003 19.1386 33.7187C19.728 33.5806 20.8461 33.4253 21.6233 33.3735C22.8648 33.2909 23.0482 33.2432 23.1336 32.9801C23.2021 32.7692 22.1242 22.2841 22.0077 22.0274C22.0015 22.0136 21.0802 21.6837 19.9602 21.2943C18.8402 20.9048 17.8468 20.5566 17.7525 20.5202C17.6574 20.4837 17.479 20.7099 17.3519 21.0287ZM28.7932 25.057C28.0912 25.4216 27.4252 25.7199 27.3131 25.7199C27.1591 25.7199 27.1365 25.8205 27.2207 26.1316C27.2818 26.358 27.337 28.0701 27.3433 29.9362C27.3496 31.8025 27.4076 33.3848 27.4723 33.4526C27.6014 33.5877 29.0267 33.7413 31.582 33.8952C33.3702 34.003 34.4546 33.8346 35.0333 33.3593C35.2111 33.2134 35.5612 33.0472 35.8114 32.99C36.3931 32.8569 37.5525 31.7915 37.8052 31.1579C37.9124 30.8892 38 30.3527 38 29.9654C38 29.3253 37.941 29.202 37.3513 28.6101C36.9945 28.2518 36.6497 27.8093 36.5852 27.6266C36.3959 27.0905 36.6661 26.433 37.3191 25.8407C37.8327 25.3748 37.9038 25.2454 37.7712 25.0174C37.1357 23.9244 35.4264 25.7057 35.4286 27.4588C35.4293 28.0405 35.8908 28.7969 36.4198 29.0836C37.1467 29.4773 37.1801 30.4846 36.4905 31.207C36.0094 31.711 35.6806 31.6119 35.5437 30.9217C35.1884 29.1297 33.0993 26.2417 31.2263 24.9532C30.7622 24.6339 30.3121 24.3774 30.2261 24.3834C30.1401 24.3893 29.4952 24.6924 28.7932 25.057Z" fill="white"/>
<g filter="url(#filter0_f_301_2)">
<ellipse cx="25" cy="55.5" rx="13" ry="2.5" fill="#9955AE"/>
</g>
<defs>
<filter id="filter0_f_301_2" x="0" y="41" width="50" height="29" filterUnits="userSpaceOnUse" color-interpolation-filters="sRGB">
<feFlood flood-opacity="0" result="BackgroundImageFix"/>
<feBlend mode="normal" in="SourceGraphic" in2="BackgroundImageFix" result="shape"/>
<feGaussianBlur stdDeviation="6" result="effect1_foregroundBlur_301_2"/>
</filter>
</defs>
</svg>
