<svg width="50" height="70" viewBox="0 0 50 70" fill="none" xmlns="http://www.w3.org/2000/svg">
<rect x="1" width="48" height="48" rx="24" fill="#92DCE0"/>
<path d="M27.4745 22.2267C27.2557 22.0079 26.959 21.8851 26.6497 21.8851C26.3403 21.8851 26.0436 22.0079 25.8248 22.2267L25 23.0515C24.5623 23.489 23.9688 23.7347 23.3499 23.7346C22.7311 23.7345 22.1376 23.4886 21.7001 23.0509C21.2626 22.6132 21.0168 22.0197 21.0169 21.4008C21.0171 20.782 21.263 20.1885 21.7007 19.751L28.269 13.1803C29.8241 12.8266 31.4511 12.9722 32.9187 13.5963C34.3863 14.2205 35.6197 15.2914 36.4437 16.6569C37.2677 18.0223 37.6402 19.6128 37.5082 21.2021C37.3763 22.7914 36.7467 24.2987 35.7088 25.5097L33.2495 28.0005L27.4745 22.2267ZM14.6878 15.215C15.8951 14.0079 17.4741 13.2433 19.1697 13.0447C20.8652 12.8461 22.5782 13.2252 24.0317 14.1207L20.0498 18.1013C19.1814 18.9607 18.6846 20.1264 18.6662 21.348C18.6478 22.5696 19.1091 23.7498 19.9512 24.6349C20.7934 25.5201 21.949 26.0398 23.1701 26.0823C24.3911 26.1247 25.5801 25.6867 26.4817 24.8622L26.6497 24.7012L31.5998 29.6513L26.6497 34.6003C26.2121 35.0378 25.6187 35.2835 25 35.2835C24.3813 35.2835 23.7879 35.0378 23.3503 34.6003L14.6867 25.939C13.9824 25.2348 13.4237 24.3988 13.0426 23.4787C12.6614 22.5585 12.4652 21.5723 12.4652 20.5764C12.4652 19.5805 12.6614 18.5943 13.0426 17.6742C13.4237 16.754 13.9824 15.918 14.6867 15.2138L14.6878 15.215Z" fill="white"/>
<g filter="url(#filter0_f_301_3)">
<ellipse cx="25" cy="55.5" rx="13" ry="2.5" fill="#92DCE0"/>
</g>
<defs>
<filter id="filter0_f_301_3" x="0" y="41" width="50" height="29" filterUnits="userSpaceOnUse" color-interpolation-filters="sRGB">
<feFlood flood-opacity="0" result="BackgroundImageFix"/>
<feBlend mode="normal" in="SourceGraphic" in2="BackgroundImageFix" result="shape"/>
<feGaussianBlur stdDeviation="6" result="effect1_foregroundBlur_301_3"/>
</filter>
</defs>
</svg>
