<svg width="24" height="24" viewBox="0 0 24 24" fill="none" xmlns="http://www.w3.org/2000/svg">
<g id="typcn:key">
<path id="Vector" d="M7.40741 10.4286C7.40741 11.3697 7.61644 12.2594 7.97282 13.0656L3 18.1429V20.0714C3 20.0714 4.1283 22 5.51852 22H8.03704V19.4286H10.5556V16.8571H13.7037C17.1818 16.8571 20 13.9797 20 10.4286C20 6.87743 17.1818 4 13.7037 4C10.2256 4 7.40741 6.87743 7.40741 10.4286ZM13.7037 13C13.3729 12.9999 13.0453 12.9333 12.7397 12.804C12.4341 12.6746 12.1564 12.4851 11.9226 12.2462C11.6887 12.0073 11.5032 11.7237 11.3767 11.4116C11.2502 11.0995 11.1851 10.7651 11.1852 10.4273C11.1853 10.0895 11.2505 9.75507 11.3772 9.44305C11.5039 9.13102 11.6895 8.84752 11.9235 8.60875C12.1575 8.36997 12.4352 8.18058 12.7409 8.0514C13.0465 7.92222 13.3741 7.85577 13.705 7.85586C14.3731 7.85603 15.0138 8.12718 15.4861 8.60965C15.9584 9.09213 16.2236 9.74642 16.2235 10.4286C16.2233 11.1107 15.9577 11.7649 15.4852 12.2471C15.0126 12.7293 14.3718 13.0002 13.7037 13Z" fill="#45C6CE"/>
</g>
</svg>
