<svg width="176" height="45" viewBox="0 0 176 45" fill="none" xmlns="http://www.w3.org/2000/svg">
<g id="Group">
<g id="Group_2">
<path id="Vector" d="M38.3403 41.5581C36.678 41.5581 34.3237 40.9759 33.7246 40.6637L32.6783 39.1111L33.6571 37.5078C35.8932 38.512 39.7664 40.1068 39.9773 40.8325C40.0279 41.0097 39.9689 41.1869 39.817 41.305C39.5976 41.4822 39.0407 41.5581 38.3403 41.5581Z" fill="white"/>
</g>
<g id="Group_3">
<g id="Group_4">
<path id="Vector_2" d="M9.21166 32.3101C10.8234 32.3101 12.3844 32.9008 12.9751 33.4746C21.7761 42.0394 29.0076 43.3135 32.5348 43.3135C34.9566 43.3135 36.391 42.7313 36.872 42.4191C36.4501 42.0478 35.2266 41.474 34.5262 41.1449C32.7204 40.2927 31.8429 39.8454 31.8176 39.1029C31.8091 38.9425 31.8513 38.5459 32.3238 38.2759C32.8386 37.9806 34.2224 37.4574 35.9691 36.7908C38.7791 35.7192 43.0403 34.099 44.0951 33.1793C45.5549 31.9135 46.2722 28.7155 46.0612 27.8295C46.0528 27.8379 46.0359 27.8463 46.0275 27.8548C45.0908 28.5383 43.1078 28.8758 39.9773 28.8758C36.9648 28.8758 33.9355 28.5551 33.9102 28.5467L33.463 28.4961L32.4082 23.8213L29.3874 29.7027H26.5099C25.8433 29.7027 24.1051 28.4623 16.7048 22.7159C14.1818 20.7498 11.7937 18.9019 10.6462 18.1087C7.97125 16.2691 7.4734 10.6662 7.54934 6.87744C5.60012 11.5184 6.75615 18.5474 6.77303 18.6234L6.82366 18.9103L6.62958 19.1381C6.6127 19.1634 4.6466 21.5261 3.77747 25.7537C3.43151 27.416 1.93795 28.8336 1.32196 29.3568C1.64261 34.4028 2.84927 39.7273 4.28376 39.7273C4.31752 39.7273 4.35127 39.7273 4.39346 39.7189C4.55378 39.6935 4.67192 39.6429 4.71411 39.5838C4.84068 39.3982 4.72255 38.7485 4.62129 38.2337C4.35971 36.8667 3.95467 34.7994 6.00515 33.2974C6.86585 32.6561 7.97969 32.3101 9.21166 32.3101Z" fill="white"/>
</g>
<g id="Group_5">
<path id="Vector_3" d="M38.3403 41.5586C36.678 41.5586 34.3237 40.9764 33.7246 40.6642L33.9187 40.2845C34.7203 40.6979 38.3319 41.0777 39.2516 40.8751C38.6356 40.3435 35.9692 38.9934 33.4883 37.8796L33.6571 37.5083C35.8932 38.5124 39.7664 40.1073 39.9773 40.8329C40.0279 41.0101 39.9689 41.1873 39.817 41.3055C39.5976 41.4827 39.0407 41.5586 38.3403 41.5586Z" fill="#000100"/>
</g>
<g id="Group_6">
<path id="Vector_4" d="M32.5348 44.5793C28.8135 44.5793 21.2107 43.2545 12.0975 34.3775C11.8022 34.0906 10.5786 33.5674 9.21164 33.5674C8.24125 33.5674 7.40587 33.8206 6.73926 34.31C5.33852 35.3394 5.6001 36.6895 5.84481 37.989C6.01357 38.8497 6.16546 39.6682 5.74355 40.2927C5.50728 40.6386 5.12756 40.8665 4.61283 40.9593C4.50314 40.9761 4.385 40.993 4.28374 40.993C0.975976 40.993 0.199663 31.8967 0.0477755 29.1121L0.0224609 28.7745L0.292483 28.572C0.309359 28.5551 2.21639 27.1038 2.54548 25.5005C3.33023 21.6696 4.94192 19.29 5.4904 18.5643C5.22882 16.8598 4.16561 8.22756 7.8531 3.96628L9.17789 2.43896L8.9585 4.45569C8.59566 7.78033 8.70535 15.2481 11.3634 17.0708C12.5447 17.8808 14.9412 19.7457 17.4811 21.7202C20.7635 24.277 25.7083 28.1164 26.5774 28.4454H28.6195L32.8723 20.1592L34.4924 27.3485C35.4291 27.4329 37.7158 27.6185 39.9773 27.6185C43.6648 27.6185 44.8799 27.1291 45.2764 26.8422C45.5887 26.6144 45.884 26.4962 46.1709 26.4962C46.3903 26.4962 46.9303 26.5722 47.1919 27.2725C47.7488 28.7661 46.6434 32.6392 44.9136 34.1412C43.6901 35.2044 39.6482 36.7402 36.4079 37.9806C35.2013 38.4363 34.0452 38.875 33.387 39.1704C33.8258 39.432 34.5346 39.7695 35.0578 40.0142C37.007 40.934 38.2052 41.5415 38.239 42.4528C38.2474 42.63 38.1968 42.9085 37.9184 43.1954C37.2517 43.8789 35.3278 44.5793 32.5348 44.5793ZM9.21164 32.3101C10.8233 32.3101 12.3844 32.9008 12.9751 33.4746C21.7761 42.0394 29.0076 43.3135 32.5348 43.3135C34.9565 43.3135 36.391 42.7313 36.872 42.4191C36.4501 42.0478 35.2266 41.474 34.5262 41.1449C32.7204 40.2927 31.8429 39.8454 31.8175 39.1029C31.8091 38.9425 31.8513 38.546 32.3238 38.2759C32.8386 37.9806 34.2224 37.4574 35.9691 36.7908C38.779 35.7192 43.0403 34.099 44.0951 33.1793C45.5549 31.9135 46.2722 28.7155 46.0612 27.8295C46.0528 27.8379 46.0359 27.8463 46.0274 27.8548C45.0908 28.5383 43.1078 28.8758 39.9773 28.8758C36.9648 28.8758 33.9355 28.5551 33.9102 28.5467L33.463 28.4961L32.4082 23.8213L29.3873 29.7027H26.5099C25.8433 29.7027 24.105 28.4623 16.7048 22.7159C14.1817 20.7498 11.7937 18.9019 10.6461 18.1087C7.97123 16.2691 7.47338 10.6662 7.54932 6.87745C5.6001 11.5185 6.75613 18.5475 6.77301 18.6234L6.82364 18.9103L6.62956 19.1381C6.61268 19.1634 4.64659 21.5261 3.77745 25.7537C3.43149 27.416 1.93793 28.8336 1.32194 29.3568C1.64259 34.4028 2.84925 39.7273 4.28374 39.7273C4.3175 39.7273 4.35125 39.7273 4.39344 39.7189C4.55377 39.6935 4.6719 39.6429 4.71409 39.5839C4.84066 39.3982 4.72253 38.7485 4.62127 38.2337C4.35969 36.8668 3.95466 34.7994 6.00513 33.2974C6.86583 32.6561 7.97967 32.3101 9.21164 32.3101Z" fill="#000100"/>
</g>
<g id="Group_7">
<path id="Vector_5" d="M26.5521 28.9771H29.6152C29.6152 28.9771 28.5435 33.3987 34.5093 38.0312L32.1888 39.6598C32.1804 39.6598 25.6661 37.5924 26.5521 28.9771Z" fill="#000100"/>
</g>
<g id="Group_8">
<path id="Vector_6" d="M47.1329 27.6693C47.1329 28.3444 46.787 28.4541 46.3566 28.4541C45.9263 28.4541 45.5803 28.3444 45.5803 27.6693C45.5803 26.9943 45.9263 26.4458 46.3566 26.4458C46.787 26.4458 47.1329 26.9943 47.1329 27.6693Z" fill="#000100"/>
</g>
<g id="Group_9">
<path id="Vector_7" d="M35.0157 30.6054C34.7794 30.3692 34.7541 30.116 34.7794 29.9473C34.8722 29.3481 35.6654 28.8925 35.8257 28.8081L36.1211 29.365C35.8426 29.5169 35.4291 29.8376 35.4038 30.0401C35.4038 30.057 35.3954 30.0991 35.4629 30.1667L35.0157 30.6054Z" fill="#000100"/>
</g>
<g id="Group_10">
<path id="Vector_8" d="M41.3864 33.7618C38.3402 33.7618 37.9183 32.513 37.8761 32.3273L38.4836 32.167C38.4921 32.1839 39.0659 33.7787 44.306 32.8252L44.4157 33.4496C43.1922 33.6774 42.1964 33.7618 41.3864 33.7618Z" fill="#000100"/>
</g>
</g>
<g id="Group_11">
<path id="Vector_9" d="M5.90392 2.48078C6.00518 1.68759 6.47772 1.02941 6.87431 0.362793C5.44826 0.843769 4.73101 3.09676 6.12331 3.99121" fill="#000100"/>
<path id="Vector_10" d="M4.89977 2.12642C5.00103 1.33323 5.47356 0.666617 5.87016 0C4.44411 0.489415 3.72686 2.74241 5.11916 3.62842" fill="#000100"/>
<path id="Vector_11" d="M9.70112 3.69607C9.82769 2.91131 9.57454 2.15188 9.38047 1.40088C10.6124 2.2447 10.6546 4.59895 9.05981 5.08837" fill="#000100"/>
<path id="Vector_12" d="M10.7727 3.61989C10.8993 2.83514 10.6377 2.07571 10.452 1.32471C11.684 2.16009 11.7262 4.52278 10.1398 5.01219" fill="#000100"/>
</g>
<path id="Vector_13" d="M56.5583 32.4873L56.9549 32.6476C58.2628 33.2467 59.2163 33.8627 59.8238 34.4787C60.423 35.0947 60.7267 35.9385 60.7267 37.0017C60.7267 38.0227 60.5158 38.8075 60.1023 39.356C59.6888 39.9045 59.2585 40.4023 58.8281 40.8495C59.4779 40.7905 59.9926 40.7061 60.3808 40.5964C60.7689 40.4867 61.3258 40.2504 62.0684 39.8791L62.3469 39.8116C62.5325 39.8116 62.6338 39.9213 62.6506 40.1323C62.6506 40.4951 62.0262 40.9508 60.7774 41.4993C59.5285 42.0393 57.8662 42.3093 55.782 42.3093C54.9044 42.3093 54.0606 42.2334 53.2589 42.09C52.4573 41.9465 51.8076 41.7524 51.3097 41.5162C50.8119 41.2799 50.5587 41.0183 50.5587 40.723C50.5587 40.5964 50.6093 40.4361 50.719 40.242L51.1156 39.4404C51.2506 39.1619 51.4278 39.0269 51.6472 39.0269C51.7738 39.0269 51.8582 39.0438 51.9004 39.0691L52.5248 39.5247C52.8961 39.7695 53.3518 40.0057 53.8918 40.2336C54.4656 40.4445 54.955 40.5542 55.3685 40.5542C56.2039 40.5542 56.8874 40.3264 57.4358 39.8623C57.9843 39.3982 58.2543 38.8075 58.2543 38.0818C58.2543 37.4658 58.0434 36.9764 57.6215 36.6136C57.1996 36.2507 56.3642 35.7866 55.1153 35.2044C53.8665 34.6306 53.0311 34.2171 52.6176 33.9724C52.2295 33.7108 51.8413 33.3311 51.4363 32.8417C51.0481 32.3185 50.8625 31.6097 50.8625 30.7153C50.8625 29.458 51.3435 28.4032 52.297 27.5678C53.2505 26.7325 54.4572 26.3105 55.9254 26.3105C56.8789 26.3105 57.7818 26.4624 58.6256 26.7746C59.4694 27.0784 59.8998 27.4075 59.8998 27.745C59.8998 27.8716 59.8407 28.0151 59.7141 28.1838L59.1572 29.0361C59.0307 29.2217 58.8872 29.3145 58.7184 29.3145C58.5834 29.3145 58.1953 29.0867 57.5708 28.631C56.9464 28.1754 56.2123 27.9476 55.36 27.9476C54.82 27.9476 54.3221 28.1332 53.858 28.5045C53.4277 28.8926 53.2083 29.323 53.2083 29.804C53.2083 30.0993 53.2927 30.3609 53.453 30.5887C53.6133 30.825 53.9002 31.0612 54.3221 31.306L55.782 32.0907L56.1785 32.2763L56.5583 32.4873Z" fill="#000100"/>
<path id="Vector_14" d="M64.7855 29.365V33.2212C65.2581 32.6052 65.7306 32.158 66.2031 31.888C66.6757 31.618 67.2242 31.4829 67.8739 31.4829C68.9034 31.4829 69.5953 31.7952 69.9581 32.4112C70.321 33.0271 70.4982 33.7444 70.4982 34.5629V39.1195C70.4982 40.0308 70.7345 40.4865 71.2154 40.4865C71.3673 40.4865 71.5361 40.4359 71.7217 40.3515L72.228 40.073C72.4137 39.9802 72.5402 39.938 72.6246 39.938C72.7596 39.938 72.844 40.0308 72.8777 40.2165C72.8777 40.5034 72.5318 40.8915 71.8399 41.3809C71.1479 41.8704 70.4644 42.1151 69.8063 42.1151C68.5405 42.1151 67.9077 41.3303 67.9077 39.7608V35.3645V34.6051C67.9077 34.5123 67.8148 34.3266 67.6292 34.0482C67.4942 33.7866 67.1904 33.6516 66.7263 33.6516C66.1441 33.6516 65.6631 33.9047 65.2918 34.4194C64.9543 34.9257 64.7855 35.6177 64.7855 36.4952V41.0012C64.7855 41.4063 64.7349 41.6594 64.6252 41.7775C64.5155 41.8957 64.3046 41.9547 63.9923 41.9547H62.8701C62.5916 41.9547 62.406 41.9041 62.3216 41.7944C62.2372 41.6847 62.195 41.4316 62.195 41.035V29.365V29.0612C62.195 28.7827 62.1528 28.6055 62.0769 28.5296L61.6634 28.3439C61.52 28.268 61.4525 28.1414 61.4525 27.9727C61.4525 27.7701 61.6212 27.5676 61.9503 27.3482C62.2794 27.1288 62.6507 26.8251 63.0473 26.42L63.4861 26.0234L63.9248 25.534C64.0936 25.3484 64.2792 25.2387 64.4818 25.2134C64.7771 25.2134 64.9205 25.3821 64.9205 25.7281L64.8615 26.4285L64.7855 27.8461V28.1499V29.365Z" fill="#000100"/>
<path id="Vector_15" d="M80.6662 35.1784V39.2372C80.6662 40.0641 80.9109 40.4776 81.4088 40.4776C81.6113 40.4776 81.856 40.3932 82.1513 40.2245C82.4467 40.0894 82.666 40.0051 82.8264 39.9713C82.9529 39.9713 83.0289 40.0641 83.0542 40.2498C83.0542 40.4945 82.8348 40.7983 82.3876 41.1527C81.6028 41.8446 80.8265 42.1906 80.0418 42.1906C79.1558 42.1906 78.5398 41.7349 78.2023 40.8236C77.2909 41.7349 76.2615 42.1906 75.1139 42.1906C74.1857 42.1906 73.4178 41.8783 72.8018 41.2539C72.1943 40.6295 71.882 39.8447 71.882 38.9081C71.882 37.8871 72.2702 37.0517 73.0381 36.3851C73.4262 36.0644 73.865 35.8113 74.346 35.6425C74.8354 35.4738 75.3755 35.3894 75.983 35.3894C76.6327 35.3894 77.3331 35.5244 78.0672 35.8028V35.2291V34.7228C78.0672 34.5287 78.0588 34.3515 78.0335 34.1996C78.0082 34.0477 77.8647 33.8367 77.6031 33.5583C77.3753 33.2883 76.945 33.1448 76.329 33.1448C75.8058 33.1448 75.4008 33.187 75.1223 33.2798L74.1266 33.6849C73.7216 33.8621 73.4684 33.9549 73.3587 33.9549C73.1225 33.9549 73.0043 33.8367 72.9875 33.592C72.9875 33.4064 73.4094 33.0182 74.2447 32.4107C75.0886 31.8116 76.1518 31.5078 77.4428 31.5078C79.5946 31.5078 80.6662 32.7313 80.6662 35.1784ZM78.0757 37.7774V37.1108C77.4513 36.8492 76.9028 36.7142 76.4218 36.7142C75.2405 36.7142 74.6498 37.3386 74.6498 38.5874C74.6498 39.1866 74.8017 39.676 75.1054 40.0557C75.4092 40.4354 75.7974 40.6211 76.2783 40.6211C76.8353 40.6211 77.2487 40.4185 77.5272 40.0051C77.7972 39.6 77.9575 39.2794 78.0082 39.0431C78.0504 38.8153 78.0757 38.3934 78.0757 37.7774Z" fill="#000100"/>
<path id="Vector_16" d="M87.3493 33.989L90.7668 39.3472C90.9946 39.7185 91.1718 39.9632 91.2984 40.0898C91.4249 40.1657 91.5937 40.2163 91.8046 40.2501L92.1253 40.1826L92.4966 40.0223L92.7497 39.9548L92.9776 40.0223L93.0704 40.2501C93.0535 40.4948 92.7497 40.8661 92.1591 41.3555C91.5684 41.8533 90.9946 42.098 90.4377 42.098C90.0495 42.098 89.7457 42.0221 89.5263 41.8618C89.2985 41.7015 89.0285 41.3639 88.7078 40.8492L85.8304 36.2419C85.476 37.4317 85.2904 38.7481 85.2904 40.1995V41.077C85.2904 41.4146 85.2313 41.6424 85.1132 41.7605C84.995 41.8787 84.7841 41.9377 84.4803 41.9377H83.3243C83.0796 41.9377 82.9108 41.8787 82.8264 41.7521C82.742 41.6255 82.6999 41.3977 82.6999 41.0602V29.2214V28.9176C82.6999 28.8248 82.683 28.732 82.6577 28.6391C82.6239 28.5463 82.5058 28.4535 82.2864 28.3607C82.067 28.2679 81.9657 28.1329 81.9657 27.9472C81.9657 27.8375 82.0164 27.7278 82.1261 27.6266L82.8433 27.0696L83.8643 26.2343L84.0246 26.0486L84.185 25.8883L84.32 25.728L84.455 25.593C84.6575 25.3483 84.8516 25.2217 85.0541 25.2217C85.1469 25.2217 85.2482 25.2639 85.3579 25.3567C85.4676 25.4495 85.5182 25.5592 85.5182 25.6773L85.4507 26.1668C85.4001 26.3946 85.3663 26.6984 85.3326 27.0696C85.2988 27.4409 85.2904 27.8966 85.2904 28.4366V34.799C85.9401 33.6767 86.6236 32.8329 87.3493 32.276C88.075 31.7191 88.8682 31.4406 89.7289 31.4406C90.252 31.4406 90.7499 31.5503 91.2055 31.7613C91.6696 31.9807 91.8975 32.1916 91.8975 32.411C91.8975 32.5038 91.8468 32.622 91.7625 32.757L91.4165 33.2886C91.2815 33.4742 91.1465 33.5755 91.0199 33.5924C90.944 33.5586 90.8596 33.5333 90.7752 33.4995C90.6908 33.4658 90.5642 33.3898 90.3955 33.2717C90.0748 33.0439 89.712 32.9257 89.3069 32.9257C88.7078 32.9173 88.0581 33.2801 87.3493 33.989Z" fill="#000100"/>
<path id="Vector_17" d="M98.952 36.1488L95.0958 37.7183C95.1886 38.0221 95.273 38.2752 95.3405 38.4524C95.408 38.6381 95.4839 38.7815 95.5599 38.8912C95.7118 39.1359 96.0324 39.4819 96.505 39.9291C96.9859 40.3763 97.7116 40.5957 98.6989 40.5957C98.9014 40.5957 99.0955 40.5789 99.2896 40.5535C99.4836 40.5198 99.7284 40.4607 100.041 40.3679C100.564 40.2245 100.986 40.0641 101.298 39.8701C101.61 39.676 101.813 39.5832 101.889 39.5832C102.108 39.5832 102.209 39.6928 102.209 39.9038C102.209 40.0304 102.099 40.1991 101.889 40.4101C101.669 40.6295 101.171 40.9755 100.387 41.4649C99.6018 41.9543 98.5639 42.1906 97.2897 42.1906C95.8215 42.1906 94.5895 41.6589 93.5938 40.5957C92.5896 39.5325 92.0918 38.2415 92.0918 36.7226C92.0918 35.2881 92.5728 34.0646 93.5263 33.0436C94.4798 32.0225 95.6274 31.5078 96.9691 31.5078C97.8804 31.5078 98.682 31.7863 99.3739 32.3348C100.066 32.8917 100.412 33.5499 100.412 34.3177C100.412 34.7143 100.302 35.0603 100.091 35.3556C99.8634 35.651 99.4921 35.9125 98.952 36.1488ZM94.8848 36.5285L96.3615 35.9294L96.9859 35.6088L97.5851 35.2628C97.7369 35.1362 97.8129 34.8831 97.8129 34.5034C97.8129 34.0308 97.6863 33.6258 97.4332 33.2967C97.18 32.9676 96.8762 32.7989 96.5218 32.7989C96.0577 32.7989 95.6527 33.0773 95.2983 33.6258C94.9777 34.1743 94.8089 34.8746 94.8089 35.7185L94.8848 36.5285Z" fill="#000100"/>
<path id="Vector_18" d="M109.635 34.681V40.9252C109.635 41.3556 109.575 41.634 109.449 41.7606C109.356 41.8872 109.12 41.9463 108.732 41.9463H107.533C107.238 41.9463 107.027 41.8788 106.884 41.7353C106.774 41.5665 106.723 41.305 106.723 40.9506V34.681L104.065 30.31C103.77 29.829 103.517 29.5928 103.306 29.5928C103.179 29.5928 103.078 29.6181 102.985 29.6603L102.681 29.7025C102.513 29.7025 102.378 29.6518 102.276 29.5506C102.175 29.4493 102.108 29.2974 102.082 29.1033C102.082 28.9346 102.217 28.7067 102.496 28.4367L104.327 26.8166C104.529 26.631 104.707 26.5297 104.859 26.5128C105.027 26.5128 105.221 26.6731 105.441 27.0022L108.749 32.5377L112.073 26.8419C112.191 26.5972 112.352 26.4622 112.537 26.4453C112.681 26.4453 112.833 26.5297 113.001 26.6985L113.347 27.0022L113.626 27.306C113.668 27.3566 113.693 27.4241 113.693 27.517C113.693 27.7195 113.617 27.922 113.465 28.1414L109.635 34.681Z" fill="#000100"/>
<path id="Vector_19" d="M122.047 35.3221L122.275 36.1744V36.8663C122.275 38.4358 121.777 39.7184 120.798 40.7057C119.811 41.693 118.528 42.1824 116.942 42.1824C115.322 42.1824 114.166 41.7942 113.465 41.0264C112.765 40.2585 112.284 39.5328 112.022 38.8577C111.896 38.4865 111.803 38.1489 111.744 37.8283C111.685 37.5161 111.651 37.1532 111.651 36.7566C111.651 35.2462 112.166 33.9974 113.187 32.9932C114.208 31.9975 115.499 31.4912 117.06 31.4912C118.199 31.4912 119.17 31.7697 119.971 32.3266C120.773 32.8835 121.33 33.5164 121.634 34.2252C122.292 34.0902 122.849 33.8708 123.296 33.5754L124.131 33.086L124.41 33.0185C124.612 33.0185 124.713 33.1113 124.713 33.297C124.713 33.3729 124.646 33.4995 124.503 33.6683L123.76 34.2674L122.832 34.9171L122.047 35.3221ZM119.389 35.7862C118.756 35.7862 118.258 35.6344 117.895 35.3137C117.533 35.0015 117.355 34.5711 117.355 34.0142C117.355 33.6429 117.482 33.2801 117.752 32.9173C117.431 32.7823 117.153 32.7063 116.917 32.7063C116.157 32.7063 115.566 33.0607 115.128 33.7695C114.689 34.4783 114.47 35.4318 114.47 36.6301C114.47 37.9802 114.689 39.0265 115.136 39.7775C115.583 40.5201 116.199 40.8913 116.984 40.8913C117.752 40.8913 118.36 40.5369 118.798 39.8281C119.237 39.1193 119.457 38.1489 119.457 36.917L119.389 35.7862Z" fill="#000100"/>
<path id="Vector_20" d="M132.19 34.0059V39.3473C132.19 40.0729 132.443 40.4358 132.949 40.4358C133.152 40.4358 133.329 40.402 133.481 40.3261L134.038 40.0223L134.291 39.9042C134.477 39.9042 134.578 40.0054 134.595 40.2079C134.595 40.4105 134.266 40.7817 133.616 41.3302C132.958 41.8787 132.274 42.1487 131.548 42.1487C130.392 42.1487 129.743 41.4821 129.608 40.1404C128.688 41.4821 127.65 42.1487 126.486 42.1487C125.397 42.1487 124.697 41.8703 124.393 41.3049C124.081 40.7396 123.903 40.3345 123.853 40.0898V38.8663V35.4657C123.853 35.1872 123.836 35.0269 123.811 34.9847C123.718 34.875 123.642 34.8075 123.583 34.7738C123.321 34.6641 123.178 34.529 123.144 34.3603C123.144 34.2337 123.186 34.1409 123.262 34.0565L124.098 33.4068L125.389 32.2761L125.92 31.7023C125.996 31.6516 126.106 31.6179 126.241 31.5841C126.536 31.5841 126.68 31.7276 126.68 32.0229L126.604 32.4364C126.502 32.8498 126.452 33.6346 126.452 34.7906V38.4191C126.452 39.4823 126.865 40.0139 127.684 40.0139C128.013 40.0139 128.308 39.9126 128.595 39.7017C128.874 39.4907 129.118 39.1785 129.312 38.7566C129.515 38.3347 129.616 37.7187 129.616 36.9171V35.5332C129.616 35.2716 129.616 35.1028 129.616 35.0269C129.616 34.9341 129.498 34.8328 129.27 34.7231C129.025 34.6725 128.899 34.5459 128.899 34.3265C128.899 34.1746 129.025 33.9974 129.295 33.7949L129.945 33.3055L130.57 32.7739L131.236 32.082C131.574 31.7444 131.835 31.5757 132.021 31.5757C132.131 31.5757 132.215 31.6094 132.283 31.6685C132.35 31.7276 132.392 31.8457 132.409 32.0145L132.35 32.3604L132.198 33.1705V34.0059H132.19Z" fill="#000100"/>
<path id="Vector_21" d="M134.291 40.3176V35.7441V35.4909C134.291 35.3981 134.282 35.3053 134.257 35.2125C134.232 35.1196 134.105 35.0437 133.877 34.9846C133.675 34.9087 133.574 34.7652 133.574 34.5712C133.574 34.4193 133.607 34.3011 133.666 34.2252L134.147 33.8539C134.434 33.6852 134.763 33.4236 135.109 33.0692L135.978 32.1663C136.189 31.9384 136.367 31.8203 136.51 31.8203C136.814 31.8203 136.966 31.9806 136.966 32.3097L136.915 32.681L136.864 33.1873V33.6261C137.253 33.0523 137.658 32.6135 138.105 32.2928C138.544 31.9806 138.957 31.8203 139.345 31.8203C139.809 31.8203 140.037 32.0819 140.037 32.6051V34.0142C140.037 34.3686 139.902 34.5458 139.624 34.5458C139.514 34.5458 139.362 34.4361 139.177 34.2083C138.982 33.9889 138.738 33.8708 138.451 33.8708C137.911 33.8708 137.472 34.1999 137.134 34.8665C136.966 35.2547 136.881 35.8031 136.881 36.5035V39.229C136.881 39.6931 136.898 39.9969 136.932 40.1572C136.966 40.3091 137.075 40.4863 137.269 40.6804C137.464 40.8745 137.877 40.9673 138.51 40.9673C138.957 40.9673 139.312 40.9251 139.582 40.8492C139.852 40.7732 140.189 40.6213 140.586 40.4019C140.982 40.1826 141.252 40.0644 141.37 40.0644C141.539 40.0644 141.64 40.1572 141.674 40.3429C141.674 40.5116 141.581 40.6888 141.387 40.8745C141.193 41.0601 140.738 41.3301 140.02 41.6761C139.303 42.0221 138.476 42.1993 137.539 42.1993C136.257 42.1993 135.422 42.039 135.016 41.7099C134.662 41.3892 134.451 41.1445 134.392 40.9926L134.291 40.3176Z" fill="#000100"/>
<path id="Vector_22" d="M148.602 28.5546V41.06C148.602 41.3976 148.551 41.6338 148.45 41.752C148.349 41.8785 148.129 41.9376 147.792 41.9376H146.501C146.206 41.9376 145.995 41.8701 145.851 41.7267C145.741 41.5579 145.691 41.2963 145.691 40.9419V28.1834C145.336 28.1834 145.075 28.2087 144.906 28.2509C144.737 28.2931 144.602 28.3437 144.501 28.3859C144.4 28.4365 144.231 28.5209 143.978 28.6643C143.607 28.8669 143.303 29.1538 143.058 29.5335C142.813 29.9132 142.611 30.0988 142.459 30.0988C142.332 30.0988 142.172 29.9891 141.97 29.7782L141.252 29.1116C141.16 29.0187 141.1 28.8753 141.067 28.6728C141.067 28.4112 141.48 27.9724 142.316 27.3564C143.151 26.7404 144.299 26.4282 145.758 26.4282C145.961 26.4282 146.189 26.4367 146.45 26.4535C146.712 26.4704 147.007 26.4957 147.328 26.5464L147.978 26.6645L148.298 26.732L148.602 26.7995L150.29 27.0273C150.61 27.0273 150.847 27.002 150.982 26.9598L151.792 26.5632L152.019 26.4957C152.146 26.4957 152.298 26.597 152.484 26.7995L152.83 27.2636C152.922 27.3986 152.965 27.5167 152.965 27.6096C152.965 27.8543 152.678 28.1243 152.112 28.4112C151.538 28.6981 150.965 28.8415 150.374 28.8415C149.893 28.8331 149.302 28.7403 148.602 28.5546Z" fill="#000100"/>
<path id="Vector_23" d="M159.141 35.1784V39.2372C159.141 40.0641 159.386 40.4776 159.884 40.4776C160.086 40.4776 160.331 40.3932 160.626 40.2245C160.922 40.0894 161.141 40.0051 161.293 39.9713C161.42 39.9713 161.496 40.0641 161.521 40.2498C161.521 40.4945 161.301 40.7983 160.854 41.1527C160.07 41.8446 159.293 42.1906 158.508 42.1906C157.622 42.1906 157.006 41.7349 156.669 40.8236C155.758 41.7349 154.728 42.1906 153.581 42.1906C152.652 42.1906 151.884 41.8783 151.277 41.2539C150.669 40.6295 150.366 39.8447 150.366 38.9081C150.366 37.8871 150.754 37.0517 151.522 36.3851C151.91 36.0644 152.349 35.8113 152.83 35.6425C153.319 35.4738 153.859 35.3894 154.467 35.3894C155.116 35.3894 155.817 35.5244 156.559 35.8028V35.2291V34.7228C156.559 34.5287 156.551 34.3515 156.525 34.1996C156.5 34.0477 156.357 33.8367 156.095 33.5583C155.859 33.2883 155.437 33.1448 154.821 33.1448C154.298 33.1448 153.893 33.187 153.614 33.2798L152.619 33.6849C152.214 33.8621 151.96 33.9549 151.851 33.9549C151.614 33.9549 151.496 33.8367 151.479 33.592C151.479 33.4064 151.901 33.0182 152.737 32.4107C153.581 31.8116 154.644 31.5078 155.935 31.5078C158.07 31.5078 159.141 32.7313 159.141 35.1784ZM156.559 37.7774V37.1108C155.935 36.8492 155.386 36.7142 154.905 36.7142C153.724 36.7142 153.133 37.3386 153.133 38.5874C153.133 39.1866 153.285 39.676 153.589 40.0557C153.893 40.4354 154.281 40.6211 154.762 40.6211C155.319 40.6211 155.732 40.4185 156.002 40.0051C156.272 39.6 156.433 39.2794 156.483 39.0431C156.534 38.8153 156.559 38.3934 156.559 37.7774Z" fill="#000100"/>
<path id="Vector_24" d="M163.816 34.5375V39.2038C163.816 40.0392 164.061 40.4527 164.559 40.4527C164.795 40.4527 165.056 40.3514 165.369 40.1489L165.951 39.8451C166.137 39.8451 166.229 39.9633 166.229 40.1911L166.137 40.4443C166.094 40.5371 165.791 40.8324 165.234 41.3387C164.727 41.845 164.061 42.0897 163.242 42.0897C161.901 42.0897 161.234 41.2965 161.234 39.7186V35.5417V35.2717C161.234 35.162 161.226 35.0607 161.2 34.9679C161.175 34.8751 161.091 34.7991 160.939 34.74C160.66 34.6641 160.525 34.5291 160.525 34.3266C160.525 34.1156 160.669 33.9131 160.964 33.7275C161.15 33.5925 161.293 33.4912 161.386 33.4321C161.605 33.2802 161.766 33.1537 161.875 33.0608L162.761 32.2339L163.293 31.677C163.386 31.5842 163.504 31.542 163.639 31.542C163.934 31.542 164.078 31.6939 164.078 32.0061L163.934 32.7655L163.825 33.7612V34.5375H163.816ZM162.474 26.9854C162.922 26.9854 163.301 27.1372 163.605 27.4495C163.917 27.7617 164.069 28.1329 164.069 28.5802C164.069 29.0274 163.917 29.4071 163.605 29.7109C163.293 30.0231 162.922 30.175 162.474 30.175C162.044 30.175 161.673 30.0231 161.369 29.7109C161.057 29.3987 160.905 29.0274 160.905 28.5802C160.905 28.1329 161.048 27.7532 161.335 27.4495C161.614 27.1372 161.993 26.9854 162.474 26.9854Z" fill="#000100"/>
<path id="Vector_25" d="M166.103 39.6005V29.2384V28.9177C166.103 28.808 166.094 28.7152 166.069 28.6393C166.044 28.5633 165.926 28.4705 165.698 28.3608C165.47 28.2511 165.36 28.1161 165.36 27.9474C165.36 27.8545 165.411 27.7448 165.504 27.6267L166.035 27.2301L167.056 26.3947L167.841 25.61C168.069 25.3484 168.288 25.2134 168.491 25.2134C168.6 25.2134 168.685 25.2471 168.752 25.3062C168.82 25.3653 168.862 25.4834 168.879 25.6522L168.811 26.1163L168.693 27.3904V28.7996V38.9929C168.693 39.5161 168.727 39.8621 168.786 40.0308C168.921 40.3093 169.141 40.4443 169.453 40.4443C169.622 40.4443 169.765 40.419 169.892 40.3768L170.373 40.1237L170.803 39.938C170.989 39.938 172.879 37.28 172.887 37.4825C172.887 37.7103 170.761 40.8409 170.077 41.3556C169.757 41.6003 169.427 41.786 169.107 41.9041C168.786 42.0222 168.449 42.0897 168.086 42.0897C167.335 42.0897 166.812 41.8704 166.525 41.4316C166.246 41.0012 166.103 40.3852 166.103 39.6005Z" fill="#000100"/>
<g id="Group_12">
<path id="Vector_26" d="M172.254 36.7227C172.533 36.4274 172.929 36.2924 173.301 36.1405C172.566 35.9042 171.579 36.6214 171.883 37.4146" fill="#000100"/>
<path id="Vector_27" d="M171.95 36.2754C172.229 35.9801 172.626 35.8451 172.997 35.6932C172.263 35.4569 171.275 36.1742 171.579 36.9674" fill="#000100"/>
<path id="Vector_28" d="M173.461 38.3852C173.756 38.0983 173.874 37.7017 174.026 37.3389C174.28 38.0646 173.579 39.0518 172.769 38.7734" fill="#000100"/>
<path id="Vector_29" d="M173.925 38.6801C174.22 38.3932 174.339 37.9966 174.49 37.6338C174.744 38.3595 174.043 39.3467 173.233 39.0683" fill="#000100"/>
<path id="Vector_30" d="M174.558 39.288C174.853 39.0011 174.971 38.6045 175.123 38.2417C175.376 38.9674 174.676 39.9546 173.866 39.6762" fill="#000100"/>
</g>
</g>
</svg>
