<svg width="48" height="48" viewBox="0 0 48 48" fill="none" xmlns="http://www.w3.org/2000/svg">
<rect width="48" height="48" rx="24" fill="#EC8772"/>
<path d="M34.5 17.5833C34.5 19.8349 32.6683 21.6666 30.4167 21.6666C28.165 21.6666 26.3333 19.8349 26.3333 17.5833C26.3333 15.3316 28.165 13.4999 30.4167 13.4999C32.6683 13.4999 34.5 15.3316 34.5 17.5833ZM32.1667 23.7549C31.5833 23.9066 31 23.9999 30.4167 23.9999C28.7158 23.9968 27.0855 23.3198 25.8828 22.1171C24.6801 20.9144 24.0031 19.2841 24 17.5833C24 15.8683 24.6767 14.3166 25.75 13.1616C25.5383 12.9021 25.2713 12.693 24.9686 12.5497C24.6658 12.4064 24.3349 12.3325 24 12.3333C22.7167 12.3333 21.6667 13.3833 21.6667 14.6666V15.0049C18.2017 16.0316 15.8333 19.2166 15.8333 22.8333V29.8333L13.5 32.1666V33.3333H34.5V32.1666L32.1667 29.8333V23.7549ZM24 36.8333C25.295 36.8333 26.3333 35.7949 26.3333 34.4999H21.6667C21.6667 35.1188 21.9125 35.7123 22.3501 36.1498C22.7877 36.5874 23.3812 36.8333 24 36.8333Z" fill="white"/>
</svg>
