<svg width="50" height="71" viewBox="0 0 50 71" fill="none" xmlns="http://www.w3.org/2000/svg">
<rect x="1" width="48" height="48" rx="24" fill="#EC8772"/>
<path d="M35.5 17.5833C35.5 19.8349 33.6683 21.6666 31.4167 21.6666C29.165 21.6666 27.3333 19.8349 27.3333 17.5833C27.3333 15.3316 29.165 13.4999 31.4167 13.4999C33.6683 13.4999 35.5 15.3316 35.5 17.5833ZM33.1667 23.7549C32.5833 23.9066 32 23.9999 31.4167 23.9999C29.7158 23.9968 28.0855 23.3198 26.8828 22.1171C25.6801 20.9144 25.0031 19.2841 25 17.5833C25 15.8683 25.6767 14.3166 26.75 13.1616C26.5383 12.9021 26.2713 12.693 25.9686 12.5497C25.6658 12.4064 25.3349 12.3325 25 12.3333C23.7167 12.3333 22.6667 13.3833 22.6667 14.6666V15.0049C19.2017 16.0316 16.8333 19.2166 16.8333 22.8333V29.8333L14.5 32.1666V33.3333H35.5V32.1666L33.1667 29.8333V23.7549ZM25 36.8333C26.295 36.8333 27.3333 35.7949 27.3333 34.4999H22.6667C22.6667 35.1188 22.9125 35.7123 23.3501 36.1498C23.7877 36.5874 24.3812 36.8333 25 36.8333Z" fill="white"/>
<g filter="url(#filter0_f_402_4)">
<ellipse cx="25" cy="56.5" rx="13" ry="2.5" fill="#EC8772"/>
</g>
<defs>
<filter id="filter0_f_402_4" x="0" y="42" width="50" height="29" filterUnits="userSpaceOnUse" color-interpolation-filters="sRGB">
<feFlood flood-opacity="0" result="BackgroundImageFix"/>
<feBlend mode="normal" in="SourceGraphic" in2="BackgroundImageFix" result="shape"/>
<feGaussianBlur stdDeviation="6" result="effect1_foregroundBlur_402_4"/>
</filter>
</defs>
</svg>
