<svg width="50" height="70" viewBox="0 0 50 70" fill="none" xmlns="http://www.w3.org/2000/svg">
<rect x="1" width="48" height="48" rx="24" fill="#FFC100"/>
<path d="M13.3333 32.1666C13.3333 34.1499 14.8499 35.6666 16.8333 35.6666H33.1666C35.1499 35.6666 36.6666 34.1499 36.6666 32.1666V22.8333H13.3333V32.1666ZM33.1666 14.6666H30.8333V13.4999C30.8333 12.7999 30.3666 12.3333 29.6666 12.3333C28.9666 12.3333 28.4999 12.7999 28.4999 13.4999V14.6666H21.4999V13.4999C21.4999 12.7999 21.0333 12.3333 20.3333 12.3333C19.6333 12.3333 19.1666 12.7999 19.1666 13.4999V14.6666H16.8333C14.8499 14.6666 13.3333 16.1833 13.3333 18.1666V20.4999H36.6666V18.1666C36.6666 16.1833 35.1499 14.6666 33.1666 14.6666Z" fill="white"/>
<g filter="url(#filter0_f_402_3)">
<ellipse cx="25" cy="55.5" rx="13" ry="2.5" fill="#FFC100"/>
</g>
<defs>
<filter id="filter0_f_402_3" x="0" y="41" width="50" height="29" filterUnits="userSpaceOnUse" color-interpolation-filters="sRGB">
<feFlood flood-opacity="0" result="BackgroundImageFix"/>
<feBlend mode="normal" in="SourceGraphic" in2="BackgroundImageFix" result="shape"/>
<feGaussianBlur stdDeviation="6" result="effect1_foregroundBlur_402_3"/>
</filter>
</defs>
</svg>
