<svg width="48" height="48" viewBox="0 0 48 48" fill="none" xmlns="http://www.w3.org/2000/svg">
<rect width="48" height="48" rx="24" fill="#FFC100"/>
<path d="M12.3333 32.1666C12.3333 34.1499 13.8499 35.6666 15.8333 35.6666H32.1666C34.1499 35.6666 35.6666 34.1499 35.6666 32.1666V22.8333H12.3333V32.1666ZM32.1666 14.6666H29.8333V13.4999C29.8333 12.7999 29.3666 12.3333 28.6666 12.3333C27.9666 12.3333 27.4999 12.7999 27.4999 13.4999V14.6666H20.4999V13.4999C20.4999 12.7999 20.0333 12.3333 19.3333 12.3333C18.6333 12.3333 18.1666 12.7999 18.1666 13.4999V14.6666H15.8333C13.8499 14.6666 12.3333 16.1833 12.3333 18.1666V20.4999H35.6666V18.1666C35.6666 16.1833 34.1499 14.6666 32.1666 14.6666Z" fill="white"/>
</svg>
