<svg width="24" height="24" viewBox="0 0 24 24" fill="none" xmlns="http://www.w3.org/2000/svg">
<g id="ic:round-download-done">
<path id="Vector" d="M6 18H18C18.55 18 19 18.45 19 19C19 19.55 18.55 20 18 20H6C5.45 20 5 19.55 5 19C5 18.45 5.45 18 6 18ZM11.01 13.9C10.634 14.2712 10.1263 14.4785 9.59794 14.4766C9.06957 14.4747 8.5634 14.2638 8.19 13.89L6 11.7C5.45 11.15 5.46 10.26 6.03 9.73C6.57 9.21 7.43 9.23 7.95 9.75L9.6 11.4L16.03 4.97C16.57 4.43 17.44 4.43 17.98 4.97L18.02 5.01C18.56 5.55 18.56 6.43 18.01 6.97L11.01 13.9Z" fill="#F2205C"/>
</g>
</svg>
